<svg xmlns="http://www.w3.org/2000/svg" width="215" height="36.038" viewBox="0 0 215 36.038">
  <g id="Accusoft" transform="translate(-42.508 -42.3)">
    <path id="Path_6" data-name="Path 6" d="M222.2,86.134a4.738,4.738,0,0,1,.6-2.376,5.679,5.679,0,0,1,1.691-1.852,8.257,8.257,0,0,1,2.617-1.208,12.427,12.427,0,0,1,3.342-.443,17.719,17.719,0,0,1,3.221.282,13.736,13.736,0,0,1,2.9.805V79.369a6.028,6.028,0,0,0-1.611-4.469,5.764,5.764,0,0,0-4.348-1.651,8.777,8.777,0,0,0-3.06.6,14.462,14.462,0,0,0-3.261,1.772l-.725-1.288a13.172,13.172,0,0,1,7.247-2.537,7.479,7.479,0,0,1,5.6,2.053,7.672,7.672,0,0,1,2.053,5.677v9.663q0,.966.6.966v1.651a.685.685,0,0,1-.282.04h-.282a1.531,1.531,0,0,1-1.208-.523,2.074,2.074,0,0,1-.523-1.208V88.509a8.927,8.927,0,0,1-3.5,2.7,10.884,10.884,0,0,1-4.59.926,6.473,6.473,0,0,1-2.537-.483,6.343,6.343,0,0,1-2.053-1.288,5.127,5.127,0,0,1-1.369-1.933A4.817,4.817,0,0,1,222.2,86.134Zm1.812-.121a4.747,4.747,0,0,0,.362,1.852,4.343,4.343,0,0,0,1.047,1.49,5.457,5.457,0,0,0,1.611,1.007,5.365,5.365,0,0,0,1.973.362,9.676,9.676,0,0,0,4.067-.846,6.614,6.614,0,0,0,2.818-2.214,2.558,2.558,0,0,0,.6-1.53v-3.5a13.677,13.677,0,0,0-2.859-.805,19.213,19.213,0,0,0-3.06-.242,11.011,11.011,0,0,0-2.7.322,7.627,7.627,0,0,0-2.094.886,3.914,3.914,0,0,0-1.329,1.369A4.055,4.055,0,0,0,224.012,86.013Z" transform="translate(-107.343 -17.622)" fill="#720072"/>
    <path id="Path_7" data-name="Path 7" d="M271.1,81.746a10.731,10.731,0,0,1,.725-3.946,10.148,10.148,0,0,1,2.013-3.221,9.835,9.835,0,0,1,3.06-2.174A9.681,9.681,0,0,1,280.8,71.6a9.264,9.264,0,0,1,4.751,1.208,7.333,7.333,0,0,1,3.06,3.382l-1.852.6a6.063,6.063,0,0,0-2.5-2.537,7.156,7.156,0,0,0-3.543-.926,6.894,6.894,0,0,0-3.02.644,8.137,8.137,0,0,0-2.456,1.772,8.7,8.7,0,0,0-2.255,5.959,8.52,8.52,0,0,0,.644,3.342,8.254,8.254,0,0,0,1.691,2.738,7.787,7.787,0,0,0,2.456,1.812,6.921,6.921,0,0,0,3.02.684A6.759,6.759,0,0,0,282.816,90a6.977,6.977,0,0,0,1.852-.805,7.074,7.074,0,0,0,1.49-1.168A3.842,3.842,0,0,0,287,86.658l1.852.523a6.057,6.057,0,0,1-1.168,1.933,7.812,7.812,0,0,1-1.852,1.57,9.306,9.306,0,0,1-2.335,1.007,9.627,9.627,0,0,1-2.657.362,9.351,9.351,0,0,1-3.865-.805,10.634,10.634,0,0,1-3.1-2.214,10.177,10.177,0,0,1-2.053-3.261A12.285,12.285,0,0,1,271.1,81.746Z" transform="translate(-136.555 -17.503)" fill="#720072"/>
    <path id="Path_8" data-name="Path 8" d="M320.3,81.746a10.731,10.731,0,0,1,.725-3.946,10.148,10.148,0,0,1,2.013-3.221,9.835,9.835,0,0,1,3.06-2.174A9.681,9.681,0,0,1,330,71.6a9.264,9.264,0,0,1,4.751,1.208,7.333,7.333,0,0,1,3.06,3.382l-1.852.6a6.063,6.063,0,0,0-2.5-2.537,7.156,7.156,0,0,0-3.543-.926,6.894,6.894,0,0,0-3.02.644,8.136,8.136,0,0,0-2.456,1.772,8.7,8.7,0,0,0-2.255,5.959,8.52,8.52,0,0,0,.644,3.342,8.254,8.254,0,0,0,1.691,2.738,7.788,7.788,0,0,0,2.456,1.812,6.922,6.922,0,0,0,3.02.684A6.759,6.759,0,0,0,332.016,90a6.976,6.976,0,0,0,1.852-.805,7.072,7.072,0,0,0,1.49-1.168,3.842,3.842,0,0,0,.846-1.369l1.852.523a6.057,6.057,0,0,1-1.168,1.933,7.812,7.812,0,0,1-1.852,1.57,9.307,9.307,0,0,1-2.335,1.007,9.626,9.626,0,0,1-2.657.362,9.351,9.351,0,0,1-3.865-.805,10.634,10.634,0,0,1-3.1-2.214,10.177,10.177,0,0,1-2.053-3.261A11.319,11.319,0,0,1,320.3,81.746Z" transform="translate(-165.945 -17.503)" fill="#720072"/>
    <path id="Path_9" data-name="Path 9" d="M372.3,83.894V72.5h1.892V83.613c0,4.832,1.651,7.288,4.952,7.288a7.35,7.35,0,0,0,2.456-.443,8.508,8.508,0,0,0,2.214-1.208,8.79,8.79,0,0,0,1.812-1.852,9.794,9.794,0,0,0,1.248-2.416V72.5h1.892V89.571c0,.644.282.926.805.926v1.691a1,1,0,0,1-.322.04h-.242a2.107,2.107,0,0,1-1.369-.483,1.532,1.532,0,0,1-.6-1.288V87.478a9.242,9.242,0,0,1-3.543,3.7,9.43,9.43,0,0,1-4.872,1.329C374.394,92.591,372.3,89.692,372.3,83.894Z" transform="translate(-197.009 -18.041)" fill="#720072"/>
    <path id="Path_10" data-name="Path 10" d="M421.5,89.134l.926-1.288a10.731,10.731,0,0,0,3.3,2.134,10.161,10.161,0,0,0,3.744.684,7.122,7.122,0,0,0,4.147-1.087,3.471,3.471,0,0,0,1.57-3.02,2.629,2.629,0,0,0-.4-1.53,3.127,3.127,0,0,0-1.208-1.047,9.175,9.175,0,0,0-1.973-.765c-.805-.2-1.691-.483-2.738-.765-1.087-.282-2.053-.564-2.859-.805a6.987,6.987,0,0,1-2.053-.886,3.457,3.457,0,0,1-1.611-3.221,5.782,5.782,0,0,1,.564-2.577,4.846,4.846,0,0,1,1.57-1.812,7.33,7.33,0,0,1,2.335-1.087,10.512,10.512,0,0,1,2.778-.362,10.234,10.234,0,0,1,4.107.765,7.672,7.672,0,0,1,2.778,1.973l-1.087,1.007a5.565,5.565,0,0,0-2.577-1.691,10.213,10.213,0,0,0-3.342-.564,8.441,8.441,0,0,0-2.053.242,5.369,5.369,0,0,0-1.691.725,3.493,3.493,0,0,0-1.127,1.288,3.813,3.813,0,0,0-.4,1.852,2.932,2.932,0,0,0,.282,1.409,2.543,2.543,0,0,0,.926.926,6.085,6.085,0,0,0,1.611.644c.644.161,1.449.4,2.376.644,1.208.322,2.295.644,3.3.886a7.933,7.933,0,0,1,2.416,1.007,4.157,4.157,0,0,1,1.449,1.449,4.288,4.288,0,0,1,.523,2.134,5.046,5.046,0,0,1-2.053,4.228,8.884,8.884,0,0,1-5.516,1.57,12.058,12.058,0,0,1-4.348-.765A10.465,10.465,0,0,1,421.5,89.134Z" transform="translate(-226.399 -17.563)" fill="#720072"/>
    <path id="Path_11" data-name="Path 11" d="M465.5,81.927a10.731,10.731,0,0,1,.725-3.946,10.339,10.339,0,0,1,2.013-3.261,9.948,9.948,0,0,1,3.06-2.214,8.7,8.7,0,0,1,3.825-.805,8.977,8.977,0,0,1,3.785.805,10.452,10.452,0,0,1,3.06,2.214,9.758,9.758,0,0,1,2.053,3.261,10.887,10.887,0,0,1,.725,3.946,10.673,10.673,0,0,1-.725,3.905,10.34,10.34,0,0,1-2.013,3.261,9.462,9.462,0,0,1-10.75,2.214,10.452,10.452,0,0,1-3.06-2.214,10.34,10.34,0,0,1-2.013-3.261A11.55,11.55,0,0,1,465.5,81.927Zm1.892.081a8.7,8.7,0,0,0,.6,3.261,8.959,8.959,0,0,0,1.651,2.657A7.106,7.106,0,0,0,472.1,89.7a6.843,6.843,0,0,0,2.979.644,7.147,7.147,0,0,0,3.02-.644,7.788,7.788,0,0,0,2.456-1.812,9.164,9.164,0,0,0,1.651-2.7,8.911,8.911,0,0,0,.6-3.3,8.9,8.9,0,0,0-2.255-5.959,7.787,7.787,0,0,0-2.456-1.812,6.827,6.827,0,0,0-5.959,0,7.759,7.759,0,0,0-2.456,1.852A9.822,9.822,0,0,0,468,78.706,9.066,9.066,0,0,0,467.392,82.007Z" transform="translate(-252.684 -17.563)" fill="#720072"/>
    <path id="Path_12" data-name="Path 12" d="M517.7,61.7v-1.57h2.778V59.49a9.415,9.415,0,0,1,1.49-5.677,4.746,4.746,0,0,1,4.107-2.013,8.181,8.181,0,0,1,2.214.322,5.265,5.265,0,0,1,1.771.926l-.684,1.369a4.138,4.138,0,0,0-1.329-.684,5.381,5.381,0,0,0-1.611-.242,3.411,3.411,0,0,0-2.979,1.53,7.961,7.961,0,0,0-1.047,4.469v.684h5.6v1.57h-5.6v18.2h-1.892V61.7Z" transform="translate(-283.867 -5.675)" fill="#720072"/>
    <path id="Path_13" data-name="Path 13" d="M545.2,64.034v-1.57h2.778V55.7h1.892v6.764h4.59v1.57h-4.59V78.489a1.874,1.874,0,0,0,.765,1.651,2.937,2.937,0,0,0,1.691.564,4.5,4.5,0,0,0,2.013-.4c.564-.282.926-.443,1.047-.523l.564,1.49a3.687,3.687,0,0,0-.523.282,7.016,7.016,0,0,1-.926.4,9.629,9.629,0,0,1-2.738.483,4.447,4.447,0,0,1-1.49-.242,3.425,3.425,0,0,1-1.248-.684,3.613,3.613,0,0,1-.846-1.087,3.573,3.573,0,0,1-.322-1.53v-14.9H545.2Z" transform="translate(-300.294 -8.005)" fill="#720072"/>
    <g id="Group_1" data-name="Group 1" transform="translate(252.837 46.165)">
      <path id="Path_14" data-name="Path 14" d="M564.9,54.195a2.362,2.362,0,0,1,.161-.926,2.286,2.286,0,0,1,.483-.725,2.078,2.078,0,0,1,.765-.483,2.743,2.743,0,0,1,1.852,0,3.063,3.063,0,0,1,.765.483,2.284,2.284,0,0,1,.483.725,2.743,2.743,0,0,1,0,1.852,2.284,2.284,0,0,1-.483.725,2.078,2.078,0,0,1-.765.483,2.362,2.362,0,0,1-.926.161,2.238,2.238,0,0,1-.926-.161,3.063,3.063,0,0,1-.765-.483,2.285,2.285,0,0,1-.483-.725A2.362,2.362,0,0,1,564.9,54.195Zm.242,0a1.979,1.979,0,0,0,.161.846,2.493,2.493,0,0,0,.443.684,2.009,2.009,0,0,0,.685.443,1.98,1.98,0,0,0,.845.161,2.1,2.1,0,0,0,.846-.161,2.493,2.493,0,0,0,.685-.443,1.688,1.688,0,0,0,.443-.644,1.98,1.98,0,0,0,.161-.846,2.1,2.1,0,0,0-.161-.846,2.5,2.5,0,0,0-.443-.684,2.01,2.01,0,0,0-.685-.443,2.3,2.3,0,0,0-1.691,0,2.493,2.493,0,0,0-.685.443,2.01,2.01,0,0,0-.443.684A1.6,1.6,0,0,0,565.142,54.195Zm1.168,1.449V52.705h1.208a1.176,1.176,0,0,1,.362.081.722.722,0,0,1,.282.2.81.81,0,0,1,.161.322,1.244,1.244,0,0,1,.081.322.962.962,0,0,1-.2.564.614.614,0,0,1-.483.282l.725,1.127h-.362l-.685-1.087h-.765V55.6h-.322Zm.322-1.369h.886a.467.467,0,0,0,.4-.161.811.811,0,0,0,.121-.443.605.605,0,0,0-.161-.443.517.517,0,0,0-.4-.161h-.846Z" transform="translate(-564.9 -51.9)" fill="#720072"/>
    </g>
    <g id="Group_2" data-name="Group 2" transform="translate(42.508 42.3)">
      <path id="Path_15" data-name="Path 15" d="M114.714,70.363c-.483-.6-20.131-25.728-20.816-26.573-.644-.846-.483-1.087-.362-1.208.242-.282.6-.242,2.013-.242.846,0,9.22-.04,10.106-.04a7.185,7.185,0,0,1,2.295.2,4.3,4.3,0,0,1,1.047.886c.2.242,17.8,21.3,17.957,21.5.2.242.483.644.725,1.007.2.362.242.846-.081,1.047-.2.121-9.945,4.147-10.227,4.228a2.324,2.324,0,0,1-1.208.242,2.7,2.7,0,0,1-1.449-1.047" transform="translate(-72.924 -42.3)" fill="#720072" fill-rule="evenodd"/>
      <path id="Path_16" data-name="Path 16" d="M112.753,104.886l.725.121s2.335.443,2.577.523c.242.04.443.242.443.322,0,.2-.121.282-.322.4-.161.121-10.71,6.6-10.911,6.724a2.394,2.394,0,0,1-1.007.322,12.245,12.245,0,0,1-3.664-.483c-.6-.121-26.493-5.878-26.694-5.959-.242-.081-.4-.081-.4-.322-.04-.362.523-.483.966-.644s12.6-4.55,13.045-4.751a3.214,3.214,0,0,1,1.248-.242c.282,0,1.973.242,2.738.362s2.939.443,2.939.443l4.952,6.4c.846,1.007,1.409,1.409,2.134,1.449a2.215,2.215,0,0,0,1.047-.2c.2-.081,10.186-4.469,10.186-4.469" transform="translate(-61.019 -77.306)" fill="#720072" fill-rule="evenodd"/>
      <path id="Path_17" data-name="Path 17" d="M65.978,71.8s4.268,5.476,4.308,5.516a.4.4,0,0,0,.161.2V77.6c-.161.121-7.771,7.167-7.811,7.207l-8.012,2.939a1.986,1.986,0,0,0-.362.161.577.577,0,0,0-.242.6c0,.121.04,1.973.081,2.416l-.04.04s-9.864,3.141-9.945,3.141a5.7,5.7,0,0,1-1.53.4c-.2-.161.04-.4.161-.564s20.333-20.051,21.1-20.856A3.849,3.849,0,0,1,65.978,71.8" transform="translate(-42.508 -59.922)" fill="#720072" fill-rule="evenodd"/>
    </g>
  </g>
</svg>
