<svg xmlns="http://www.w3.org/2000/svg" width="215" height="41.398" viewBox="0 0 215 41.398">
  <path id="Ambrook" d="M13.967,45.3a8.2,8.2,0,0,1-6.531,3.3C2.716,48.6,0,45.946,0,41.873c0-6.337,8.729-9.247,13.967-7.953V30.88c0-4.526-2.263-4.85-4.332-4.85-3.492,0-6.272,2.2-7.5,3.1-.517-.323-.711-.776-.711-1.746,0-2.457,4.2-5.69,9.7-5.69,4.591,0,10.152,1.552,10.152,8.147V42.39c0,1.81.647,2.134,1.811,2.134A4.935,4.935,0,0,0,24.83,44.2c.323.194.388.453.388.905,0,1.423-2.651,3.233-5.884,3.233C16.812,48.4,14.1,47.175,13.967,45.3Zm0-2.716V36.635c-3.3-.582-6.983,1.293-6.983,4.914,0,2.069.97,3.492,2.974,3.492a4.717,4.717,0,0,0,4.009-2.457Zm13.062,5.173c0-1.681.517-2.457,1.229-2.651l2.845-.646V26.289l-2.586-.582c-1.229-.259-1.811-1.423-1.811-2.78L37.7,21.634c.065,0,.646-.129.646.388v2.328A11.442,11.442,0,0,1,45.263,21.7c3.686,0,6.4,1.423,7.824,4.138A10.282,10.282,0,0,1,61.558,21.7c5.367,0,8.277,3.492,8.277,8.923V44.395l3.944.711a2.5,2.5,0,0,1-1.617,2.587H59.36c0-1.746.646-2.651,1.228-2.781l2-.517V30.622c0-2.716-1.035-4.72-3.621-4.72A7.24,7.24,0,0,0,53.8,28.035a11.526,11.526,0,0,1,.259,2.651V44.459l3.621.711a2.5,2.5,0,0,1-1.616,2.587H43.647c0-1.746.646-2.651,1.229-2.781l2-.517V30.622c0-2.716-1.293-4.72-3.621-4.72a8.775,8.775,0,0,0-4.85,1.552V44.395l3.621.776c0,1.681-1.1,2.522-1.616,2.522H27.029ZM89.3,45.235c3.88,0,5.819-3.944,5.819-10.346,0-4.526-1.423-9.053-4.979-9.053A4.759,4.759,0,0,0,86.97,27c-2.263-1.617.646-5.3,5.561-5.3,6.725,0,10.216,5.5,10.216,12.027,0,8.212-5.755,14.872-15.2,14.872-4.914,0-9.5-2-10.475-3.815V11.805l-2.845-.388c-1.293-.194-1.616-1.293-1.81-2.716L83.737,7.279s.646-.129.646.388V43.489A7.376,7.376,0,0,0,89.3,45.235Zm16.489-.129,2.845-.646V26.031l-2.586-.647c-1.423-.388-1.617-1.358-1.811-2.457l10.993-1.293c.065,0,.646-.129.646.388v3.556c1.94-2.716,4.4-3.944,6.4-3.944a3.474,3.474,0,0,1,3.427,3.686,4.475,4.475,0,0,1-1.746,3.621,5.929,5.929,0,0,0-4.2-2,5.363,5.363,0,0,0-3.88,1.875V44.33l4.462.905c0,1.164-.582,2.393-1.617,2.393H104.493c.065-1.293.388-2.2,1.293-2.522ZM126.8,35.471c0-6.531,5.173-13.708,14.808-13.708,8.083,0,12.544,4.914,12.544,12.48A14.141,14.141,0,0,1,139.669,48.6C131.134,48.6,126.8,43.3,126.8,35.471Zm19.722-.129c0-7.63-3.3-10.346-6.4-10.346-3.168,0-5.755,2.586-5.755,9.311,0,6.6,2.328,11.057,6.725,11.057,3.815,0,5.431-4.268,5.431-10.023Zm10.8.129c0-6.531,5.173-13.708,14.808-13.708,8.083,0,12.544,4.914,12.544,12.48A14.141,14.141,0,0,1,170.19,48.6c-8.6,0-12.868-5.3-12.868-13.126Zm19.722-.129c0-7.63-3.3-10.346-6.4-10.346-3.168,0-5.755,2.586-5.755,9.311,0,6.6,2.328,11.057,6.725,11.057,3.815,0,5.432-4.268,5.432-10.023Zm10.411,9.764,2.78-.646V11.805l-2.586-.517c-1.423-.323-1.617-1.423-1.811-2.586L196.83,7.214c.065,0,.646-.129.646.388V44.459l3.621.905c0,1.164-.388,2.393-1.617,2.393h-13.32c0-1.423.129-2.328,1.293-2.651ZM198.641,34.76a1.506,1.506,0,0,1,.453-.97l6.272-8.471-2.716-.905c0-1.164.582-2.134,1.617-2.134h10.087c0,1.1-.194,2.134-1.229,2.328l-2.78.647L204.2,32.109l5.625,7.436A40.305,40.305,0,0,0,215,45.623c0,1.358-2.069,2.651-4.526,2.651-3.039,0-4.332-1.552-6.79-5.3l-4.526-7.113a1.88,1.88,0,0,1-.517-1.1Z" transform="translate(0 -7.2)" fill="#720072"/>
</svg>
