<?xml version="1.0" encoding="utf-8"?>
<!-- Generator: Adobe Illustrator 25.4.1, SVG Export Plug-In . SVG Version: 6.00 Build 0)  -->
<svg version="1.1" id="Layer_1" xmlns="http://www.w3.org/2000/svg" xmlns:xlink="http://www.w3.org/1999/xlink" x="0px" y="0px"
	 viewBox="0 0 1410 354" style="enable-background:new 0 0 1410 354;" xml:space="preserve">
<style type="text/css">
	.st0{fill:url(#SVGID_1_);}
</style>
<linearGradient id="SVGID_1_" gradientUnits="userSpaceOnUse" x1="705" y1="354.027" x2="705" y2="-9.094947e-13">
	<stop  offset="0" style="stop-color:#D0D0D0"/>
	<stop  offset="0.9996" style="stop-color:#FFFFFF;stop-opacity:0"/>
</linearGradient>
<path class="st0" d="M1388,0h-68v0h-86v0h-90v0h-86h-2h-20h-68v0h-86v0h-90v0h-86h-2h-20h-68v0h-86v0h-90v0h-86h-2h-20h-68v0h-86v0
	H88v0H0v354h90v0h86v0h90v0h86h2h88v0h86v0h90v0h86h2h88v0h86v0h90v0h86h2h88v0h86v0h90v0h88V0H1388z M22,352H2v-20h20V352z M22,330
	H2v-20h20V330z M22,308H2v-20h20V308z M22,286H2v-20h20V286z M22,264H2v-20h20V264z M22,242H2v-20h20V242z M22,220H2v-20h20V220z
	 M22,198H2v-20h20V198z M22,176H2v-20h20V176z M22,154H2v-20h20V154z M22,132H2v-20h20V132z M22,110H2V90h20V110z M22,88H2V68h20V88
	z M22,66H2V46h20V66z M22,44H2V24h20V44z M22,22H2V2h20V22z M44,352H24v-20h20V352z M44,330H24v-20h20V330z M44,308H24v-20h20V308z
	 M44,286H24v-20h20V286z M44,264H24v-20h20V264z M44,242H24v-20h20V242z M44,220H24v-20h20V220z M44,198H24v-20h20V198z M44,176H24
	v-20h20V176z M44,154H24v-20h20V154z M44,132H24v-20h20V132z M44,110H24V90h20V110z M44,88H24V68h20V88z M44,66H24V46h20V66z M44,44
	H24V24h20V44z M44,22H24V2h20V22z M66,352H46v-20h20V352z M66,330H46v-20h20V330z M66,308H46v-20h20V308z M66,286H46v-20h20V286z
	 M66,264H46v-20h20V264z M66,242H46v-20h20V242z M66,220H46v-20h20V220z M66,198H46v-20h20V198z M66,176H46v-20h20V176z M66,154H46
	v-20h20V154z M66,132H46v-20h20V132z M66,110H46V90h20V110z M66,88H46V68h20V88z M66,66H46V46h20V66z M66,44H46V24h20V44z M66,22H46
	V2h20V22z M88,352H68v-20h20V352z M88,330L88,330l-20,0v-20h20V330z M88,308L88,308l-20,0v-20h20V308z M88,286L88,286l-20,0v-20h20
	V286z M88,264H68v-20h20V264z M88,242L88,242l-20,0v-20h20V242z M88,220L88,220l-20,0v-20h20V220z M88,198L88,198l-20,0v-20h20V198z
	 M88,176H68v-20h20V176z M88,154H68v-20h20V154z M88,132H68v-20h20V132z M88,110H68V90h20V110z M88,88H68V68h20V88z M88,66H68V46h20
	V66z M88,44H68V24h20V44z M88,22H68V2h20V22z M110,352H90v-20h20V352z M110,330H90v-20h20V330z M110,308H90v-20h20V308z M110,286H90
	v-20h20V286z M110,264H90v-20h20V264z M110,242H90v-20h20V242z M110,220H90v-20h20V220z M110,198H90v-20h20V198z M110,176H90v-20v0
	h20V176z M110,154H90v-20v0h20V154z M110,132H90v-20v0h20V132z M110,110H90V90h20V110z M110,88H90V68v0h20V88z M110,66H90V46v0h20
	V66z M110,44H90V24v0h20V44z M110,22H90V2h20V22z M132,352h-20v-20h20V352z M132,330h-20v-20h20V330z M132,308h-20v-20h20V308z
	 M132,286h-20v-20h20V286z M132,264h-20v-20h20V264z M132,242h-20v-20h20V242z M132,220h-20v-20h20V220z M132,198h-20v-20h20V198z
	 M132,176h-20v-20h20V176z M132,154h-20v-20h20V154z M132,132h-20v-20h20V132z M132,110h-20V90h20V110z M132,88h-20V68h20V88z
	 M132,66h-20V46h20V66z M132,44h-20V24h20V44z M132,22h-20V2h20V22z M154,352h-20v-20h20V352z M154,330h-20v-20h20V330z M154,308
	h-20v-20h20V308z M154,286h-20v-20h20V286z M154,264h-20v-20h20V264z M154,242h-20v-20h20V242z M154,220h-20v-20h20V220z M154,198
	h-20v-20h20V198z M154,176h-20v-20h20V176z M154,154h-20v-20h20V154z M154,132h-20v-20h20V132z M154,110h-20V90h20V110z M154,88h-20
	V68h20V88z M154,66h-20V46h20V66z M154,44h-20V24h20V44z M154,22h-20V2h20V22z M176,332v20h-20v-20L176,332L176,332z M176,310v20
	h-20v-20L176,310L176,310z M176,288v20h-20v-20L176,288L176,288z M176,266v20h-20v-20L176,266L176,266z M176,244v20h-20v-20L176,244
	L176,244z M176,222v20h-20v-20L176,222L176,222z M176,200v20h-20v-20L176,200L176,200z M176,198h-20v-20h20V198z M176,176h-20v-20
	h20V176z M176,154h-20v-20h20V154z M176,132h-20v-20h20V132z M176,110h-20V90h20V110z M176,88h-20V68h20V88z M176,66h-20V46h20V66z
	 M176,44h-20V24h20V44z M176,22h-20V2h20V22z M198,352h-20v-20h20V352z M198,330h-20v-20h20V330z M198,308h-20v-20h20V308z M198,286
	h-20v-20h20V286z M198,264h-20v-20h20V264z M198,242h-20v-20h20V242z M198,220h-20v-20h20V220z M198,198h-20v-20h20V198z M198,176
	h-20v-20h20V176z M198,154h-20v0v-20h20V154z M198,132h-20v0v-20h20V132z M198,110h-20v0V90h20V110z M198,88h-20v0V68h20V88z
	 M198,66h-20v0V46h20V66z M198,44h-20v0V24h20V44z M198,22h-20v0V2h20V22z M220,352h-20v-20h20V352z M220,330h-20v-20h20V330z
	 M220,308h-20v-20h20V308z M220,286h-20v-20h20V286z M220,264h-20v-20h20V264z M220,242h-20v-20h20V242z M220,220h-20v-20h20V220z
	 M220,198h-20v-20h20V198z M220,176h-20v-20h20V176z M220,154h-20v-20h20V154z M220,132h-20v-20h20V132z M220,110h-20V90h20V110z
	 M220,88h-20V68h20V88z M220,66h-20V46h20V66z M220,44h-20V24h20V44z M220,22h-20V2h20V22z M242,352h-20v-20h20V352z M242,330h-20
	v-20h20V330z M242,308h-20v-20h20V308z M242,286h-20v-20h20V286z M242,264h-20v-20h20V264z M242,242h-20v-20h20V242z M242,220h-20
	v-20h20V220z M242,198h-20v-20h20V198z M242,176h-20v-20h20V176z M242,154h-20v-20h20V154z M242,132h-20v-20h20V132z M242,110h-20
	V90h20V110z M242,88h-20V68h20V88z M242,66h-20V46h20V66z M242,44h-20V24h20V44z M242,22h-20V2h20V22z M264,352h-20v-20h20V352z
	 M264,330L264,330l-20,0v-20h20V330z M264,308L264,308l-20,0v-20h20V308z M264,286L264,286l-20,0v-20h20V286z M264,264h-20v-20h20
	V264z M264,242L264,242l-20,0v-20h20V242z M264,220L264,220l-20,0v-20h20V220z M264,198L264,198l-20,0v-20h20V198z M264,176h-20v-20
	h20V176z M264,154h-20v-20h20V154z M264,132h-20v-20h20V132z M264,110h-20V90h20V110z M264,88h-20V68h20V88z M264,66h-20V46h20V66z
	 M264,44h-20V24h20V44z M264,22h-20V2h20V22z M286,352h-20v-20h20V352z M286,330h-20v-20h20V330z M286,308h-20v-20h20V308z M286,286
	h-20v-20h20V286z M286,264h-20v-20h20V264z M286,242h-20v-20h20V242z M286,220h-20v-20h20V220z M286,198h-20v-20h20V198z M286,176
	h-20v-20v0h20V176z M286,154h-20v-20v0h20V154z M286,132h-20v-20v0h20V132z M286,110h-20V90h20V110z M286,88h-20V68v0h20V88z
	 M286,66h-20V46v0h20V66z M286,44h-20V24v0h20V44z M286,22h-20V2h20V22z M308,352h-20v-20h20V352z M308,330h-20v-20h20V330z
	 M308,308h-20v-20h20V308z M308,286h-20v-20h20V286z M308,264h-20v-20h20V264z M308,242h-20v-20h20V242z M308,220h-20v-20h20V220z
	 M308,198h-20v-20h20V198z M308,176h-20v-20h20V176z M308,154h-20v-20h20V154z M308,132h-20v-20h20V132z M308,110h-20V90h20V110z
	 M308,88h-20V68h20V88z M308,66h-20V46h20V66z M308,44h-20V24h20V44z M308,22h-20V2h20V22z M330,352h-20v-20h20V352z M330,330h-20
	v-20h20V330z M330,308h-20v-20h20V308z M330,286h-20v-20h20V286z M330,264h-20v-20h20V264z M330,242h-20v-20h20V242z M330,220h-20
	v-20h20V220z M330,198h-20v-20h20V198z M330,176h-20v-20h20V176z M330,154h-20v-20h20V154z M330,132h-20v-20h20V132z M330,110h-20
	V90h20V110z M330,88h-20V68h20V88z M330,66h-20V46h20V66z M330,44h-20V24h20V44z M330,22h-20V2h20V22z M352,352h-20v-20h20V352z
	 M352,330h-20v-20h20V330z M352,308h-20v-20h20V308z M352,286h-20v-20h20V286z M352,264h-20v-20h20V264z M352,242h-20v-20h20V242z
	 M352,220h-20v-20h20V220z M352,198h-20v-20h20V198z M352,176h-20v-20h20V176z M352,154h-20v-20h20V154z M352,132h-20v-20h20V132z
	 M352,110h-20V90h20V110z M352,88h-20V68h20V88z M352,66h-20V46h20V66z M352,44h-20V24h20V44z M352,22h-20V2h20V22z M374,352h-20
	v-20h20V352z M374,330h-20v-20h20V330z M374,308h-20v-20h20V308z M374,286h-20v-20h20V286z M374,264h-20v-20h20V264z M374,242h-20
	v-20h20V242z M374,220h-20v-20h20V220z M374,198h-20v-20h20V198z M374,176h-20v-20h20V176z M374,154h-20v-20h20V154z M374,132h-20
	v-20h20V132z M374,110h-20V90h20V110z M374,88h-20V68h20V88z M374,66h-20V46h20V66z M374,44h-20V24h20V44z M374,22h-20V2h20V22z
	 M396,352h-20v-20h20V352z M396,330h-20v-20h20V330z M396,308h-20v-20h20V308z M396,286h-20v-20h20V286z M396,264h-20v-20h20V264z
	 M396,242h-20v-20h20V242z M396,220h-20v-20h20V220z M396,198h-20v-20h20V198z M396,176h-20v-20h20V176z M396,154h-20v-20h20V154z
	 M396,132h-20v-20h20V132z M396,110h-20V90h20V110z M396,88h-20V68h20V88z M396,66h-20V46h20V66z M396,44h-20V24h20V44z M396,22h-20
	V2h20V22z M418,352h-20v-20h20V352z M418,330h-20v-20h20V330z M418,308h-20v-20h20V308z M418,286h-20v-20h20V286z M418,264h-20v-20
	h20V264z M418,242h-20v-20h20V242z M418,220h-20v-20h20V220z M418,198h-20v-20h20V198z M418,176h-20v-20h20V176z M418,154h-20v-20
	h20V154z M418,132h-20v-20h20V132z M418,110h-20V90h20V110z M418,88h-20V68h20V88z M418,66h-20V46h20V66z M418,44h-20V24h20V44z
	 M418,22h-20V2h20V22z M440,352h-20v-20h20V352z M440,330L440,330l-20,0v-20h20V330z M440,308L440,308l-20,0v-20h20V308z M440,286
	L440,286l-20,0v-20h20V286z M440,264h-20v-20h20V264z M440,242L440,242l-20,0v-20h20V242z M440,220L440,220l-20,0v-20h20V220z
	 M440,198L440,198l-20,0v-20h20V198z M440,176h-20v-20h20V176z M440,154h-20v-20h20V154z M440,132h-20v-20h20V132z M440,110h-20V90
	h20V110z M440,88h-20V68h20V88z M440,66h-20V46h20V66z M440,44h-20V24h20V44z M440,22h-20V2h20V22z M462,352h-20v-20h20V352z
	 M462,330h-20v-20h20V330z M462,308h-20v-20h20V308z M462,286h-20v-20h20V286z M462,264h-20v-20h20V264z M462,242h-20v-20h20V242z
	 M462,220h-20v-20h20V220z M462,198h-20v-20h20V198z M462,176h-20v-20v0h20V176z M462,154h-20v-20v0h20V154z M462,132h-20v-20v0h20
	V132z M462,110h-20V90h20V110z M462,88h-20V68v0h20V88z M462,66h-20V46v0h20V66z M462,44h-20V24v0h20V44z M462,22h-20V2h20V22z
	 M484,352h-20v-20h20V352z M484,330h-20v-20h20V330z M484,308h-20v-20h20V308z M484,286h-20v-20h20V286z M484,264h-20v-20h20V264z
	 M484,242h-20v-20h20V242z M484,220h-20v-20h20V220z M484,198h-20v-20h20V198z M484,176h-20v-20h20V176z M484,154h-20v-20h20V154z
	 M484,132h-20v-20h20V132z M484,110h-20V90h20V110z M484,88h-20V68h20V88z M484,66h-20V46h20V66z M484,44h-20V24h20V44z M484,22h-20
	V2h20V22z M506,352h-20v-20h20V352z M506,330h-20v-20h20V330z M506,308h-20v-20h20V308z M506,286h-20v-20h20V286z M506,264h-20v-20
	h20V264z M506,242h-20v-20h20V242z M506,220h-20v-20h20V220z M506,198h-20v-20h20V198z M506,176h-20v-20h20V176z M506,154h-20v-20
	h20V154z M506,132h-20v-20h20V132z M506,110h-20V90h20V110z M506,88h-20V68h20V88z M506,66h-20V46h20V66z M506,44h-20V24h20V44z
	 M506,22h-20V2h20V22z M528,332v20h-20v-20L528,332L528,332z M528,310v20h-20v-20L528,310L528,310z M528,288v20h-20v-20L528,288
	L528,288z M528,266v20h-20v-20L528,266L528,266z M528,244v20h-20v-20L528,244L528,244z M528,222v20h-20v-20L528,222L528,222z
	 M528,200v20h-20v-20L528,200L528,200z M528,198h-20v-20h20V198z M528,176h-20v-20h20V176z M528,154h-20v-20h20V154z M528,132h-20
	v-20h20V132z M528,110h-20V90h20V110z M528,88h-20V68h20V88z M528,66h-20V46h20V66z M528,44h-20V24h20V44z M528,22h-20V2h20V22z
	 M550,352h-20v-20h20V352z M550,330h-20v-20h20V330z M550,308h-20v-20h20V308z M550,286h-20v-20h20V286z M550,264h-20v-20h20V264z
	 M550,242h-20v-20h20V242z M550,220h-20v-20h20V220z M550,198h-20v-20h20V198z M550,176h-20v-20h20V176z M550,154h-20v0v-20h20V154z
	 M550,132h-20v0v-20h20V132z M550,110h-20v0V90h20V110z M550,88h-20v0V68h20V88z M550,66h-20v0V46h20V66z M550,44h-20v0V24h20V44z
	 M550,22h-20v0V2h20V22z M572,352h-20v-20h20V352z M572,330h-20v-20h20V330z M572,308h-20v-20h20V308z M572,286h-20v-20h20V286z
	 M572,264h-20v-20h20V264z M572,242h-20v-20h20V242z M572,220h-20v-20h20V220z M572,198h-20v-20h20V198z M572,176h-20v-20h20V176z
	 M572,154h-20v-20h20V154z M572,132h-20v-20h20V132z M572,110h-20V90h20V110z M572,88h-20V68h20V88z M572,66h-20V46h20V66z M572,44
	h-20V24h20V44z M572,22h-20V2h20V22z M594,352h-20v-20h20V352z M594,330h-20v-20h20V330z M594,308h-20v-20h20V308z M594,286h-20v-20
	h20V286z M594,264h-20v-20h20V264z M594,242h-20v-20h20V242z M594,220h-20v-20h20V220z M594,198h-20v-20h20V198z M594,176h-20v-20
	h20V176z M594,154h-20v-20h20V154z M594,132h-20v-20h20V132z M594,110h-20V90h20V110z M594,88h-20V68h20V88z M594,66h-20V46h20V66z
	 M594,44h-20V24h20V44z M594,22h-20V2h20V22z M616,352h-20v-20h20V352z M616,330L616,330l-20,0v-20h20V330z M616,308L616,308l-20,0
	v-20h20V308z M616,286L616,286l-20,0v-20h20V286z M616,264h-20v-20h20V264z M616,242L616,242l-20,0v-20h20V242z M616,220L616,220
	l-20,0v-20h20V220z M616,198L616,198l-20,0v-20h20V198z M616,176h-20v-20h20V176z M616,154h-20v-20h20V154z M616,132h-20v-20h20V132
	z M616,110h-20V90h20V110z M616,88h-20V68h20V88z M616,66h-20V46h20V66z M616,44h-20V24h20V44z M616,22h-20V2h20V22z M638,352h-20
	v-20h20V352z M638,330h-20v-20h20V330z M638,308h-20v-20h20V308z M638,286h-20v-20h20V286z M638,264h-20v-20h20V264z M638,242h-20
	v-20h20V242z M638,220h-20v-20h20V220z M638,198h-20v-20h20V198z M638,176h-20v-20v0h20V176z M638,154h-20v-20v0h20V154z M638,132
	h-20v-20v0h20V132z M638,110h-20V90h20V110z M638,88h-20V68v0h20V88z M638,66h-20V46v0h20V66z M638,44h-20V24v0h20V44z M638,22h-20
	V2h20V22z M660,352h-20v-20h20V352z M660,330h-20v-20h20V330z M660,308h-20v-20h20V308z M660,286h-20v-20h20V286z M660,264h-20v-20
	h20V264z M660,242h-20v-20h20V242z M660,220h-20v-20h20V220z M660,198h-20v-20h20V198z M660,176h-20v-20h20V176z M660,154h-20v-20
	h20V154z M660,132h-20v-20h20V132z M660,110h-20V90h20V110z M660,88h-20V68h20V88z M660,66h-20V46h20V66z M660,44h-20V24h20V44z
	 M660,22h-20V2h20V22z M682,352h-20v-20h20V352z M682,330h-20v-20h20V330z M682,308h-20v-20h20V308z M682,286h-20v-20h20V286z
	 M682,264h-20v-20h20V264z M682,242h-20v-20h20V242z M682,220h-20v-20h20V220z M682,198h-20v-20h20V198z M682,176h-20v-20h20V176z
	 M682,154h-20v-20h20V154z M682,132h-20v-20h20V132z M682,110h-20V90h20V110z M682,88h-20V68h20V88z M682,66h-20V46h20V66z M682,44
	h-20V24h20V44z M682,22h-20V2h20V22z M704,352h-20v-20h20V352z M704,330h-20v-20h20V330z M704,308h-20v-20h20V308z M704,286h-20v-20
	h20V286z M704,264h-20v-20h20V264z M704,242h-20v-20h20V242z M704,220h-20v-20h20V220z M704,198h-20v-20h20V198z M704,176h-20v-20
	h20V176z M704,154h-20v-20h20V154z M704,132h-20v-20h20V132z M704,110h-20V90h20V110z M704,88h-20V68h20V88z M704,66h-20V46h20V66z
	 M704,44h-20V24h20V44z M704,22h-20V2h20V22z M726,352h-20v-20h20V352z M726,330h-20v-20h20V330z M726,308h-20v-20h20V308z M726,286
	h-20v-20h20V286z M726,264h-20v-20h20V264z M726,242h-20v-20h20V242z M726,220h-20v-20h20V220z M726,198h-20v-20h20V198z M726,176
	h-20v-20h20V176z M726,154h-20v-20h20V154z M726,132h-20v-20h20V132z M726,110h-20V90h20V110z M726,88h-20V68h20V88z M726,66h-20V46
	h20V66z M726,44h-20V24h20V44z M726,22h-20V2h20V22z M748,352h-20v-20h20V352z M748,330h-20v-20h20V330z M748,308h-20v-20h20V308z
	 M748,286h-20v-20h20V286z M748,264h-20v-20h20V264z M748,242h-20v-20h20V242z M748,220h-20v-20h20V220z M748,198h-20v-20h20V198z
	 M748,176h-20v-20h20V176z M748,154h-20v-20h20V154z M748,132h-20v-20h20V132z M748,110h-20V90h20V110z M748,88h-20V68h20V88z
	 M748,66h-20V46h20V66z M748,44h-20V24h20V44z M748,22h-20V2h20V22z M770,352h-20v-20h20V352z M770,330h-20v-20h20V330z M770,308
	h-20v-20h20V308z M770,286h-20v-20h20V286z M770,264h-20v-20h20V264z M770,242h-20v-20h20V242z M770,220h-20v-20h20V220z M770,198
	h-20v-20h20V198z M770,176h-20v-20h20V176z M770,154h-20v-20h20V154z M770,132h-20v-20h20V132z M770,110h-20V90h20V110z M770,88h-20
	V68h20V88z M770,66h-20V46h20V66z M770,44h-20V24h20V44z M770,22h-20V2h20V22z M792,352h-20v-20h20V352z M792,330L792,330l-20,0v-20
	h20V330z M792,308L792,308l-20,0v-20h20V308z M792,286L792,286l-20,0v-20h20V286z M792,264h-20v-20h20V264z M792,242L792,242l-20,0
	v-20h20V242z M792,220L792,220l-20,0v-20h20V220z M792,198L792,198l-20,0v-20h20V198z M792,176h-20v-20h20V176z M792,154h-20v-20h20
	V154z M792,132h-20v-20h20V132z M792,110h-20V90h20V110z M792,88h-20V68h20V88z M792,66h-20V46h20V66z M792,44h-20V24h20V44z
	 M792,22h-20V2h20V22z M814,352h-20v-20h20V352z M814,330h-20v-20h20V330z M814,308h-20v-20h20V308z M814,286h-20v-20h20V286z
	 M814,264h-20v-20h20V264z M814,242h-20v-20h20V242z M814,220h-20v-20h20V220z M814,198h-20v-20h20V198z M814,176h-20v-20v0h20V176z
	 M814,154h-20v-20v0h20V154z M814,132h-20v-20v0h20V132z M814,110h-20V90h20V110z M814,88h-20V68v0h20V88z M814,66h-20V46v0h20V66z
	 M814,44h-20V24v0h20V44z M814,22h-20V2h20V22z M836,352h-20v-20h20V352z M836,330h-20v-20h20V330z M836,308h-20v-20h20V308z
	 M836,286h-20v-20h20V286z M836,264h-20v-20h20V264z M836,242h-20v-20h20V242z M836,220h-20v-20h20V220z M836,198h-20v-20h20V198z
	 M836,176h-20v-20h20V176z M836,154h-20v-20h20V154z M836,132h-20v-20h20V132z M836,110h-20V90h20V110z M836,88h-20V68h20V88z
	 M836,66h-20V46h20V66z M836,44h-20V24h20V44z M836,22h-20V2h20V22z M858,352h-20v-20h20V352z M858,330h-20v-20h20V330z M858,308
	h-20v-20h20V308z M858,286h-20v-20h20V286z M858,264h-20v-20h20V264z M858,242h-20v-20h20V242z M858,220h-20v-20h20V220z M858,198
	h-20v-20h20V198z M858,176h-20v-20h20V176z M858,154h-20v-20h20V154z M858,132h-20v-20h20V132z M858,110h-20V90h20V110z M858,88h-20
	V68h20V88z M858,66h-20V46h20V66z M858,44h-20V24h20V44z M858,22h-20V2h20V22z M880,332v20h-20v-20L880,332L880,332z M880,310v20
	h-20v-20L880,310L880,310z M880,288v20h-20v-20L880,288L880,288z M880,266v20h-20v-20L880,266L880,266z M880,244v20h-20v-20L880,244
	L880,244z M880,222v20h-20v-20L880,222L880,222z M880,200v20h-20v-20L880,200L880,200z M880,198h-20v-20h20V198z M880,176h-20v-20
	h20V176z M880,154h-20v-20h20V154z M880,132h-20v-20h20V132z M880,110h-20V90h20V110z M880,88h-20V68h20V88z M880,66h-20V46h20V66z
	 M880,44h-20V24h20V44z M880,22h-20V2h20V22z M902,352h-20v-20h20V352z M902,330h-20v-20h20V330z M902,308h-20v-20h20V308z M902,286
	h-20v-20h20V286z M902,264h-20v-20h20V264z M902,242h-20v-20h20V242z M902,220h-20v-20h20V220z M902,198h-20v-20h20V198z M902,176
	h-20v-20h20V176z M902,154h-20v0v-20h20V154z M902,132h-20v0v-20h20V132z M902,110h-20v0V90h20V110z M902,88h-20v0V68h20V88z
	 M902,66h-20v0V46h20V66z M902,44h-20v0V24h20V44z M902,22h-20v0V2h20V22z M924,352h-20v-20h20V352z M924,330h-20v-20h20V330z
	 M924,308h-20v-20h20V308z M924,286h-20v-20h20V286z M924,264h-20v-20h20V264z M924,242h-20v-20h20V242z M924,220h-20v-20h20V220z
	 M924,198h-20v-20h20V198z M924,176h-20v-20h20V176z M924,154h-20v-20h20V154z M924,132h-20v-20h20V132z M924,110h-20V90h20V110z
	 M924,88h-20V68h20V88z M924,66h-20V46h20V66z M924,44h-20V24h20V44z M924,22h-20V2h20V22z M946,352h-20v-20h20V352z M946,330h-20
	v-20h20V330z M946,308h-20v-20h20V308z M946,286h-20v-20h20V286z M946,264h-20v-20h20V264z M946,242h-20v-20h20V242z M946,220h-20
	v-20h20V220z M946,198h-20v-20h20V198z M946,176h-20v-20h20V176z M946,154h-20v-20h20V154z M946,132h-20v-20h20V132z M946,110h-20
	V90h20V110z M946,88h-20V68h20V88z M946,66h-20V46h20V66z M946,44h-20V24h20V44z M946,22h-20V2h20V22z M968,352h-20v-20h20V352z
	 M968,330L968,330l-20,0v-20h20V330z M968,308L968,308l-20,0v-20h20V308z M968,286L968,286l-20,0v-20h20V286z M968,264h-20v-20h20
	V264z M968,242L968,242l-20,0v-20h20V242z M968,220L968,220l-20,0v-20h20V220z M968,198L968,198l-20,0v-20h20V198z M968,176h-20v-20
	h20V176z M968,154h-20v-20h20V154z M968,132h-20v-20h20V132z M968,110h-20V90h20V110z M968,88h-20V68h20V88z M968,66h-20V46h20V66z
	 M968,44h-20V24h20V44z M968,22h-20V2h20V22z M990,352h-20v-20h20V352z M990,330h-20v-20h20V330z M990,308h-20v-20h20V308z M990,286
	h-20v-20h20V286z M990,264h-20v-20h20V264z M990,242h-20v-20h20V242z M990,220h-20v-20h20V220z M990,198h-20v-20h20V198z M990,176
	h-20v-20v0h20V176z M990,154h-20v-20v0h20V154z M990,132h-20v-20v0h20V132z M990,110h-20V90h20V110z M990,88h-20V68v0h20V88z
	 M990,66h-20V46v0h20V66z M990,44h-20V24v0h20V44z M990,22h-20V2h20V22z M1012,352h-20v-20h20V352z M1012,330h-20v-20h20V330z
	 M1012,308h-20v-20h20V308z M1012,286h-20v-20h20V286z M1012,264h-20v-20h20V264z M1012,242h-20v-20h20V242z M1012,220h-20v-20h20
	V220z M1012,198h-20v-20h20V198z M1012,176h-20v-20h20V176z M1012,154h-20v-20h20V154z M1012,132h-20v-20h20V132z M1012,110h-20V90
	h20V110z M1012,88h-20V68h20V88z M1012,66h-20V46h20V66z M1012,44h-20V24h20V44z M1012,22h-20V2h20V22z M1034,352h-20v-20h20V352z
	 M1034,330h-20v-20h20V330z M1034,308h-20v-20h20V308z M1034,286h-20v-20h20V286z M1034,264h-20v-20h20V264z M1034,242h-20v-20h20
	V242z M1034,220h-20v-20h20V220z M1034,198h-20v-20h20V198z M1034,176h-20v-20h20V176z M1034,154h-20v-20h20V154z M1034,132h-20v-20
	h20V132z M1034,110h-20V90h20V110z M1034,88h-20V68h20V88z M1034,66h-20V46h20V66z M1034,44h-20V24h20V44z M1034,22h-20V2h20V22z
	 M1056,352h-20v-20h20V352z M1056,330h-20v-20h20V330z M1056,308h-20v-20h20V308z M1056,286h-20v-20h20V286z M1056,264h-20v-20h20
	V264z M1056,242h-20v-20h20V242z M1056,220h-20v-20h20V220z M1056,198h-20v-20h20V198z M1056,176h-20v-20h20V176z M1056,154h-20v-20
	h20V154z M1056,132h-20v-20h20V132z M1056,110h-20V90h20V110z M1056,88h-20V68h20V88z M1056,66h-20V46h20V66z M1056,44h-20V24h20V44
	z M1056,22h-20V2h20V22z M1078,352h-20v-20h20V352z M1078,330h-20v-20h20V330z M1078,308h-20v-20h20V308z M1078,286h-20v-20h20V286z
	 M1078,264h-20v-20h20V264z M1078,242h-20v-20h20V242z M1078,220h-20v-20h20V220z M1078,198h-20v-20h20V198z M1078,176h-20v-20h20
	V176z M1078,154h-20v-20h20V154z M1078,132h-20v-20h20V132z M1078,110h-20V90h20V110z M1078,88h-20V68h20V88z M1078,66h-20V46h20V66
	z M1078,44h-20V24h20V44z M1078,22h-20V2h20V22z M1100,352h-20v-20h20V352z M1100,330h-20v-20h20V330z M1100,308h-20v-20h20V308z
	 M1100,286h-20v-20h20V286z M1100,264h-20v-20h20V264z M1100,242h-20v-20h20V242z M1100,220h-20v-20h20V220z M1100,198h-20v-20h20
	V198z M1100,176h-20v-20h20V176z M1100,154h-20v-20h20V154z M1100,132h-20v-20h20V132z M1100,110h-20V90h20V110z M1100,88h-20V68h20
	V88z M1100,66h-20V46h20V66z M1100,44h-20V24h20V44z M1100,22h-20V2h20V22z M1122,352h-20v-20h20V352z M1122,330h-20v-20h20V330z
	 M1122,308h-20v-20h20V308z M1122,286h-20v-20h20V286z M1122,264h-20v-20h20V264z M1122,242h-20v-20h20V242z M1122,220h-20v-20h20
	V220z M1122,198h-20v-20h20V198z M1122,176h-20v-20h20V176z M1122,154h-20v-20h20V154z M1122,132h-20v-20h20V132z M1122,110h-20V90
	h20V110z M1122,88h-20V68h20V88z M1122,66h-20V46h20V66z M1122,44h-20V24h20V44z M1122,22h-20V2h20V22z M1144,352h-20v-20h20V352z
	 M1144,330L1144,330l-20,0v-20h20V330z M1144,308L1144,308l-20,0v-20h20V308z M1144,286L1144,286l-20,0v-20h20V286z M1144,264h-20
	v-20h20V264z M1144,242L1144,242l-20,0v-20h20V242z M1144,220L1144,220l-20,0v-20h20V220z M1144,198L1144,198l-20,0v-20h20V198z
	 M1144,176h-20v-20h20V176z M1144,154h-20v-20h20V154z M1144,132h-20v-20h20V132z M1144,110h-20V90h20V110z M1144,88h-20V68h20V88z
	 M1144,66h-20V46h20V66z M1144,44h-20V24h20V44z M1144,22h-20V2h20V22z M1166,352h-20v-20h20V352z M1166,330h-20v-20h20V330z
	 M1166,308h-20v-20h20V308z M1166,286h-20v-20h20V286z M1166,264h-20v-20h20V264z M1166,242h-20v-20h20V242z M1166,220h-20v-20h20
	V220z M1166,198h-20v-20h20V198z M1166,176h-20v-20v0h20V176z M1166,154h-20v-20v0h20V154z M1166,132h-20v-20v0h20V132z M1166,110
	h-20V90h20V110z M1166,88h-20V68v0h20V88z M1166,66h-20V46v0h20V66z M1166,44h-20V24v0h20V44z M1166,22h-20V2h20V22z M1188,352h-20
	v-20h20V352z M1188,330h-20v-20h20V330z M1188,308h-20v-20h20V308z M1188,286h-20v-20h20V286z M1188,264h-20v-20h20V264z M1188,242
	h-20v-20h20V242z M1188,220h-20v-20h20V220z M1188,198h-20v-20h20V198z M1188,176h-20v-20h20V176z M1188,154h-20v-20h20V154z
	 M1188,132h-20v-20h20V132z M1188,110h-20V90h20V110z M1188,88h-20V68h20V88z M1188,66h-20V46h20V66z M1188,44h-20V24h20V44z
	 M1188,22h-20V2h20V22z M1210,352h-20v-20h20V352z M1210,330h-20v-20h20V330z M1210,308h-20v-20h20V308z M1210,286h-20v-20h20V286z
	 M1210,264h-20v-20h20V264z M1210,242h-20v-20h20V242z M1210,220h-20v-20h20V220z M1210,198h-20v-20h20V198z M1210,176h-20v-20h20
	V176z M1210,154h-20v-20h20V154z M1210,132h-20v-20h20V132z M1210,110h-20V90h20V110z M1210,88h-20V68h20V88z M1210,66h-20V46h20V66
	z M1210,44h-20V24h20V44z M1210,22h-20V2h20V22z M1232,332v20h-20v-20L1232,332L1232,332z M1232,310v20h-20v-20L1232,310L1232,310z
	 M1232,288v20h-20v-20L1232,288L1232,288z M1232,266v20h-20v-20L1232,266L1232,266z M1232,244v20h-20v-20L1232,244L1232,244z
	 M1232,222v20h-20v-20L1232,222L1232,222z M1232,200v20h-20v-20L1232,200L1232,200z M1232,198h-20v-20h20V198z M1232,176h-20v-20h20
	V176z M1232,154h-20v-20h20V154z M1232,132h-20v-20h20V132z M1232,110h-20V90h20V110z M1232,88h-20V68h20V88z M1232,66h-20V46h20V66
	z M1232,44h-20V24h20V44z M1232,22h-20V2h20V22z M1254,352h-20v-20h20V352z M1254,330h-20v-20h20V330z M1254,308h-20v-20h20V308z
	 M1254,286h-20v-20h20V286z M1254,264h-20v-20h20V264z M1254,242h-20v-20h20V242z M1254,220h-20v-20h20V220z M1254,198h-20v-20h20
	V198z M1254,176h-20v-20h20V176z M1254,154h-20v0v-20h20V154z M1254,132h-20v0v-20h20V132z M1254,110h-20v0V90h20V110z M1254,88h-20
	v0V68h20V88z M1254,66h-20v0V46h20V66z M1254,44h-20v0V24h20V44z M1254,22h-20v0V2h20V22z M1276,352h-20v-20h20V352z M1276,330h-20
	v-20h20V330z M1276,308h-20v-20h20V308z M1276,286h-20v-20h20V286z M1276,264h-20v-20h20V264z M1276,242h-20v-20h20V242z M1276,220
	h-20v-20h20V220z M1276,198h-20v-20h20V198z M1276,176h-20v-20h20V176z M1276,154h-20v-20h20V154z M1276,132h-20v-20h20V132z
	 M1276,110h-20V90h20V110z M1276,88h-20V68h20V88z M1276,66h-20V46h20V66z M1276,44h-20V24h20V44z M1276,22h-20V2h20V22z M1298,352
	h-20v-20h20V352z M1298,330h-20v-20h20V330z M1298,308h-20v-20h20V308z M1298,286h-20v-20h20V286z M1298,264h-20v-20h20V264z
	 M1298,242h-20v-20h20V242z M1298,220h-20v-20h20V220z M1298,198h-20v-20h20V198z M1298,176h-20v-20h20V176z M1298,154h-20v-20h20
	V154z M1298,132h-20v-20h20V132z M1298,110h-20V90h20V110z M1298,88h-20V68h20V88z M1298,66h-20V46h20V66z M1298,44h-20V24h20V44z
	 M1298,22h-20V2h20V22z M1320,352h-20v-20h20V352z M1320,330L1320,330l-20,0v-20h20V330z M1320,308L1320,308l-20,0v-20h20V308z
	 M1320,286L1320,286l-20,0v-20h20V286z M1320,264h-20v-20h20V264z M1320,242L1320,242l-20,0v-20h20V242z M1320,220L1320,220l-20,0
	v-20h20V220z M1320,198L1320,198l-20,0v-20h20V198z M1320,176h-20v-20h20V176z M1320,154h-20v-20h20V154z M1320,132h-20v-20h20V132z
	 M1320,110h-20V90h20V110z M1320,88h-20V68h20V88z M1320,66h-20V46h20V66z M1320,44h-20V24h20V44z M1320,22h-20V2h20V22z M1342,352
	h-20v-20h20V352z M1342,330h-20v-20h20V330z M1342,308h-20v-20h20V308z M1342,286h-20v-20h20V286z M1342,264h-20v-20h20V264z
	 M1342,242h-20v-20h20V242z M1342,220h-20v-20h20V220z M1342,198h-20v-20h20V198z M1342,176h-20v-20v0h20V176z M1342,154h-20v-20v0
	h20V154z M1342,132h-20v-20v0h20V132z M1342,110h-20V90h20V110z M1342,88h-20V68v0h20V88z M1342,66h-20V46v0h20V66z M1342,44h-20V24
	v0h20V44z M1342,22h-20V2h20V22z M1364,352h-20v-20h20V352z M1364,330h-20v-20h20V330z M1364,308h-20v-20h20V308z M1364,286h-20v-20
	h20V286z M1364,264h-20v-20h20V264z M1364,242h-20v-20h20V242z M1364,220h-20v-20h20V220z M1364,198h-20v-20h20V198z M1364,176h-20
	v-20h20V176z M1364,154h-20v-20h20V154z M1364,132h-20v-20h20V132z M1364,110h-20V90h20V110z M1364,88h-20V68h20V88z M1364,66h-20
	V46h20V66z M1364,44h-20V24h20V44z M1364,22h-20V2h20V22z M1386,352h-20v-20h20V352z M1386,330h-20v-20h20V330z M1386,308h-20v-20
	h20V308z M1386,286h-20v-20h20V286z M1386,264h-20v-20h20V264z M1386,242h-20v-20h20V242z M1386,220h-20v-20h20V220z M1386,198h-20
	v-20h20V198z M1386,176h-20v-20h20V176z M1386,154h-20v-20h20V154z M1386,132h-20v-20h20V132z M1386,110h-20V90h20V110z M1386,88
	h-20V68h20V88z M1386,66h-20V46h20V66z M1386,44h-20V24h20V44z M1386,22h-20V2h20V22z M1408,352h-20v-20h20V352z M1408,330h-20v-20
	h20V330z M1408,308h-20v-20h20V308z M1408,286h-20v-20h20V286z M1408,264h-20v-20h20V264z M1408,242h-20v-20h20V242z M1408,220h-20
	v-20h20V220z M1408,198h-20v-20h20V198z M1408,176h-20v-20h20V176z M1408,154h-20v-20h20V154z M1408,132h-20v-20h20V132z M1408,110
	h-20V90h20V110z M1408,88h-20V68h20V88z M1408,66h-20V46h20V66z M1408,44h-20V24h20V44z M1408,22h-20V2h20V22z"/>
</svg>
