<svg xmlns="http://www.w3.org/2000/svg" width="156" height="156" viewBox="0 0 156 156">
  <g id="MDI" transform="translate(-382 -1985)">
    <rect id="Rectangle_11" data-name="Rectangle 11" width="156" height="156" rx="20" transform="translate(382 1985)" fill="#2196f3"/>
    <path id="vector-square" d="M2,2H38.42V14.14H86.98V2H123.4V38.42H111.26V86.98H123.4V123.4H86.98V111.26H38.42V123.4H2V86.98H14.14V38.42H2V2M86.98,38.42V26.28H38.42V38.42H26.28V86.98H38.42V99.12H86.98V86.98H99.12V38.42H86.98M14.14,14.14V26.28H26.28V14.14H14.14m84.98,0V26.28h12.14V14.14H99.12M14.14,99.12v12.14H26.28V99.12H14.14m84.98,0v12.14h12.14V99.12Z" transform="translate(397.3 2000.3)" fill="#fff"/>
  </g>
</svg>
