<svg xmlns="http://www.w3.org/2000/svg" viewBox="0 0 156 156"><g transform="translate(-382 -1985)"><rect width="156" height="156" fill="#2196f3" data-name="Rectangle 11" rx="20" transform="translate(382 1985)"/><path fill="#fff" d="M399.3 2002.3h36.42v12.14h48.56v-12.14h36.42v36.42h-12.14v48.56h12.14v36.42h-36.42v-12.14h-48.56v12.14H399.3v-36.42h12.14v-48.56H399.3v-36.42m84.98 36.42v-12.14h-48.56v12.14h-12.14v48.56h12.14v12.14h48.56v-12.14h12.14v-48.56h-12.14m-72.84-24.28v12.14h12.14v-12.14h-12.14m84.98 0v12.14h12.14v-12.14h-12.14m-84.98 84.98v12.14h12.14v-12.14h-12.14m84.98 0v12.14h12.14v-12.14Z"/></g></svg>