<svg xmlns="http://www.w3.org/2000/svg" width="156" height="156" viewBox="0 0 156 156">
  <g id="MDI" transform="translate(-382 -1985)">
    <rect id="Rectangle_11" data-name="Rectangle 11" width="156" height="156" rx="20" transform="translate(382 1985)" fill="#5a88ad"/>
    <path id="vector-combine" d="M19.15,2h48.4A18.126,18.126,0,0,1,85.7,20.15V38.3h18.15A18.126,18.126,0,0,1,122,56.45v48.4A18.126,18.126,0,0,1,103.85,123H55.45A18.126,18.126,0,0,1,37.3,104.85V86.7H19.15A18.126,18.126,0,0,1,1,68.55V20.15A18.126,18.126,0,0,1,19.15,2M85.7,68.55A18.126,18.126,0,0,1,67.55,86.7H43.35v18.15a12.136,12.136,0,0,0,12.1,12.1h48.4a12.136,12.136,0,0,0,12.1-12.1V56.45a12.136,12.136,0,0,0-12.1-12.1H85.7v24.2M19.15,8.05a12.136,12.136,0,0,0-12.1,12.1v48.4a12.136,12.136,0,0,0,12.1,12.1H37.3V56.45A18.126,18.126,0,0,1,55.45,38.3h24.2V20.15a12.136,12.136,0,0,0-12.1-12.1H19.15m48.4,72.6a12.136,12.136,0,0,0,12.1-12.1V44.35H55.45a12.136,12.136,0,0,0-12.1,12.1v24.2Z" transform="translate(399 2001)" fill="#fff"/>
  </g>
</svg>
