<svg xmlns="http://www.w3.org/2000/svg" width="215" height="63.518" viewBox="0 0 215 63.518">
  <g id="Nabu_Casa" data-name="Nabu Casa" transform="translate(-0.012 -0.004)">
    <g id="Layer_1" data-name="Layer 1" transform="translate(0.012 0.004)">
      <path id="Path_20" data-name="Path 20" d="M89.3,30.686c0-.307.025-.61.025-.921A29.779,29.779,0,0,0,34.287,14.018a25.525,25.525,0,1,0-8.759,49.5H66.66V46.932h6.865v16.59H86.952A16.5,16.5,0,0,0,89.3,30.686Z" transform="translate(-0.012 -0.004)" fill="rgba(114,0,114,0.44)"/>
      <path id="Path_21" data-name="Path 21" d="M117.647,68.209h-7.041V55.175h1.784a1.6,1.6,0,0,0,0-3.2H59.1a1.6,1.6,0,0,0,0,3.2h1.784V68.209H53.85a1.6,1.6,0,0,0,0,3.2h1.78V94.233h41.9V77.644h6.865v16.59h11.455V71.409h1.784a1.6,1.6,0,0,0,0-3.2Z" transform="translate(-30.879 -30.716)" fill="#720072"/>
      <rect id="Rectangle_4" data-name="Rectangle 4" width="17.26" height="6.865" transform="translate(30.012 46.928)" fill="#fff"/>
      <rect id="Rectangle_5" data-name="Rectangle 5" width="6.865" height="6.873" transform="translate(56.894 27.552)" fill="#fff"/>
      <rect id="Rectangle_6" data-name="Rectangle 6" width="24.031" height="6.873" transform="translate(30.012 27.552)" fill="#fff"/>
      <rect id="Rectangle_7" data-name="Rectangle 7" width="6.865" height="6.873" transform="translate(66.648 27.552)" fill="#fff"/>
      <rect id="Rectangle_8" data-name="Rectangle 8" width="6.865" height="16.594" transform="translate(66.648 46.924)" fill="#fff"/>
      <path id="Path_22" data-name="Path 22" d="M318.459,38.064h-3.514L308.1,26.842V38.064H304.59V21H308.1l6.853,11.246V21h3.5Z" transform="translate(-179.983 -12.41)" fill="#720072"/>
      <path id="Path_23" data-name="Path 23" d="M377.511,34.55h-6.161l-1.17,3.514H366.44L372.806,21h3.273l6.382,17.056H378.7ZM372.3,31.686h4.263L374.418,25.3Z" transform="translate(-216.53 -12.41)" fill="#720072"/>
      <path id="Path_24" data-name="Path 24" d="M432.88,38.063V21h5.977a11.414,11.414,0,0,1,2.659.278,5.646,5.646,0,0,1,1.984.863,3.809,3.809,0,0,1,1.227,1.456,4.729,4.729,0,0,1,.409,2.074,4.413,4.413,0,0,1-.143,1.125,3.629,3.629,0,0,1-1.2,1.857,3.907,3.907,0,0,1-1.043.634,3.784,3.784,0,0,1,1.281.569,3.494,3.494,0,0,1,1.383,1.98,4.621,4.621,0,0,1,.16,1.227,4.5,4.5,0,0,1-1.6,3.752,7.152,7.152,0,0,1-4.549,1.264Zm3.514-9.913H439a3.207,3.207,0,0,0,2-.565,1.91,1.91,0,0,0,.655-1.555,1.968,1.968,0,0,0-.671-1.669,3.653,3.653,0,0,0-2.127-.5H436.4Zm0,2.483V35.24h3.015a3.563,3.563,0,0,0,1.17-.172,2.307,2.307,0,0,0,.818-.466,1.85,1.85,0,0,0,.487-.7,2.389,2.389,0,0,0,.16-.884,3.212,3.212,0,0,0-.143-.99,1.853,1.853,0,0,0-.438-.749,1.878,1.878,0,0,0-.761-.458,3.551,3.551,0,0,0-1.15-.168Z" transform="translate(-255.788 -12.409)" fill="#720072"/>
      <path id="Path_25" data-name="Path 25" d="M506.469,21V32.263a6.513,6.513,0,0,1-.491,2.61,5.285,5.285,0,0,1-1.358,1.89,5.846,5.846,0,0,1-2.046,1.15,9.148,9.148,0,0,1-5.249,0,5.862,5.862,0,0,1-2.07-1.15,5.273,5.273,0,0,1-1.354-1.89,6.586,6.586,0,0,1-.483-2.61V21h3.51V32.263a3.227,3.227,0,0,0,.818,2.455,3.588,3.588,0,0,0,4.439,0,3.283,3.283,0,0,0,.79-2.455V21Z" transform="translate(-291.559 -12.41)" fill="#720072"/>
      <path id="Path_26" data-name="Path 26" d="M318.319,103.037a6.976,6.976,0,0,1-.589,2.389,5.531,5.531,0,0,1-1.358,1.866,6.079,6.079,0,0,1-2.1,1.227,8.338,8.338,0,0,1-2.819.442,7.291,7.291,0,0,1-2.946-.569,6.063,6.063,0,0,1-2.213-1.636,7.449,7.449,0,0,1-1.4-2.581,11.156,11.156,0,0,1-.487-3.4V99.645a10.819,10.819,0,0,1,.507-3.408,7.536,7.536,0,0,1,1.424-2.59,6.178,6.178,0,0,1,2.23-1.636,7.266,7.266,0,0,1,2.929-.573,8.183,8.183,0,0,1,2.819.45A6.108,6.108,0,0,1,316.4,93.14a5.727,5.727,0,0,1,1.334,1.911,7.934,7.934,0,0,1,.61,2.41h-3.514a5.341,5.341,0,0,0-.262-1.35,2.688,2.688,0,0,0-.593-.982,2.455,2.455,0,0,0-.994-.6,4.713,4.713,0,0,0-1.477-.2,2.991,2.991,0,0,0-2.655,1.3,7.3,7.3,0,0,0-.871,4.013v1.146a12.459,12.459,0,0,0,.192,2.32,4.943,4.943,0,0,0,.61,1.665,2.688,2.688,0,0,0,1.08,1,3.469,3.469,0,0,0,1.6.335,4.8,4.8,0,0,0,1.436-.188,2.516,2.516,0,0,0,1.011-.569,2.614,2.614,0,0,0,.626-.953,4.626,4.626,0,0,0,.278-1.334Z" transform="translate(-179.876 -54.031)" fill="#720072"/>
      <path id="Path_27" data-name="Path 27" d="M375.046,105.533h-6.137l-1.17,3.514H364L370.341,92h3.273L380,109.056h-3.739Zm-5.212-2.864H374.1l-2.144-6.386Z" transform="translate(-215.088 -54.363)" fill="#720072"/>
      <path id="Path_28" data-name="Path 28" d="M438.261,104.227a2.382,2.382,0,0,0-.127-.818,1.547,1.547,0,0,0-.5-.659,4.374,4.374,0,0,0-1.011-.585,15.423,15.423,0,0,0-1.681-.622,20.867,20.867,0,0,1-2.209-.843,8.24,8.24,0,0,1-1.816-1.109,4.909,4.909,0,0,1-1.227-1.469,4.006,4.006,0,0,1-.454-1.947,4.157,4.157,0,0,1,.462-1.947,4.455,4.455,0,0,1,1.3-1.51,6.5,6.5,0,0,1,1.992-.966,8.866,8.866,0,0,1,2.536-.344,8,8,0,0,1,2.577.409,5.907,5.907,0,0,1,1.98,1.1,4.807,4.807,0,0,1,1.264,1.669A4.941,4.941,0,0,1,441.8,96.7h-3.514a2.8,2.8,0,0,0-.172-.994,2.045,2.045,0,0,0-.52-.785,2.455,2.455,0,0,0-.88-.511,3.882,3.882,0,0,0-1.227-.18,4.345,4.345,0,0,0-1.2.151,2.455,2.455,0,0,0-.843.409,1.808,1.808,0,0,0-.5.63,1.78,1.78,0,0,0-.172.773,1.661,1.661,0,0,0,.863,1.411,9.626,9.626,0,0,0,2.524,1.06,16.8,16.8,0,0,1,2.455.961,7.217,7.217,0,0,1,1.767,1.195,4.5,4.5,0,0,1,1.072,1.5,4.671,4.671,0,0,1,.364,1.886,4.439,4.439,0,0,1-.438,2,4.194,4.194,0,0,1-1.227,1.485,5.994,5.994,0,0,1-1.951.925,9.463,9.463,0,0,1-2.549.323,9.773,9.773,0,0,1-1.686-.147,8.3,8.3,0,0,1-1.612-.45,7.184,7.184,0,0,1-1.424-.761,5.319,5.319,0,0,1-1.141-1.08,4.881,4.881,0,0,1-.761-1.411,5.293,5.293,0,0,1-.278-1.751h3.527a3.228,3.228,0,0,0,.245,1.313,2.246,2.246,0,0,0,.687.871,2.9,2.9,0,0,0,1.06.487,5.773,5.773,0,0,0,1.383.151,4.222,4.222,0,0,0,1.182-.147,2.48,2.48,0,0,0,.818-.409,1.58,1.58,0,0,0,.483-.614A1.857,1.857,0,0,0,438.261,104.227Z" transform="translate(-253.348 -54.014)" fill="#720072"/>
      <path id="Path_29" data-name="Path 29" d="M497.481,105.533h-6.161l-1.174,3.514H486.41L492.759,92h3.273l6.386,17.056h-3.739Zm-5.212-2.864h4.263l-2.144-6.386Z" transform="translate(-287.419 -54.363)" fill="#720072"/>
    </g>
  </g>
</svg>
