<svg id="OnTask" xmlns="http://www.w3.org/2000/svg" width="215" height="43.544" viewBox="0 0 215 43.544">
  <path id="Path_18" data-name="Path 18" d="M502.985,23.716a2.219,2.219,0,0,1-1.57.614,2.083,2.083,0,0,1-1.536-.614,2.017,2.017,0,0,1-.58-1.74V8.394a2.219,2.219,0,0,1,.614-1.57,1.988,1.988,0,0,1,1.536-.648,2.214,2.214,0,0,1,2.218,2.218v9.247L520.218.785A2.1,2.1,0,0,1,521.856,0a2.038,2.038,0,0,1,1.433.546,1.767,1.767,0,0,1,.614,1.365,1.935,1.935,0,0,1-.546,1.5l-20.372,20.3Z" transform="translate(-310.545)" fill="#720072"/>
  <path id="Path_19" data-name="Path 19" d="M28.283,17.155a17.158,17.158,0,0,1,6.455,6.837,22.04,22.04,0,0,1,2.425,9.934,21.567,21.567,0,0,1-2.425,9.934A17.158,17.158,0,0,1,28.283,50.7a18.462,18.462,0,0,1-9.7,2.455A19.057,19.057,0,0,1,8.843,50.7a16.809,16.809,0,0,1-6.455-6.8A21.822,21.822,0,0,1,0,33.926a22.062,22.062,0,0,1,2.388-9.972,16.576,16.576,0,0,1,6.455-6.8A18.691,18.691,0,0,1,18.582,14.7,18.822,18.822,0,0,1,28.283,17.155ZM25.932,46.693a12.664,12.664,0,0,0,4.776-5.25,16.954,16.954,0,0,0,1.642-7.517,16.954,16.954,0,0,0-1.642-7.517,12.421,12.421,0,0,0-4.776-5.25,13.785,13.785,0,0,0-7.351-1.926,13.646,13.646,0,0,0-7.388,1.926,12.578,12.578,0,0,0-4.739,5.25,16.954,16.954,0,0,0-1.642,7.517,16.954,16.954,0,0,0,1.642,7.517,12.578,12.578,0,0,0,4.739,5.25,13.646,13.646,0,0,0,7.388,1.926A13.6,13.6,0,0,0,25.932,46.693ZM76.715,15.682a2.353,2.353,0,0,1,.709,1.738V49.413a3.224,3.224,0,0,1-1.045,2.455,3.329,3.329,0,0,1-2.463,1.02h-.634a3.5,3.5,0,0,1-1.6-.415,3.7,3.7,0,0,1-1.231-1.058L50,21.5V50.508a2.214,2.214,0,0,1-.709,1.7,2.41,2.41,0,0,1-1.716.68,2.264,2.264,0,0,1-1.679-.68,2.321,2.321,0,0,1-.672-1.7V18.515a3.413,3.413,0,0,1,1.007-2.493,3.343,3.343,0,0,1,2.425-1.058h.672a3.556,3.556,0,0,1,2.91,1.624l20.373,29.8V17.42a2.472,2.472,0,0,1,.672-1.738,2.161,2.161,0,0,1,1.679-.718,2.378,2.378,0,0,1,1.754.718Zm36.79.227a2.3,2.3,0,0,1,0,3.248,2.273,2.273,0,0,1-1.6.642H101.117V50.508a2.214,2.214,0,0,1-.709,1.7,2.41,2.41,0,0,1-1.716.68,2.264,2.264,0,0,1-1.679-.68,2.321,2.321,0,0,1-.672-1.7V19.8H85.521a2.183,2.183,0,0,1-2.239-2.266,2.331,2.331,0,0,1,.634-1.624,2.1,2.1,0,0,1,1.6-.68H111.9a2.157,2.157,0,0,1,1.6.68Zm33.693,34.6a2.321,2.321,0,0,1-.672,1.7,2.29,2.29,0,0,1-1.716.68,2.451,2.451,0,0,1-1.343-.415,2.658,2.658,0,0,1-.933-1.1L139.1,43.029H121.117l-3.433,8.348a2.658,2.658,0,0,1-.933,1.1,2.451,2.451,0,0,1-1.343.415,2.29,2.29,0,0,1-1.716-.68,2.321,2.321,0,0,1-.672-1.7,2.57,2.57,0,0,1,.261-1.058l13.507-32.257a4.228,4.228,0,0,1,1.194-1.586,2.915,2.915,0,0,1,1.866-.6h.522a2.778,2.778,0,0,1,1.866.6,4.228,4.228,0,0,1,1.194,1.586L146.937,49.45A2.57,2.57,0,0,1,147.2,50.508ZM130.109,21.2,122.945,38.61h14.291L130.109,21.2Zm27.537,7.252a8.629,8.629,0,0,0,3.134,1.889c1.269.453,2.948.907,5.112,1.435a52.447,52.447,0,0,1,6.754,2.04,11.119,11.119,0,0,1,4.4,3.173,8.568,8.568,0,0,1,1.828,5.779,9.168,9.168,0,0,1-1.679,5.4,11.237,11.237,0,0,1-4.776,3.739,17.358,17.358,0,0,1-7.089,1.322,31.4,31.4,0,0,1-12.612-2.569,2.6,2.6,0,0,1-1.045-.869,2.135,2.135,0,0,1-.41-1.322,2.272,2.272,0,0,1,.6-1.586,2.021,2.021,0,0,1,1.567-.68,2.438,2.438,0,0,1,1.007.227,24.929,24.929,0,0,0,10.448,2.191c6.194,0,9.254-2.04,9.254-6.157a3.523,3.523,0,0,0-1.194-2.682,8.683,8.683,0,0,0-2.948-1.7c-1.157-.415-2.836-.907-4.963-1.473a67.011,67.011,0,0,1-6.94-2.153,11.919,11.919,0,0,1-4.552-3.135,7.977,7.977,0,0,1-1.9-5.59,9.944,9.944,0,0,1,1.6-5.553,10.772,10.772,0,0,1,4.7-3.966,17.158,17.158,0,0,1,7.425-1.473,29.879,29.879,0,0,1,10.522,1.775,2.093,2.093,0,0,1,1.493,2.153,2.246,2.246,0,0,1-.6,1.549,1.892,1.892,0,0,1-1.53.68,2.4,2.4,0,0,1-.858-.227,25.167,25.167,0,0,0-8.507-1.435,12.5,12.5,0,0,0-6.791,1.624,5.092,5.092,0,0,0-2.612,4.495,3.838,3.838,0,0,0,1.157,3.1ZM214.436,49,200.518,31.282l-3.246,3.286,13.507,17.375a2.2,2.2,0,0,0,1.9.982,2.264,2.264,0,0,0,1.679-.68A2.124,2.124,0,0,0,215,50.584a2.19,2.19,0,0,0-.56-1.586Z" transform="translate(0 -9.684)" fill="#720072"/>
</svg>
