<?xml version="1.0" encoding="utf-8"?>
<!-- Generator: Adobe Illustrator 25.4.1, SVG Export Plug-In . SVG Version: 6.00 Build 0)  -->
<svg version="1.1" id="Layer_1" xmlns="http://www.w3.org/2000/svg" xmlns:xlink="http://www.w3.org/1999/xlink" x="0px" y="0px"
	 viewBox="0 0 1215.3 376.7" style="enable-background:new 0 0 1215.3 376.7;" xml:space="preserve">
<style type="text/css">
	.st0{fill-opacity:0.4039;}
	.st1{fill:#FFFFFF;}
	.st2{fill:url(#SVGID_1_);}
	.st3{fill-opacity:0.251;}
	.st4{fill:#520065;}
</style>
<g>
	<path class="st0" d="M104.5,97.7h137c20.8,0,37.6,16.9,37.6,37.6v137c0,20.8-16.9,37.6-37.6,37.6h-137c-20.8,0-37.6-16.9-37.6-37.6
		v-137C66.8,114.5,83.7,97.7,104.5,97.7z"/>
	<path class="st1" d="M94.6,82.6h155.2c0.8,0,1.4,0.6,1.4,1.4v196.6c0,0.8-0.6,1.4-1.4,1.4H94.6c-0.8,0-1.4-0.6-1.4-1.4V84.1
		C93.2,83.3,93.8,82.6,94.6,82.6z"/>
	
		<radialGradient id="SVGID_1_" cx="226.0673" cy="-279.368" r="329.187" gradientTransform="matrix(0.4367 0.8996 -0.8996 0.4367 -236.4355 -31.7316)" gradientUnits="userSpaceOnUse">
		<stop  offset="0" style="stop-color:#88007C"/>
		<stop  offset="1" style="stop-color:#300056"/>
	</radialGradient>
	<path class="st2" d="M109.7,66.8h126.4c17.5,0,31.6,14.1,31.6,31.6V267c0,17.5-14.1,31.6-31.6,31.6H109.7
		c-17.5,0-31.6-14.1-31.6-31.6V98.4C78.1,81,92.3,66.8,109.7,66.8z M109.7,87.9c-5.8,0-10.5,4.7-10.5,10.5v126.4
		c0,5.8,4.7,10.5,10.5,10.5h126.4c5.8,0,10.5-4.7,10.5-10.5V98.4c0-5.8-4.7-10.5-10.5-10.5H109.7z M99.2,267
		c0,5.8,4.7,10.5,10.5,10.5h126.4c5.8,0,10.5-4.7,10.5-10.5v-12.3c-3.3,1.1-6.8,1.8-10.5,1.8H109.7c-3.7,0-7.2-0.6-10.5-1.8V267z"/>
	<path class="st3" d="M109.7,298.6c-17.5,0-31.6-14.1-31.6-31.6v-42.1c0,17.5,14.1,31.6,31.6,31.6h126.4c17.5,0,31.6-14.1,31.6-31.6
		V267c0,17.5-14.1,31.6-31.6,31.6H109.7z"/>
	<path class="st4" d="M162.8,175.1v28.7h-20.5V119h33.9c6.5,0,12.3,1.2,17.2,3.6c5,2.4,8.9,5.8,11.6,10.2c2.7,4.4,4.1,9.4,4.1,15.1
		c0,8.3-2.9,14.9-8.9,19.9s-14.1,7.5-24.4,7.5L162.8,175.1L162.8,175.1z M162.9,159.6h13.4c4,0,7-1,9.1-3s3.2-4.9,3.2-8.6
		c0-4.1-1.1-7.3-3.2-9.7c-2.1-2.4-5-3.7-8.7-3.7H163L162.9,159.6L162.9,159.6z"/>
</g>
<path class="st4" d="M397.3,148.3v-14.1h16v14.1H397.3z M397.3,220.6v-63.4h16v63.4H397.3z M454.8,222.3c-6.6,0-12.2-1.5-16.9-4.4
	c-4.7-2.9-8.3-6.9-10.8-12s-3.8-10.8-3.8-17.1c0-6.4,1.3-12.2,3.9-17.2c2.6-5.1,6.3-9,11-11.9c4.7-2.9,10.3-4.3,16.8-4.3
	c7.5,0,13.8,1.9,18.8,5.7c5.1,3.8,8.3,8.9,9.7,15.5l-16,4.2c-0.9-3.3-2.6-5.9-4.9-7.7c-2.3-1.8-5-2.8-7.9-2.8
	c-3.4,0-6.1,0.8-8.3,2.4c-2.2,1.6-3.7,3.8-4.8,6.6c-1,2.8-1.5,6-1.5,9.5c0,5.5,1.2,10,3.7,13.4c2.4,3.4,6.1,5.1,10.9,5.1
	c3.6,0,6.3-0.8,8.2-2.5s3.3-4,4.2-7l16.3,3.4c-1.8,6.7-5.2,11.9-10.2,15.6C468.3,220.5,462.1,222.3,454.8,222.3z M529.3,169.4v-12.3
	h-18.3v-17.6h-16v17.6h-10.8v12.3H495v24.2c0,3.8,0,7.2,0.1,10.2c0.1,3,0.9,5.9,2.5,8.8c1.7,3.1,4.2,5.3,7.5,6.7
	c3.3,1.4,7.1,2.1,11.3,2.2c4.2,0.1,8.5-0.3,12.9-1.1v-13.3c-3.8,0.5-7.2,0.7-10.3,0.5c-3.1-0.2-5.3-1.4-6.8-3.6
	c-0.7-1.2-1.1-2.8-1.2-4.7c-0.1-2-0.1-4.2-0.1-6.7v-23.3H529.3z M564.3,222.3c-6.4,0-12-1.4-16.8-4.3c-4.8-2.9-8.6-6.8-11.2-11.8
	c-2.7-5-4-10.8-4-17.4c0-6.6,1.4-12.4,4.1-17.5c2.7-5,6.5-9,11.3-11.8c4.8-2.8,10.4-4.2,16.6-4.2c6.4,0,12,1.4,16.8,4.3
	c4.8,2.9,8.6,6.8,11.3,11.8c2.7,5,4.1,10.8,4.1,17.4c0,6.6-1.4,12.4-4.1,17.4c-2.7,5-6.5,9-11.3,11.8
	C576.2,220.9,570.6,222.3,564.3,222.3z M564.3,207.4c5.1,0,9-1.7,11.5-5.2c2.5-3.5,3.8-7.9,3.8-13.4c0-5.6-1.3-10.1-3.8-13.5
	c-2.6-3.4-6.4-5.1-11.4-5.1c-3.5,0-6.3,0.8-8.6,2.3c-2.2,1.6-3.9,3.7-5,6.5c-1.1,2.8-1.6,6-1.6,9.7c0,5.7,1.3,10.2,3.8,13.5
	C555.5,205.7,559.3,207.4,564.3,207.4z M648.2,157.1v3.5c-0.4-0.3-0.7-0.6-1.1-0.9c-4.1-2.9-9.2-4.4-15.2-4.4
	c-6.1,0-11.4,1.4-15.9,4.3c-4.5,2.9-8,6.9-10.5,11.9c-2.5,5-3.7,10.8-3.7,17.2c0,6.3,1.2,12,3.7,17.1s5.9,9,10.3,12
	c4.4,2.9,9.5,4.4,15.3,4.4c6,0,11-1.3,15.2-4v6.3c0.1,2.4-0.5,4.3-1.8,5.9c-1.3,1.6-3,2.8-5.1,3.6c-2.1,0.8-4.4,1.2-6.8,1.2
	c-2.2,0-4.3-0.5-6.2-1.5c-1.9-1-3.4-2.4-4.4-4.3l-14.8,7.2c1.6,2.7,3.7,5.1,6.3,7.2c2.6,2.1,5.5,3.7,8.7,4.8
	c3.3,1.2,6.7,1.7,10.3,1.7c4.7,0,9-0.6,13-1.9c4-1.2,7.4-3.1,10.1-5.6c2.8-2.5,4.7-5.7,5.7-9.6c0.4-1.4,0.6-2.8,0.7-4.1
	c0.1-1.4,0.2-2.9,0.2-4.4v-67.8H648.2z M642.1,205.7c-2.1,1.6-5,2.4-8.5,2.4c-3.4,0-6.3-0.9-8.5-2.6c-2.2-1.7-3.8-4-4.9-7
	c-1.1-2.9-1.6-6.2-1.6-9.7c0-3.5,0.5-6.7,1.6-9.7c1.1-2.9,2.8-5.2,5.1-7c2.3-1.7,5.2-2.6,8.8-2.6c3.3,0,6,0.8,8.1,2.4
	c2.1,1.6,3.6,3.9,4.5,6.8c0.9,2.9,1.4,6.3,1.4,10.1s-0.5,7.2-1.4,10.1C645.8,201.8,644.3,204.1,642.1,205.7z M706,157
	c-1.9,0.1-3.8,0.5-5.6,1c-1.8,0.5-3.5,1.3-5,2.2c-2,1.2-3.7,2.7-5.1,4.5c-0.7,0.9-1.2,1.8-1.8,2.7v-10.2h-14.1v63.4h16.1v-32.4
	c0-2.4,0.3-4.6,1-6.6c0.7-1.9,1.6-3.6,2.9-5.1c1.3-1.4,2.9-2.6,4.8-3.4c1.9-0.9,4-1.4,6.3-1.6c2.3-0.2,4.4,0,6.1,0.6v-14.9
	C709.8,156.9,707.9,156.8,706,157z M770.5,173.9c-0.2-2.4-1-4.7-2.2-7c-2.2-4.2-5.5-7.2-9.9-8.9c-4.3-1.7-9.3-2.6-14.9-2.6
	c-7.6,0-13.7,1.6-18.1,4.9c-4.4,3.3-7.4,7.6-9,12.8l14.5,4.6c1-2.9,2.8-4.9,5.3-6.1c2.5-1.1,5-1.7,7.3-1.7c4.2,0,7.2,0.9,9,2.6
	c1.4,1.4,2.3,3.4,2.6,6c-2.7,0.4-5.3,0.8-7.7,1.1c-4.1,0.6-7.8,1.2-11,1.9c-3.3,0.7-6.1,1.4-8.4,2.3c-3.4,1.3-6.1,2.8-8.1,4.7
	c-2,1.9-3.5,4-4.4,6.4c-0.9,2.4-1.4,5.1-1.4,8c0,3.5,0.8,6.7,2.4,9.7c1.6,2.9,4,5.2,7.2,7c3.2,1.7,7,2.6,11.5,2.6
	c5.5,0,10-0.9,13.6-2.8c2.8-1.5,5.5-3.7,8-6.7v7.8h14v-38.8C770.8,178.9,770.7,176.3,770.5,173.9z M753.3,201.3
	c-0.4,0.9-1.2,2-2.4,3.3c-1.2,1.3-2.8,2.5-4.8,3.6c-2,1-4.5,1.6-7.4,1.6c-1.8,0-3.4-0.3-4.8-0.8c-1.3-0.5-2.4-1.3-3.1-2.4
	c-0.7-1-1.1-2.3-1.1-3.7c0-1.1,0.2-2,0.7-2.9c0.4-0.9,1.2-1.7,2.1-2.4c1-0.7,2.2-1.4,3.8-2c1.4-0.5,3-1,4.8-1.4
	c1.8-0.4,4.2-0.9,7.1-1.4c1.9-0.3,4.2-0.7,6.8-1.2c0,1.1-0.1,2.4-0.2,3.8C754.6,197.6,754.2,199.6,753.3,201.3z M868.8,162
	c-3.7-4.3-9.2-6.4-16.4-6.4c-4.2,0-8.1,0.9-11.5,2.8c-3.2,1.7-5.8,4.1-7.8,7.1c-1.5-2.7-3.6-5-6.2-6.7c-3.2-2.1-7.3-3.2-12.2-3.2
	c-4.3,0-8.3,1-11.8,2.9c-2.7,1.5-4.9,3.3-6.8,5.6v-7h-14.1v63.4H798v-38.4c0-3.6,1-6.6,3-8.9c2-2.3,4.7-3.4,8-3.4
	c3.5,0,6.2,1.2,8.2,3.5c2,2.3,3,5.6,3,9.8v37.5h16v-38.4c0-2.4,0.5-4.6,1.4-6.4c0.9-1.9,2.2-3.3,3.8-4.3c1.6-1,3.6-1.6,5.8-1.6
	c3.5,0,6.2,1.2,8.2,3.5c2,2.3,3,5.6,3,9.8v37.5h16v-41.7C874.4,171.9,872.5,166.3,868.8,162z M972.3,162c-3.7-4.3-9.2-6.4-16.4-6.4
	c-4.2,0-8.1,0.9-11.5,2.8c-3.2,1.7-5.8,4.1-7.8,7.1c-1.5-2.7-3.6-5-6.2-6.7c-3.2-2.1-7.3-3.2-12.2-3.2c-4.3,0-8.3,1-11.8,2.9
	c-2.7,1.5-4.9,3.3-6.8,5.6v-7h-14.1v63.4h16.1v-38.4c0-3.6,1-6.6,3-8.9c2-2.3,4.7-3.4,8-3.4c3.5,0,6.2,1.2,8.2,3.5
	c2,2.3,3,5.6,3,9.8v37.5h16v-38.4c0-2.4,0.5-4.6,1.4-6.4c0.9-1.9,2.2-3.3,3.8-4.3c1.6-1,3.6-1.6,5.8-1.6c3.5,0,6.2,1.2,8.2,3.5
	c2,2.3,3,5.6,3,9.8v37.5h16v-41.7C977.9,171.9,976,166.3,972.3,162z M1038.4,193.3h7.7c0.7-7.7-0.1-14.4-2.3-20
	c-2.2-5.7-5.7-10.1-10.3-13.2c-4.7-3.1-10.3-4.7-17-4.7c-6.3,0-11.8,1.4-16.6,4.3c-4.8,2.8-8.6,6.8-11.3,12
	c-2.7,5.1-4.1,11.2-4.1,18.1c0,6.3,1.4,12,4.2,16.9c2.8,4.9,6.7,8.8,11.6,11.6c5,2.8,10.7,4.2,17.2,4.2c6.1,0,11.7-1.6,16.9-4.8
	c5.1-3.2,8.9-7.7,11.3-13.5l-16-4.6c-1.2,2.6-2.9,4.6-5.1,5.9c-2.2,1.4-4.9,2.1-8,2.1c-5,0-8.7-1.6-11.3-4.8
	c-1.9-2.4-3.1-5.5-3.6-9.3h28.7H1038.4z M1017.1,169.2c4.7,0,8,1.4,10.1,4.3c1.4,1.9,2.2,4.5,2.7,8H1002c0.6-2.9,1.7-5.4,3.1-7.3
	C1007.7,170.9,1011.7,169.2,1017.1,169.2z M1086.7,157c-1.9,0.1-3.8,0.5-5.6,1c-1.8,0.5-3.5,1.3-5,2.2c-2,1.2-3.7,2.7-5.1,4.5
	c-0.7,0.9-1.2,1.8-1.8,2.7v-10.2h-14.1v63.4h16.1v-32.4c0-2.4,0.3-4.6,1-6.6c0.7-1.9,1.6-3.6,2.9-5.1c1.3-1.4,2.9-2.6,4.8-3.4
	c1.9-0.9,4-1.4,6.3-1.6c2.3-0.2,4.4,0,6.1,0.6v-14.9C1090.5,156.9,1088.6,156.8,1086.7,157z M1121.9,222.3c-8,0-14.4-1.8-19.4-5.4
	c-4.9-3.6-7.9-8.7-9-15.4l16.3-2.5c0.7,3,2.1,5.3,4.4,7c2.3,1.7,5.2,2.5,8.7,2.5c2.9,0,5.1-0.6,6.7-1.7c1.6-1.1,2.3-2.7,2.3-4.7
	c0-1.3-0.3-2.3-0.9-3c-0.6-0.8-2-1.5-4.2-2.3c-2.2-0.7-5.6-1.7-10.1-2.9c-5.2-1.3-9.3-2.8-12.4-4.5c-3.1-1.6-5.3-3.6-6.7-5.9
	c-1.4-2.3-2.1-5.1-2.1-8.3c0-4.1,1-7.6,3.1-10.6c2.1-3,5-5.3,8.8-6.9c3.8-1.6,8.2-2.4,13.4-2.4c5,0,9.4,0.8,13.2,2.3
	c3.8,1.5,6.9,3.7,9.3,6.5c2.4,2.8,3.8,6.1,4.4,10l-16.3,2.9c-0.3-2.3-1.3-4.2-3.1-5.6c-1.8-1.4-4.2-2.2-7.2-2.4
	c-2.9-0.2-5.3,0.2-7.1,1.2c-1.8,1-2.7,2.4-2.7,4.2c0,1.1,0.4,2,1.1,2.8c0.8,0.7,2.4,1.5,4.8,2.3c2.4,0.8,6.1,1.8,11,3.1
	c4.8,1.3,8.7,2.7,11.6,4.4c2.9,1.7,5,3.7,6.4,6c1.3,2.3,2,5.1,2,8.4c0,6.5-2.4,11.6-7,15.3C1136.7,220.5,1130.2,222.3,1121.9,222.3z
	 M341.9,192v28.6h-20.4v-84.6h33.8c6.5,0,12.2,1.2,17.2,3.6c5,2.4,8.9,5.8,11.6,10.2s4.1,9.4,4.1,15c0,8.3-2.9,14.9-8.9,19.8
	c-5.9,5-14,7.4-24.3,7.4L341.9,192L341.9,192z M341.9,176.5h13.4c4,0,7-1,9.1-3c2.1-2,3.2-4.9,3.2-8.6c0-4.1-1.1-7.3-3.2-9.7
	c-2.1-2.4-5-3.7-8.7-3.7H342L341.9,176.5L341.9,176.5z"/>
</svg>
