<?xml version="1.0" encoding="utf-8"?>
<!-- Generator: Adobe Illustrator 25.4.1, SVG Export Plug-In . SVG Version: 6.00 Build 0)  -->
<svg version="1.1" id="Layer_1" xmlns="http://www.w3.org/2000/svg" xmlns:xlink="http://www.w3.org/1999/xlink" x="0px" y="0px"
	 viewBox="0 0 1251.3 412.7" style="enable-background:new 0 0 1251.3 412.7;" xml:space="preserve">
<style type="text/css">
	.st0{fill-opacity:0.4039;}
	.st1{fill:#FFFFFF;}
	.st2{fill:url(#SVGID_1_);}
	.st3{fill-opacity:0.251;}
	.st4{fill:#520065;}
</style>
<g>
	<path class="st0" d="M122.4,115.7h137c20.8,0,37.6,16.9,37.6,37.6v137c0,20.8-16.9,37.6-37.6,37.6h-137
		c-20.8,0-37.6-16.9-37.6-37.6v-137C84.8,132.5,101.7,115.7,122.4,115.7z"/>
	<path class="st1" d="M112.6,100.6h155.2c0.8,0,1.4,0.6,1.4,1.4v196.6c0,0.8-0.6,1.4-1.4,1.4H112.6c-0.8,0-1.4-0.6-1.4-1.4V102
		C111.1,101.3,111.8,100.6,112.6,100.6z"/>
	
		<radialGradient id="SVGID_1_" cx="244.0528" cy="-261.3826" r="329.187" gradientTransform="matrix(0.4367 0.8996 -0.8996 0.4367 -210.1245 -37.7802)" gradientUnits="userSpaceOnUse">
		<stop  offset="0" style="stop-color:#88007C"/>
		<stop  offset="1" style="stop-color:#300056"/>
	</radialGradient>
	<path class="st2" d="M127.7,84.8h126.4c17.5,0,31.6,14.1,31.6,31.6V285c0,17.5-14.1,31.6-31.6,31.6H127.7
		c-17.5,0-31.6-14.1-31.6-31.6V116.4C96.1,99,110.2,84.8,127.7,84.8z M127.7,105.9c-5.8,0-10.5,4.7-10.5,10.5v126.4
		c0,5.8,4.7,10.5,10.5,10.5h126.4c5.8,0,10.5-4.7,10.5-10.5V116.4c0-5.8-4.7-10.5-10.5-10.5H127.7z M117.2,285
		c0,5.8,4.7,10.5,10.5,10.5h126.4c5.8,0,10.5-4.7,10.5-10.5v-12.3c-3.3,1.1-6.8,1.8-10.5,1.8H127.7c-3.7,0-7.2-0.6-10.5-1.8V285z"/>
	<path class="st3" d="M127.7,316.6c-17.5,0-31.6-14.1-31.6-31.6v-42.1c0,17.5,14.1,31.6,31.6,31.6h126.4c17.5,0,31.6-14.1,31.6-31.6
		V285c0,17.5-14.1,31.6-31.6,31.6H127.7z"/>
	<path class="st4" d="M180.8,193.1v28.7h-20.5V137h33.9c6.5,0,12.3,1.2,17.2,3.6c5,2.4,8.9,5.8,11.6,10.2c2.7,4.4,4.1,9.4,4.1,15.1
		c0,8.3-2.9,14.9-8.9,19.9s-14.1,7.5-24.4,7.5L180.8,193.1L180.8,193.1z M180.9,177.6h13.4c4,0,7-1,9.1-3s3.2-4.9,3.2-8.6
		c0-4.1-1.1-7.3-3.2-9.7c-2.1-2.4-5-3.7-8.7-3.7H181L180.9,177.6L180.9,177.6z"/>
</g>
<path class="st4" d="M415.3,166.3v-14.1h16v14.1H415.3z M415.3,238.5v-63.4h16v63.4H415.3z M472.8,240.3c-6.6,0-12.2-1.5-16.9-4.4
	c-4.7-2.9-8.3-6.9-10.8-12c-2.5-5.1-3.8-10.8-3.8-17.1c0-6.4,1.3-12.2,3.9-17.2c2.6-5.1,6.3-9,11-11.9c4.7-2.9,10.3-4.3,16.8-4.3
	c7.5,0,13.8,1.9,18.8,5.7c5.1,3.8,8.3,8.9,9.7,15.5l-16,4.2c-0.9-3.3-2.6-5.9-4.9-7.7c-2.3-1.8-5-2.8-7.9-2.8
	c-3.4,0-6.1,0.8-8.3,2.4c-2.2,1.6-3.7,3.8-4.8,6.6c-1,2.8-1.5,6-1.5,9.5c0,5.5,1.2,10,3.7,13.4c2.4,3.4,6.1,5.1,10.9,5.1
	c3.6,0,6.3-0.8,8.2-2.5c1.9-1.6,3.3-4,4.2-7l16.3,3.4c-1.8,6.7-5.2,11.9-10.2,15.6C486.3,238.5,480.1,240.3,472.8,240.3z
	 M547.2,187.4v-12.3h-18.3v-17.6h-16v17.6h-10.8v12.3h10.8v24.2c0,3.8,0,7.2,0.1,10.2c0.1,3,0.9,5.9,2.5,8.8
	c1.7,3.1,4.2,5.3,7.5,6.7c3.3,1.4,7.1,2.1,11.3,2.2c4.2,0.1,8.5-0.3,12.9-1.1v-13.3c-3.8,0.5-7.2,0.7-10.3,0.5
	c-3.1-0.2-5.3-1.4-6.8-3.6c-0.7-1.2-1.1-2.8-1.2-4.7c-0.1-2-0.1-4.2-0.1-6.7v-23.3H547.2z M582.3,240.3c-6.4,0-12-1.4-16.8-4.3
	c-4.8-2.9-8.6-6.8-11.2-11.8c-2.7-5-4-10.8-4-17.4c0-6.6,1.4-12.4,4.1-17.5c2.7-5,6.5-9,11.3-11.8c4.8-2.8,10.4-4.2,16.6-4.2
	c6.4,0,12,1.4,16.8,4.3c4.8,2.9,8.6,6.8,11.3,11.8c2.7,5,4.1,10.8,4.1,17.4c0,6.6-1.4,12.4-4.1,17.4c-2.7,5-6.5,9-11.3,11.8
	C594.2,238.9,588.6,240.3,582.3,240.3z M582.3,225.4c5.1,0,9-1.7,11.5-5.2c2.5-3.5,3.8-7.9,3.8-13.4c0-5.6-1.3-10.1-3.8-13.5
	c-2.6-3.4-6.4-5.1-11.4-5.1c-3.5,0-6.3,0.8-8.6,2.3c-2.2,1.6-3.9,3.7-5,6.5c-1.1,2.8-1.6,6-1.6,9.7c0,5.7,1.3,10.2,3.8,13.5
	C573.5,223.7,577.3,225.4,582.3,225.4z M666.2,175.1v3.5c-0.4-0.3-0.7-0.6-1.1-0.9c-4.1-2.9-9.2-4.4-15.2-4.4
	c-6.1,0-11.4,1.4-15.9,4.3c-4.5,2.9-8,6.9-10.5,11.9c-2.5,5-3.7,10.8-3.7,17.2c0,6.3,1.2,12,3.7,17.1c2.4,5.1,5.9,9,10.3,12
	c4.4,2.9,9.5,4.4,15.3,4.4c6,0,11-1.3,15.2-4v6.3c0.1,2.4-0.5,4.3-1.8,5.9c-1.3,1.6-3,2.8-5.1,3.6c-2.1,0.8-4.4,1.2-6.8,1.2
	c-2.2,0-4.3-0.5-6.2-1.5c-1.9-1-3.4-2.4-4.4-4.3l-14.8,7.2c1.6,2.7,3.7,5.1,6.3,7.2c2.6,2.1,5.5,3.7,8.7,4.8
	c3.3,1.2,6.7,1.7,10.3,1.7c4.7,0,9-0.6,13-1.9c4-1.2,7.4-3.1,10.1-5.6c2.8-2.5,4.7-5.7,5.7-9.6c0.4-1.4,0.6-2.8,0.7-4.1
	c0.1-1.4,0.2-2.9,0.2-4.4v-67.8H666.2z M660.1,223.7c-2.1,1.6-5,2.4-8.5,2.4c-3.4,0-6.3-0.9-8.5-2.6c-2.2-1.7-3.8-4-4.9-7
	c-1.1-2.9-1.6-6.2-1.6-9.7c0-3.5,0.5-6.7,1.6-9.7c1.1-2.9,2.8-5.2,5.1-7c2.3-1.7,5.2-2.6,8.8-2.6c3.3,0,6,0.8,8.1,2.4
	c2.1,1.6,3.6,3.9,4.5,6.8c0.9,2.9,1.4,6.3,1.4,10.1s-0.5,7.2-1.4,10.1C663.8,219.8,662.3,222.1,660.1,223.7z M724,174.9
	c-1.9,0.1-3.8,0.5-5.6,1c-1.8,0.5-3.5,1.3-5,2.2c-2,1.2-3.7,2.7-5.1,4.5c-0.7,0.9-1.2,1.8-1.8,2.7v-10.2h-14.1v63.4h16.1v-32.4
	c0-2.4,0.3-4.6,1-6.6c0.7-1.9,1.6-3.6,2.9-5.1c1.3-1.4,2.9-2.6,4.8-3.4c1.9-0.9,4-1.4,6.3-1.6c2.3-0.2,4.4,0,6.1,0.6v-14.9
	C727.8,174.9,725.9,174.8,724,174.9z M788.5,191.9c-0.2-2.4-1-4.7-2.2-7c-2.2-4.2-5.5-7.2-9.9-8.9c-4.3-1.7-9.3-2.6-14.9-2.6
	c-7.6,0-13.7,1.6-18.1,4.9c-4.4,3.3-7.4,7.6-9,12.8l14.5,4.6c1-2.9,2.8-4.9,5.3-6.1c2.5-1.1,5-1.7,7.3-1.7c4.2,0,7.2,0.9,9,2.6
	c1.4,1.4,2.3,3.4,2.6,6c-2.7,0.4-5.3,0.8-7.7,1.1c-4.1,0.6-7.8,1.2-11,1.9c-3.3,0.7-6.1,1.4-8.4,2.3c-3.4,1.3-6.1,2.8-8.1,4.7
	c-2,1.9-3.5,4-4.4,6.4c-0.9,2.4-1.4,5.1-1.4,8c0,3.5,0.8,6.7,2.4,9.7c1.6,2.9,4,5.2,7.2,7c3.2,1.7,7,2.6,11.5,2.6
	c5.5,0,10-0.9,13.6-2.8c2.8-1.5,5.5-3.7,8-6.7v7.8h14v-38.8C788.8,196.9,788.7,194.2,788.5,191.9z M771.3,219.3
	c-0.4,0.9-1.2,2-2.4,3.3c-1.2,1.3-2.8,2.5-4.8,3.6c-2,1-4.5,1.6-7.4,1.6c-1.8,0-3.4-0.3-4.8-0.8c-1.3-0.5-2.4-1.3-3.1-2.4
	c-0.7-1-1.1-2.3-1.1-3.7c0-1.1,0.2-2,0.7-2.9c0.4-0.9,1.2-1.7,2.1-2.4c1-0.7,2.2-1.4,3.8-2c1.4-0.5,3-1,4.8-1.4
	c1.8-0.4,4.2-0.9,7.1-1.4c1.9-0.3,4.2-0.7,6.8-1.2c0,1.1-0.1,2.4-0.2,3.8C772.6,215.5,772.1,217.6,771.3,219.3z M886.8,180
	c-3.7-4.3-9.2-6.4-16.4-6.4c-4.2,0-8.1,0.9-11.5,2.8c-3.2,1.7-5.8,4.1-7.8,7.1c-1.5-2.7-3.6-5-6.2-6.7c-3.2-2.1-7.3-3.2-12.2-3.2
	c-4.3,0-8.3,1-11.8,2.9c-2.7,1.5-4.9,3.3-6.8,5.6v-7h-14.1v63.4H816v-38.4c0-3.6,1-6.6,3-8.9c2-2.3,4.7-3.4,8-3.4
	c3.5,0,6.2,1.2,8.2,3.5c2,2.3,3,5.6,3,9.8v37.5h16v-38.4c0-2.4,0.5-4.6,1.4-6.4c0.9-1.9,2.2-3.3,3.8-4.3c1.6-1,3.6-1.6,5.8-1.6
	c3.5,0,6.2,1.2,8.2,3.5c2,2.3,3,5.6,3,9.8v37.5h16v-41.7C892.3,189.9,890.5,184.3,886.8,180z M990.3,180c-3.7-4.3-9.2-6.4-16.4-6.4
	c-4.2,0-8.1,0.9-11.5,2.8c-3.2,1.7-5.8,4.1-7.8,7.1c-1.5-2.7-3.6-5-6.2-6.7c-3.2-2.1-7.3-3.2-12.2-3.2c-4.3,0-8.3,1-11.8,2.9
	c-2.7,1.5-4.9,3.3-6.8,5.6v-7h-14.1v63.4h16.1v-38.4c0-3.6,1-6.6,3-8.9s4.7-3.4,8-3.4c3.5,0,6.2,1.2,8.2,3.5c2,2.3,3,5.6,3,9.8v37.5
	h16v-38.4c0-2.4,0.5-4.6,1.4-6.4c0.9-1.9,2.2-3.3,3.8-4.3c1.6-1,3.6-1.6,5.8-1.6c3.5,0,6.2,1.2,8.2,3.5c2,2.3,3,5.6,3,9.8v37.5h16
	v-41.7C995.9,189.9,994,184.3,990.3,180z M1056.4,211.3h7.7c0.7-7.7-0.1-14.4-2.3-20c-2.2-5.7-5.7-10.1-10.3-13.2
	c-4.7-3.1-10.3-4.7-17-4.7c-6.3,0-11.8,1.4-16.6,4.3c-4.8,2.8-8.6,6.8-11.3,12c-2.7,5.1-4.1,11.2-4.1,18.1c0,6.3,1.4,12,4.2,16.9
	c2.8,4.9,6.7,8.8,11.6,11.6c5,2.8,10.7,4.2,17.2,4.2c6.1,0,11.7-1.6,16.9-4.8c5.1-3.2,8.9-7.7,11.3-13.5l-16-4.6
	c-1.2,2.6-2.9,4.6-5.1,5.9c-2.2,1.4-4.9,2.1-8,2.1c-5,0-8.7-1.6-11.3-4.8c-1.9-2.4-3.1-5.5-3.6-9.3h28.7H1056.4z M1035.1,187.2
	c4.7,0,8,1.4,10.1,4.3c1.4,1.9,2.2,4.5,2.7,8H1020c0.6-2.9,1.7-5.4,3.1-7.3C1025.7,188.9,1029.7,187.2,1035.1,187.2z M1104.7,174.9
	c-1.9,0.1-3.8,0.5-5.6,1c-1.8,0.5-3.5,1.3-5,2.2c-2,1.2-3.7,2.7-5.1,4.5c-0.7,0.9-1.2,1.8-1.8,2.7v-10.2h-14.1v63.4h16.1v-32.4
	c0-2.4,0.3-4.6,1-6.6c0.7-1.9,1.6-3.6,2.9-5.1c1.3-1.4,2.9-2.6,4.8-3.4c1.9-0.9,4-1.4,6.3-1.6c2.3-0.2,4.4,0,6.1,0.6v-14.9
	C1108.5,174.9,1106.6,174.8,1104.7,174.9z M1139.9,240.3c-8,0-14.4-1.8-19.4-5.4c-4.9-3.6-7.9-8.7-9-15.4l16.3-2.5
	c0.7,3,2.1,5.3,4.4,7c2.3,1.7,5.2,2.5,8.7,2.5c2.9,0,5.1-0.6,6.7-1.7c1.6-1.1,2.3-2.7,2.3-4.7c0-1.3-0.3-2.3-0.9-3
	c-0.6-0.8-2-1.5-4.2-2.3c-2.2-0.7-5.6-1.7-10.1-2.9c-5.2-1.3-9.3-2.8-12.4-4.5c-3.1-1.6-5.3-3.6-6.7-5.9c-1.4-2.3-2.1-5.1-2.1-8.3
	c0-4.1,1-7.6,3.1-10.6c2.1-3,5-5.3,8.8-6.9c3.8-1.6,8.2-2.4,13.4-2.4c5,0,9.4,0.8,13.2,2.3c3.8,1.5,6.9,3.7,9.3,6.5
	c2.4,2.8,3.8,6.1,4.4,10l-16.3,2.9c-0.3-2.3-1.3-4.2-3.1-5.6c-1.8-1.4-4.2-2.2-7.2-2.4c-2.9-0.2-5.3,0.2-7.1,1.2
	c-1.8,1-2.7,2.4-2.7,4.2c0,1.1,0.4,2,1.1,2.8c0.8,0.7,2.4,1.5,4.8,2.3c2.4,0.8,6.1,1.8,11,3.1c4.8,1.3,8.7,2.7,11.6,4.4
	c2.9,1.7,5,3.7,6.4,6c1.3,2.3,2,5.1,2,8.4c0,6.5-2.4,11.6-7,15.3C1154.7,238.4,1148.2,240.3,1139.9,240.3z M359.8,209.9v28.6h-20.4
	v-84.6h33.8c6.5,0,12.2,1.2,17.2,3.6c5,2.4,8.9,5.8,11.6,10.2c2.7,4.4,4.1,9.4,4.1,15c0,8.3-2.9,14.9-8.9,19.8s-14,7.4-24.3,7.4
	L359.8,209.9L359.8,209.9z M359.9,194.5h13.4c4,0,7-1,9.1-3c2.1-2,3.2-4.9,3.2-8.6c0-4.1-1.1-7.3-3.2-9.7c-2.1-2.4-5-3.7-8.7-3.7
	H360L359.9,194.5L359.9,194.5z"/>
</svg>
