<?xml version="1.0" encoding="utf-8"?>
<!-- Generator: Adobe Illustrator 25.4.1, SVG Export Plug-In . SVG Version: 6.00 Build 0)  -->
<svg version="1.1" id="Layer_1" xmlns="http://www.w3.org/2000/svg" xmlns:xlink="http://www.w3.org/1999/xlink" x="0px" y="0px"
	 viewBox="0 0 320 350" style="enable-background:new 0 0 320 350;" xml:space="preserve">
<style type="text/css">
	.st0{fill-opacity:0.4039;}
	.st1{fill:#FFFFFF;}
	.st2{fill:url(#SVGID_1_);}
	.st3{fill-opacity:0.251;}
	.st4{fill:#520065;}
</style>
<path class="st0" d="M69,54.5h182c27.6,0,50,22.4,50,50v182c0,27.6-22.4,50-50,50H69c-27.6,0-50-22.4-50-50v-182
	C19,76.9,41.4,54.5,69,54.5z"/>
<path class="st1" d="M50,27.5h220c1.1,0,2,0.9,2,2v276c0,1.1-0.9,2-2,2H50c-1.1,0-2-0.9-2-2v-276C48,28.4,48.9,27.5,50,27.5z"/>
<radialGradient id="SVGID_1_" cx="196.9999" cy="551.3487" r="437.44" gradientTransform="matrix(0.4367 0.8996 0.8996 -0.4367 -500.8557 54.215)" gradientUnits="userSpaceOnUse">
	<stop  offset="0" style="stop-color:#88007C"/>
	<stop  offset="1" style="stop-color:#300056"/>
</radialGradient>
<path class="st2" d="M76,13.5h168c23.2,0,42,18.8,42,42v224c0,23.2-18.8,42-42,42H76c-23.2,0-42-18.8-42-42v-224
	C34,32.3,52.8,13.5,76,13.5z M76,41.5c-7.7,0-14,6.3-14,14v168c0,7.7,6.3,14,14,14h168c7.7,0,14-6.3,14-14v-168c0-7.7-6.3-14-14-14
	H76z M62,279.5c0,7.7,6.3,14,14,14h168c7.7,0,14-6.3,14-14v-16.4c-4.4,1.5-9.1,2.4-14,2.4H76c-4.9,0-9.6-0.8-14-2.4V279.5z"/>
<path class="st3" d="M76,321.5c-23.2,0-42-18.8-42-42v-56c0,23.2,18.8,42,42,42h168c23.2,0,42-18.8,42-42v56c0,23.2-18.8,42-42,42
	H76z"/>
<path class="st4" d="M146.6,157.4v38.1h-27.2V82.8h45c8.6,0,16.3,1.6,22.9,4.8c6.6,3.2,11.8,7.7,15.4,13.6c3.6,5.9,5.5,12.5,5.5,20
	c0,11-3.9,19.8-11.8,26.4c-7.9,6.6-18.7,9.9-32.4,9.9H146.6z M146.7,136.8h17.8c5.3,0,9.3-1.3,12.1-4c2.8-2.7,4.2-6.5,4.2-11.4
	c0-5.4-1.4-9.7-4.3-12.9c-2.8-3.2-6.7-4.9-11.6-4.9h-18.1V136.8z"/>
</svg>
