<svg xmlns="http://www.w3.org/2000/svg" width="215" height="80.143" viewBox="0 0 215 80.143">
  <g id="Progressive_Leasing" data-name="Progressive Leasing" transform="translate(-34.975 -418.028)">
    <ellipse id="Ellipse_2" data-name="Ellipse 2" cx="1.964" cy="0.279" rx="1.964" ry="0.279" transform="translate(53.849 497.613)" fill="#720072"/>
    <path id="Path_45" data-name="Path 45" d="M57.2,497.694H54.425c-.633.144-1.081-.309-1.533-.573-2.547-1.483-5.056-3.028-7.572-4.561-2.257-1.374-4.443-2.879-6.782-4.094a14.771,14.771,0,0,1-3.552-2.819V432.555a3.011,3.011,0,0,1,1.438-2.721c1.769-1.215,3.716-2.17,5.567-3.271,2.706-1.608,5.342-3.34,8.1-4.847,1.78-.972,3.464-2.1,5.28-3.02,2.236-1.137,4.093-.725,6.123.5,1.784,1.075,3.533,2.221,5.422,3.148,1.823.895,3.488,2.107,5.229,3.17a48.046,48.046,0,0,0,5.088,3.027c2.034.918,3.606,2.107,4.262,4.3.033.111.179.188.3.311q0,10.8,0,21.668A6.669,6.669,0,0,1,79.374,459c-1.312.808-2.65,1.576-3.968,2.375-1.849,1.12-3.673,2.283-5.54,3.371-1.75,1.02-3.561,1.936-5.313,2.953-1.388.806-2.726,1.7-4.178,2.609v18.219c0,1.776.019,3.553-.005,5.329A3.864,3.864,0,0,1,57.2,497.694ZM56.4,446.1c-2.622-2.171-5.771-3.69-8.759-5.422-2.941-1.7-5.714-3.754-9.034-5.046v48.094a5.028,5.028,0,0,0,.834.812c2.476,1.507,4.973,2.978,7.455,4.472,2.538,1.528,5.05,3.1,7.616,4.582.528.3,1.124.909,1.889.385Zm3.98,19.279a4.063,4.063,0,0,0,1.1-.185q1.869-1,3.7-2.085c1.7-1.006,3.368-2.065,5.075-3.06,1.806-1.052,3.663-2.016,5.452-3.094a19.961,19.961,0,0,0,2.084-1.625V433.439a8.061,8.061,0,0,0-1.072-.874c-1.711-.968-3.366-2.025-5.125-2.925-1.921-.983-3.683-2.272-5.533-3.4-1.9-1.154-3.79-2.315-5.733-3.387-1.021-.563-2.048-1.3-2.858-1.059L40.94,431.509v.761c1.026.634,2,1.277,3.016,1.857,1.759,1.009,3.56,1.944,5.3,2.976,1.81,1.072,3.547,2.267,5.363,3.328,1.9,1.109,4.013,1.9,5.234,3.7a10.7,10.7,0,0,1,.515,4.658C60.379,454.247,60.375,459.7,60.375,465.378Z" transform="translate(0 0)" fill="#720072"/>
    <path id="Path_46" data-name="Path 46" d="M309.958,494.09v-2.223a10.21,10.21,0,0,1,2.177.523c1.264.62,2.564.247,3.837.273.548.012,1.085-.562,1.667-.7a1.263,1.263,0,0,0,1.023-.951,8.364,8.364,0,0,1,.772-1.359v-1.14c-.157-.046-.343-.164-.5-.135a15.038,15.038,0,0,1-1.624.368,12.826,12.826,0,0,1-5.346-.961,6,6,0,0,1-2.858-2.7,6.631,6.631,0,0,1-1.189-4.258,21.728,21.728,0,0,0,.015-2.372c.389-.752.673-1.364,1.012-1.945a7.326,7.326,0,0,1,4.818-3.61,19.7,19.7,0,0,1,5.208-.273,13.108,13.108,0,0,1,3.191.892c.013.273.051.707.051,1.143,0,4.474-.011,8.947.013,13.421a11.005,11.005,0,0,1-.655,3.09,5.481,5.481,0,0,1-3.628,3.5,10.444,10.444,0,0,1-5.826.046c-.371-.095-.8.045-1.172-.054A4.369,4.369,0,0,1,309.958,494.09Zm9.437-18.6a3.677,3.677,0,0,0-1.152-.525,18.253,18.253,0,0,0-3.162.005,5.866,5.866,0,0,0-1.692.667,3.591,3.591,0,0,0-.949.561c-.476.438-.861.974-1.342,1.4-.695.621-.276,1.529-.7,2.284-.55.971.474,2.05.323,3.088,2.115,3.279,5.048,4.073,8.678,2.9Z" transform="translate(-164.64 -32.913)" fill="#720072"/>
    <path id="Path_47" data-name="Path 47" d="M419.867,552.895c0,5.534.015,10.921-.007,16.308a5.786,5.786,0,0,1-3.842,5.01,12.663,12.663,0,0,1-6.233.04c-.593-.161-1.354.209-1.785-.664V571.4l4.844,1.188,3.18-1.093.953-1.4.494-2.09c-.18-.038-.4-.162-.531-.1a8.256,8.256,0,0,1-3.61.376,11.959,11.959,0,0,1-4.988-1.814,6.583,6.583,0,0,1-2.352-4.744c-.04-1.442-.008-2.885-.008-3.99a9.308,9.308,0,0,1,2.4-3.513,7.759,7.759,0,0,1,5.079-2.1,14.43,14.43,0,0,1,5.82.768A2.688,2.688,0,0,0,419.867,552.895Zm-2.39,2.1c-5.746-1.824-10.035,1.65-9.076,6.824,1.829,3.838,4.771,4.954,9.076,3.53Z" transform="translate(-223.81 -80.861)" fill="#720072"/>
    <path id="Path_48" data-name="Path 48" d="M200.947,479.763h-2.781V459a12.909,12.909,0,0,1,8.954.417,5.259,5.259,0,0,1,3.259,4.686,25.933,25.933,0,0,1,.02,2.979,7.338,7.338,0,0,1-3.651,4.3,11.629,11.629,0,0,1-5.8.893Zm-.008-9.934h3.4a8.638,8.638,0,0,1,1.087-.662,3.3,3.3,0,0,0,2.2-3.4c-.025-.786,0-1.573,0-2.355l-2.3-2.292-4.38-.379Z" transform="translate(-98.448 -24.345)" fill="#720072"/>
    <path id="Path_49" data-name="Path 49" d="M244.823,560.618H233.462A27.331,27.331,0,0,0,234.5,563.7a3.893,3.893,0,0,0,2.957,2.009,7.773,7.773,0,0,0,4.572-.325c.78-.338,1.5-.8,2.365-1.271v2.68a9.234,9.234,0,0,1-5.077,1.662,8.126,8.126,0,0,1-5.882-1.97c-1.15-.995-1.585-2.382-2.346-3.588a1.953,1.953,0,0,1-.093-.943c-.01-.92,0-1.841,0-2.762a5.972,5.972,0,0,1,1.586-4.287,7.556,7.556,0,0,1,3.985-2.751c3.4-1.112,7.445.928,8.215,4.316A19.351,19.351,0,0,1,244.823,560.618Zm-3.262-5.134c-1.652-.877-2.986-1.516-4.8-.85-1.8.658-2.386,1.983-3.043,3.469a42.51,42.51,0,0,0,8.81-.05Z" transform="translate(-118.247 -80.734)" fill="#720072"/>
    <path id="Path_50" data-name="Path 50" d="M555.792,476.629v4.057h-10.84c-.759,1.1.252,2,.166,2.987l2.161,2.113a8.05,8.05,0,0,0,8.065-1.316v2.852a18.1,18.1,0,0,1-2.031.9,10.64,10.64,0,0,1-6.593-.025,6.444,6.444,0,0,1-4.135-4.2c-1.036-3.234-.915-5.546.565-7.915,1.375-2.2,3.248-3.748,6.049-3.619.811.037,1.71-.381,2.429.344,1.991.254,3.071,1.557,3.808,3.263A4.515,4.515,0,0,0,555.792,476.629Zm-2.756.146c-1.289-2.087-3.094-2.091-5-1.919-2.668,1.613-2.668,1.613-3.24,3.834h8.726C553.331,477.94,553.167,477.29,553.035,476.775Z" transform="translate(-305.817 -32.789)" fill="#720072"/>
    <path id="Path_51" data-name="Path 51" d="M394.322,480.849H382.85a5.385,5.385,0,0,0,4.075,5.5,8.2,8.2,0,0,0,6.587-1.712v2.811c-2.272,1.518-4.906,1.35-7.423,1.266a9.033,9.033,0,0,1-5.2-4.19,13.757,13.757,0,0,1-.708-4.757c.436-1.266.453-2.681,1.388-3.771.194-.226.243-.574.438-.8a6.167,6.167,0,0,1,1.266-1.242,20.685,20.685,0,0,1,2.15-1.013c.222-.106.418-.367.631-.373,1.253-.036,2.508-.017,3.367-.017C393.687,473.94,394.64,476.949,394.322,480.849Zm-2.781-3.756a7.365,7.365,0,0,0-2.169-2.128c-2.071-.2-4-.181-5.3,1.708-.444.649-1.063,1.252-.72,2.141h8.187Z" transform="translate(-208.227 -32.889)" fill="#720072"/>
    <path id="Path_52" data-name="Path 52" d="M267.881,488.738a8.319,8.319,0,0,1-5.927-5.273c0-1.176.065-2.356-.014-3.527a7.151,7.151,0,0,1,6.728-7.373,10.61,10.61,0,0,1,3.809.354,6.851,6.851,0,0,1,4.514,4.37,10.034,10.034,0,0,1-.745,8.215,6.5,6.5,0,0,1-2.141,2.081,6.643,6.643,0,0,1-4.285,1.167A15.817,15.817,0,0,0,267.881,488.738Zm3.192-2.374a5.506,5.506,0,0,0,1.024-.433,5.694,5.694,0,0,0,1.714-1.429,13.082,13.082,0,0,0,1.2-3.24,3.9,3.9,0,0,0-.312-2.014,5.937,5.937,0,0,0-2.26-3.585,4.887,4.887,0,0,0-4.4-.6,3.988,3.988,0,0,0-2.916,2.417c-.106.284-.269.546-.392.824a6.345,6.345,0,0,0-.21,4.1,5.628,5.628,0,0,0,3.3,3.956Z" transform="translate(-136.911 -32.89)" fill="#720072"/>
    <path id="Path_53" data-name="Path 53" d="M283.866,567.806c-2.41.856-4.7.466-6.963.494a5.141,5.141,0,0,1-3.244-1.239,5.475,5.475,0,0,1-1.667-3.26,2.74,2.74,0,0,1,.689-2.251,7.12,7.12,0,0,1,3.955-2.39c1.483-.394,2.943-.082,4.464-.383-.08-1.288.281-2.6-.75-3.632-2.339-1.252-4.443.007-6.7.643V553.33a13.254,13.254,0,0,1,3.62-1.179c.655-.061,1.324.03,1.982-.018a4.63,4.63,0,0,1,4.64,4.616C283.8,560.424,283.866,564.1,283.866,567.806Zm-2.818-6.595c-2.288.1-4.7-.544-6.314,1.9A2.417,2.417,0,0,0,276.4,565.8c.523.182,1.282-.092,1.68.192,1.117.8,2.012.214,2.965-.175Z" transform="translate(-142.955 -80.896)" fill="#720072"/>
    <path id="Path_54" data-name="Path 54" d="M377.16,567.814h-2.728v-10.87c-.444-1.079-.828-1.762-1.719-2.017-1.227-.351-2.525-.864-3.705-.373-.716.3-1.4.07-2.036.346l-.486.484v12.388h-2.373V553.4a14.267,14.267,0,0,1,8.144-1.258c1.7.24,3.6.782,4.334,2.743a6.733,6.733,0,0,1,.6,2.528C377.12,560.826,377.16,564.244,377.16,567.814Z" transform="translate(-198.559 -80.821)" fill="#720072"/>
    <path id="Path_55" data-name="Path 55" d="M464.9,482.755v3.524a3.042,3.042,0,0,0-.5.338c-1.024.93-1.825,2.261-3.5,2.048-1.394-.177-2.864.476-4.192-.386-.9.2-1.227-.558-1.64-.945v-2.828c2.193,1.716,4.416,2.46,6.937,1.327a2.381,2.381,0,0,0,0-2.97c-1.419-.538-2.735-1.462-4.362-1.746a4.268,4.268,0,0,1-1.811-1.3,2.523,2.523,0,0,1-.853-2.008c.04-.785.009-1.574.009-2.21l.683-1.337c1.716-2.151,3.789-1.851,5.74-1.728a4.76,4.76,0,0,1,3,1.226v2.81l-2.868-1.687h-2.824l-1.329,1.6v.837c.788,1.414,2.2,1.855,3.576,2.259A5.5,5.5,0,0,1,464.9,482.755Z" transform="translate(-253.37 -32.827)" fill="#720072"/>
    <path id="Path_56" data-name="Path 56" d="M422.966,475.4a3.884,3.884,0,0,1,2.749-2.637,2.194,2.194,0,0,1,.7-.217c1.9,0,3.845-.251,5.624,1.051v2.782c-.45-.233-.9-.463-1.347-.7a6.656,6.656,0,0,0-1.465-.746,5.155,5.155,0,0,0-1.772-.013,11.117,11.117,0,0,0-1.56.415,2.488,2.488,0,0,0,.1,3.183,36.96,36.96,0,0,1,3.577,1.213,5.183,5.183,0,0,1,3.317,3.131v3.059l-1.863,2.145c-2.025.953-3.918.568-5.752.661l-2.326-1.272a17.021,17.021,0,0,1,.146-2.773c.284.11.533.126.613.25.847,1.319,2.351,1.344,3.617,1.785.772.269,2.255-.659,2.785-1.543.156-.26.283-.537.4-.77-.567-1.709-1.93-2.337-3.471-2.8a5.764,5.764,0,0,1-3.374-1.865c-.249-.35-.442-.74-.7-1.176Z" transform="translate(-234.05 -32.878)" fill="#720072"/>
    <path id="Path_57" data-name="Path 57" d="M320.932,565.149a6.339,6.339,0,0,1-3.1,3.1c-2.167-.254-4.74.734-6.778-1.3v-2.57c1.214.194,1.888,1.261,3.066,1.579a3.569,3.569,0,0,0,3.338-.361,1.981,1.981,0,0,1,.55-.177c.119-.6.85-1.038.431-1.855a3.67,3.67,0,0,0-2.3-2.026,10.791,10.791,0,0,1-1.785-.463c-1.348-.663-2.733-1.329-3.328-3.181v-3.249c2.322-3.5,6.631-3.114,9.063-1.271v2.491a11.281,11.281,0,0,0-2.82-1.375,3.835,3.835,0,0,0-3.53.653,2.3,2.3,0,0,0,.181,2.725c1.417.538,2.711,1.577,4.367,1.691.878.863,2.3,1.177,2.649,2.574Z" transform="translate(-166.531 -80.821)" fill="#720072"/>
    <path id="Path_58" data-name="Path 58" d="M501.691,473.65h2.8l4.629,12.362c1.848-4.145,3.135-8.291,4.831-12.362h2.6c-1.91,5.182-3.955,10.215-5.97,15.289h-2.859Z" transform="translate(-281.556 -33.555)" fill="#720072"/>
    <path id="Path_59" data-name="Path 59" d="M198.084,560.179V539.4H200.7c-.035-.031.022.006.059.057a.312.312,0,0,1,.069.167c0,6.168,0,12.337,0,18.64h8.69v1.919Z" transform="translate(-98.399 -73.211)" fill="#720072"/>
    <path id="Path_60" data-name="Path 60" d="M245.773,473.06v2.17a11.871,11.871,0,0,1-2.639-.35c-.943-.378-2.049.225-3.021.661a4.012,4.012,0,0,1-.588.156v12.429h-2.372v-13.98c1.014-1.113,2.6-1.14,3.983-1.546A6.327,6.327,0,0,1,245.773,473.06Z" transform="translate(-121.968 -32.773)" fill="#720072"/>
    <path id="Path_61" data-name="Path 61" d="M356.132,474.109c2.626-1.208,5.218-2.168,8.2-1.046v2.359a14.088,14.088,0,0,0-2.989-.442,13.357,13.357,0,0,0-2.845.807v12.477h-2.364Z" transform="translate(-193.745 -32.901)" fill="#720072"/>
    <path id="Path_62" data-name="Path 62" d="M490,473.651h2.229c.071.088.146.138.146.187.005,4.991,0,9.982,0,15.072H490.1c-.023-.029-.1-.078-.1-.128C490,483.791,490,478.8,490,473.651Z" transform="translate(-274.503 -33.556)" fill="#720072"/>
    <path id="Path_63" data-name="Path 63" d="M346,553.248h2.38v15.257H346V553.248Z" transform="translate(-187.632 -81.574)" fill="#720072"/>
    <path id="Path_64" data-name="Path 64" d="M463.881,556.153a6.047,6.047,0,0,1-1.693,2.579l-.879-2.617-.718,2.4-.552-.1c-.628-1.412.595-2.7.24-4.048.09-.09.134-.173.184-.177.44-.03.88-.046,1.294-.064l.745,2.567.706-2.5h1.35c.185,1.357.376,2.762.607,4.45l-1.283-.607Z" transform="translate(-256.319 -82.103)" fill="#720072"/>
    <path id="Path_65" data-name="Path 65" d="M346.436,540.581h-1.7l-.976-1.686.626-1.442,2.006-.564.981,1.385v1.371Z" transform="translate(-186.283 -71.705)" fill="#720072"/>
    <path id="Path_66" data-name="Path 66" d="M490.657,461.064l-1.893-.482c-.631-1.364-.631-1.364-.064-2.736l2.007-.565.981,1.385v1.371Z" transform="translate(-273.467 -23.68)" fill="#720072"/>
    <path id="Path_67" data-name="Path 67" d="M453.211,555.057v3h-1.117v-3.045l-1.113-.125-.163-.711c1.2-.06,2.347-.007,3.533-.035l.161.666Z" transform="translate(-250.867 -82.111)" fill="#720072"/>
  </g>
</svg>
