<svg xmlns="http://www.w3.org/2000/svg" xml:space="preserve" viewBox="0 0 215 80.1"><path fill="#720072" d="M20.825 79.572c1.1 0 2 .1 2 .3s-.9.3-2 .3-2-.1-2-.3.9-.3 2-.3zm1.4.1h-2.8c-.6.1-1.1-.3-1.5-.6-2.5-1.5-5.1-3-7.6-4.6-2.3-1.4-4.4-2.9-6.8-4.1-1.3-.8-2.5-1.7-3.6-2.8v-53.1c-.1-1.1.5-2.1 1.4-2.7 1.8-1.2 3.7-2.2 5.6-3.3 2.7-1.6 5.3-3.3 8.1-4.8 1.8-1 3.5-2.1 5.3-3 2.2-1.1 4.1-.7 6.1.5 1.8 1.1 3.5 2.2 5.4 3.1 1.8.9 3.5 2.1 5.2 3.2 1.6 1.1 3.3 2.1 5.1 3 2 .9 3.6 2.1 4.3 4.3 0 .1.2.2.3.3v21.7c-.3 1.6-1.1 3.1-2.4 4.2-1.3.8-2.7 1.6-4 2.4-1.8 1.1-3.7 2.3-5.5 3.4-1.8 1-3.6 1.9-5.3 3-1.4.8-2.7 1.7-4.2 2.6v23.5c.1 1.8-1.3 3.5-3.1 3.8zm-.8-51.6c-2.6-2.2-5.8-3.7-8.8-5.4-2.9-1.7-5.7-3.8-9-5v48.1c.2.3.5.6.8.8l7.5 4.5c2.5 1.5 5 3.1 7.6 4.6.5.3 1.1.9 1.9.4v-48zm4 19.3c.4 0 .7-.1 1.1-.2 1.2-.7 2.5-1.4 3.7-2.1 1.7-1 3.4-2.1 5.1-3.1 1.8-1.1 3.7-2 5.5-3.1.7-.5 1.4-1 2.1-1.6v-21.9c-.3-.3-.7-.6-1.1-.9-1.7-1-3.4-2-5.1-2.9-1.9-1-3.7-2.3-5.5-3.4-1.9-1.2-3.8-2.3-5.7-3.4-1-.6-2-1.3-2.9-1.1l-16.5 9.7v.8c1 .6 2 1.3 3 1.9 1.8 1 3.6 1.9 5.3 3 1.8 1.1 3.5 2.3 5.4 3.3 1.9 1.1 4 1.9 5.2 3.7.5 1.5.7 3.1.5 4.7-.1 5.4-.1 10.9-.1 16.6zm84.9-4.2v-2.2c.7.1 1.5.3 2.2.5 1.3.6 2.6.2 3.8.3.5 0 1.1-.6 1.7-.7.5-.1.9-.5 1-1 .2-.5.5-.9.8-1.4v-1.1c-.2 0-.3-.2-.5-.1-.5.2-1.1.3-1.6.4-1.8.1-3.7-.3-5.3-1-1.2-.6-2.2-1.5-2.9-2.7-.9-1.2-1.3-2.7-1.2-4.3 0-.8.1-1.6 0-2.4.4-.8.7-1.4 1-1.9 1-1.8 2.8-3.2 4.8-3.6 1.7-.3 3.5-.4 5.2-.3 1.1.2 2.2.5 3.2.9 0 .3.1.7.1 1.1v13.4c-.1 1.1-.3 2.1-.7 3.1-.6 1.7-1.9 3-3.6 3.5-1.9.6-3.9.6-5.8 0-.4-.1-.8 0-1.2-.1-.3 0-.7-.2-1-.4zm9.5-18.6c-.4-.2-.7-.4-1.2-.5-1.1-.1-2.1-.1-3.2 0-.6.1-1.2.4-1.7.7-.3.1-.7.3-.9.6-.5.4-.9 1-1.3 1.4-.7.6-.3 1.5-.7 2.3-.6 1 .5 2 .3 3.1 2.1 3.3 5 4.1 8.7 2.9v-10.5zm41.3 29.4v16.3c-.2 2.3-1.7 4.2-3.8 5-2 .5-4.2.5-6.2 0-.6-.2-1.4.2-1.8-.7v-2.2l4.8 1.2 3.2-1.1 1-1.4.5-2.1c-.2 0-.4-.2-.5-.1-1.2.4-2.4.5-3.6.4-1.8-.2-3.5-.8-5-1.8-1.4-1.2-2.3-2.9-2.4-4.7v-4c.5-1.3 1.3-2.5 2.4-3.5 1.4-1.3 3.2-2 5.1-2.1 2-.1 4 .1 5.8.8.1.1.3.1.5 0zm-2.4 2.1c-5.7-1.8-10 1.6-9.1 6.8 1.8 3.8 4.8 5 9.1 3.5v-10.3zm-91.2-18.7h-2.8v-20.8c2.9-.9 6.1-.8 9 .4 1.9.8 3.2 2.6 3.3 4.7.1 1 .1 2 0 3-.6 1.9-1.9 3.4-3.7 4.3-1.8.8-3.8 1.1-5.8.9v7.5zm0-9.9h3.4c.3-.2.7-.5 1.1-.7 1.4-.5 2.3-1.9 2.2-3.4v-2.4l-2.3-2.3-4.4-.4v9.2zm24.1 34.4h-11.4c.3 1 .6 2.1 1 3.1.6 1.1 1.7 1.9 3 2 1.5.4 3.1.2 4.6-.3.8-.3 1.5-.8 2.4-1.3v2.7c-1.5 1-3.3 1.6-5.1 1.7-2.1.1-4.3-.6-5.9-2-1.2-1-1.6-2.4-2.3-3.6-.1-.3-.1-.6-.1-.9v-2.8c-.1-1.6.5-3.1 1.6-4.3 1-1.3 2.4-2.3 4-2.8 3.4-1.1 7.4.9 8.2 4.3.1 1.4.1 2.8 0 4.2zm-3.3-5.1c-1.7-.9-3-1.5-4.8-.9-1.8.7-2.4 2-3 3.5 2.9.3 5.9.3 8.8 0l-1-2.6zm126.7-31v4.1h-10.8c-.8 1.1.3 2 .2 3l2.2 2.1c2.7 1.1 5.8.6 8.1-1.3v2.9c-.7.3-1.3.6-2 .9-2.1.7-4.5.7-6.6 0-2-.7-3.5-2.2-4.1-4.2-1-3.2-.9-5.5.6-7.9 1.4-2.2 3.2-3.7 6-3.6.8 0 1.7-.4 2.4.3 2 .3 3.1 1.6 3.8 3.3-.1.1 0 .3.2.4zm-2.8.2c-1.3-2.1-3.1-2.1-5-1.9-2.7 1.6-2.7 1.6-3.2 3.8h8.7l-.5-1.9zm-61.1 4h-11.5c-.1 2.6 1.6 4.9 4.1 5.5 2.3.4 4.7-.2 6.6-1.7v2.8c-2.3 1.5-4.9 1.4-7.4 1.3-2.2-.7-4.1-2.2-5.2-4.2-.5-1.5-.8-3.1-.7-4.8.4-1.3.5-2.7 1.4-3.8.2-.2.2-.6.4-.8.4-.5.8-.9 1.3-1.2.7-.4 1.4-.7 2.1-1 .2-.1.4-.4.6-.4h3.4c4.3 1.4 5.2 4.4 4.9 8.3zm-2.8-3.8c-.6-.9-1.3-1.6-2.2-2.1-2.1-.2-4-.2-5.3 1.7-.4.6-1.1 1.3-.7 2.1h8.2v-1.7zm-52.3 11.6c-2.7-.6-5-2.6-5.9-5.3 0-1.2.1-2.4 0-3.5-.1-3.9 2.9-7.1 6.7-7.4 1.3-.1 2.6 0 3.8.4 2.1.6 3.8 2.3 4.5 4.4.9 2.7.7 5.7-.7 8.2-.5.9-1.3 1.6-2.1 2.1-1.3.9-2.8 1.3-4.3 1.2-.7-.1-1.4-.1-2-.1zm3.2-2.3c.4-.1.7-.3 1-.4.7-.4 1.2-.8 1.7-1.4.5-1 .9-2.1 1.2-3.2.1-.7 0-1.4-.3-2-.3-1.4-1.1-2.7-2.3-3.6-1.3-.9-2.9-1.1-4.4-.6-1.3.3-2.4 1.2-2.9 2.4-.1.3-.3.5-.4.8-.5 1.3-.6 2.7-.2 4.1.4 1.8 1.6 3.2 3.3 4l3.3-.1zm6.7 33.4c-2.4.9-4.7.5-7 .5-1.2 0-2.3-.5-3.2-1.2-.9-.9-1.5-2-1.7-3.3-.1-.8.1-1.6.7-2.3 1-1.2 2.4-2.1 4-2.4 1.5-.4 2.9-.1 4.5-.4-.1-1.3.3-2.6-.8-3.6-2.3-1.3-4.4 0-6.7.6v-2.5c1.1-.6 2.4-1 3.6-1.2.7-.1 1.3 0 2 0 2.6 0 4.6 2.1 4.6 4.6-.1 3.8 0 7.5 0 11.2zm-2.8-6.6c-2.3.1-4.7-.5-6.3 1.9-.2 1.2.5 2.3 1.7 2.7.5.2 1.3-.1 1.7.2 1.1.8 2 .2 3-.2l-.1-4.6zm40.5 6.7h-2.7v-10.9c-.4-1.1-.8-1.8-1.7-2-1.2-.4-2.5-.9-3.7-.4-.7.3-1.4.1-2 .3l-.5.5v12.5h-2.4v-14.4c2.5-1.2 5.4-1.6 8.1-1.3 1.7.2 3.6.8 4.3 2.7.4.8.6 1.7.6 2.5v10.5zm32.9-37.1v3.5c-.2.1-.3.2-.5.3-1 .9-1.8 2.3-3.5 2-1.4-.2-2.9.5-4.2-.4-.9.2-1.2-.6-1.6-.9v-2.8c2.2 1.7 4.4 2.5 6.9 1.3.7-.9.7-2.1 0-3-1.4-.5-2.7-1.5-4.4-1.7-.7-.3-1.3-.7-1.8-1.3-.6-.5-.9-1.2-.9-2v-2.2l.7-1.3c1.7-2.2 3.8-1.9 5.7-1.7 1.1 0 2.2.5 3 1.2v2.8l-2.9-1.7h-2.8l-1.3 1.6v.8c.8 1.4 2.2 1.9 3.6 2.3 1.8.4 3.3 1.6 4 3.2zm-22.6-7.4c.4-1.3 1.4-2.3 2.7-2.6.2-.1.5-.2.7-.2 1.9 0 3.8-.3 5.6 1.1v2.8c-.4-.2-.9-.5-1.3-.7-.5-.3-.9-.6-1.5-.7-.6-.1-1.2-.1-1.8 0-.5.1-1.1.2-1.6.4-.7.9-.7 2.3.1 3.2 1.2.3 2.4.7 3.6 1.2 1.5.5 2.8 1.6 3.3 3.1v3.1l-1.9 2.1c-2 1-3.9.6-5.8.7l-2.3-1.3c0-.9 0-1.9.1-2.8.3.1.5.1.6.2.8 1.3 2.4 1.3 3.6 1.8.8.3 2.3-.7 2.8-1.5.2-.3.3-.5.4-.8-.6-1.7-1.9-2.3-3.5-2.8-1.3-.2-2.5-.9-3.4-1.9-.2-.4-.4-.7-.7-1.2l.3-3.2zm-34.5 41.8c-.6 1.4-1.7 2.5-3.1 3.1-2.2-.3-4.7.7-6.8-1.3v-2.6c1.2.2 1.9 1.3 3.1 1.6 1.1.4 2.4.3 3.3-.4.2-.1.4-.1.6-.2.1-.6.9-1 .4-1.9-.4-1-1.3-1.7-2.3-2-.6-.1-1.2-.3-1.8-.5-1.3-.7-2.7-1.3-3.3-3.2v-3.2c2.3-3.5 6.6-3.1 9.1-1.3v2.5c-.9-.6-1.8-1.1-2.8-1.4-1.2-.4-2.5-.1-3.5.7-.5.8-.5 2 .2 2.7 1.4.5 2.7 1.6 4.4 1.7.9.9 2.3 1.2 2.6 2.6l-.1 3.1zm65.7-44.2h2.8l4.6 12.4c1.8-4.1 3.1-8.3 4.8-12.4h2.6c-1.9 5.2-4 10.2-6 15.3h-2.9l-5.9-15.3zm-120.4 46.9v-20.8h2.6l.1.1s.1.1.1.2v18.6h8.7v1.9h-11.5zm24.1-46.7v2.2c-.9 0-1.8-.1-2.6-.4-.9-.4-2 .2-3 .7-.2.1-.4.1-.6.2v12.4h-2.4v-14c1-1.1 2.6-1.1 4-1.5 1.5-.5 3.2-.4 4.6.4zm38.6.9c2.6-1.2 5.2-2.2 8.2-1v2.4c-1-.3-2-.4-3-.4-1 .2-1.9.4-2.8.8v12.5h-2.4v-14.3zm53.1-1.1h2.2c.1.1.1.1.1.2v15.1h-2.3l-.1-.1v-15.2zm-57.1 31.6h2.4v15.3h-2.4v-15.3zm49.2 2.3c-.3 1-.9 1.9-1.7 2.6l-.9-2.6-.7 2.4-.6-.1c-.6-1.4.6-2.7.2-4 .1-.1.1-.2.2-.2.4 0 .9 0 1.3-.1l.7 2.6.7-2.5h1.4l.6 4.5-1.3-.6.1-2zm-47.4-5.1h-1.7l-1-1.7.6-1.4 2-.6 1 1.4v1.4l-.9.9zm57-31.5-1.9-.5c-.6-1.4-.6-1.4-.1-2.7l2-.6 1 1.4v1.4l-1 1zm-14.9 35.5v3h-1.1v-3l-1.1-.1-.2-.7c1.2-.1 2.3 0 3.5 0l.2.7-1.3.1z"/></svg>