<svg xmlns="http://www.w3.org/2000/svg" xml:space="preserve" viewBox="0 0 345.9 376.7"><path fill-opacity=".404" d="M104.5 97.7h137c20.8 0 37.6 16.9 37.6 37.6v137c0 20.8-16.9 37.6-37.6 37.6h-137c-20.8 0-37.6-16.9-37.6-37.6v-137c-.1-20.8 16.8-37.6 37.6-37.6z"/><path fill="#FFF" d="M94.6 82.6h155.2c.8 0 1.4.6 1.4 1.4v196.6c0 .8-.6 1.4-1.4 1.4H94.6c-.8 0-1.4-.6-1.4-1.4V84.1c0-.8.6-1.5 1.4-1.5z"/><radialGradient id="a" cx="580.851" cy="639.249" r="329.187" gradientTransform="rotate(64.106 818.04 -28.662)" gradientUnits="userSpaceOnUse"><stop offset="0" stop-color="#88007c"/><stop offset="1" stop-color="#300056"/></radialGradient><path fill="url(#a)" d="M109.7 66.8h126.4c17.5 0 31.6 14.1 31.6 31.6V267c0 17.5-14.1 31.6-31.6 31.6H109.7c-17.5 0-31.6-14.1-31.6-31.6V98.4c0-17.4 14.2-31.6 31.6-31.6zm0 21.1c-5.8 0-10.5 4.7-10.5 10.5v126.4c0 5.8 4.7 10.5 10.5 10.5h126.4c5.8 0 10.5-4.7 10.5-10.5V98.4c0-5.8-4.7-10.5-10.5-10.5H109.7zM99.2 267c0 5.8 4.7 10.5 10.5 10.5h126.4c5.8 0 10.5-4.7 10.5-10.5v-12.3c-3.3 1.1-6.8 1.8-10.5 1.8H109.7c-3.7 0-7.2-.6-10.5-1.8V267z"/><path fill-opacity=".251" d="M109.7 298.6c-17.5 0-31.6-14.1-31.6-31.6v-42.1c0 17.5 14.1 31.6 31.6 31.6h126.4c17.5 0 31.6-14.1 31.6-31.6V267c0 17.5-14.1 31.6-31.6 31.6H109.7z"/><path fill="#520065" d="M162.8 175.1v28.7h-20.5V119h33.9c6.5 0 12.3 1.2 17.2 3.6 5 2.4 8.9 5.8 11.6 10.2 2.7 4.4 4.1 9.4 4.1 15.1 0 8.3-2.9 14.9-8.9 19.9s-14.1 7.5-24.4 7.5l-13-.2zm.1-15.5h13.4c4 0 7-1 9.1-3s3.2-4.9 3.2-8.6c0-4.1-1.1-7.3-3.2-9.7-2.1-2.4-5-3.7-8.7-3.7H163l-.1 25z"/></svg>