<svg xmlns="http://www.w3.org/2000/svg" xml:space="preserve" viewBox="0 0 345.9 376.7"><path fill="#FFF" d="M109.7 66.8h126.4c17.5 0 31.6 14.1 31.6 31.6V267c0 17.5-14.1 31.6-31.6 31.6H109.7c-17.5 0-31.6-14.1-31.6-31.6V98.4c0-17.4 14.2-31.6 31.6-31.6zm0 21.1c-5.8 0-10.5 4.7-10.5 10.5v126.4c0 5.8 4.7 10.5 10.5 10.5h126.4c5.8 0 10.5-4.7 10.5-10.5V98.4c0-5.8-4.7-10.5-10.5-10.5H109.7zM99.2 267c0 5.8 4.7 10.5 10.5 10.5h126.4c5.8 0 10.5-4.7 10.5-10.5v-12.3c-3.3 1.1-6.8 1.8-10.5 1.8H109.7c-3.7 0-7.2-.6-10.5-1.8V267z"/><path fill="#FFF" d="M162.8 175.1v28.7h-20.5V119h33.9c6.5 0 12.3 1.2 17.2 3.6 5 2.4 8.9 5.8 11.6 10.2 2.7 4.4 4.1 9.4 4.1 15.1 0 8.3-2.9 14.9-8.9 19.9s-14.1 7.5-24.4 7.5l-13-.2zm.1-15.5h13.4c4 0 7-1 9.1-3s3.2-4.9 3.2-8.6c0-4.1-1.1-7.3-3.2-9.7-2.1-2.4-5-3.7-8.7-3.7H163l-.1 25z"/></svg>