<svg xmlns="http://www.w3.org/2000/svg" xml:space="preserve" viewBox="0 0 215 37.1"><title>Home Assistant</title><path fill="#720072" fill-rule="evenodd" d="M30.8 0H6.3C2.8 0 0 2.8 0 6.3v24.4C0 34.2 2.8 37 6.3 37h24.4c3.5 0 6.3-2.8 6.3-6.3V6.3c.1-3.5-2.7-6.3-6.2-6.3zm2.4 20.2c-.1.1-.3.2-.5.2h-2.6v10c0 .3-.3.6-.6.6H7.6c-.3 0-.6-.3-.6-.6v-10H4.4c-.4 0-.7-.3-.7-.7 0-.2.1-.4.2-.5L17.9 5c.3-.3.9-.3 1.2 0l7.3 7.4V11c0-.3.3-.6.6-.6h2.4c.3 0 .6.3.6.6v5l3.1 3.2c.4.3.3.7.1 1zm-8.9.1 1.6-1.6c.1.1.3.1.5.1.6 0 1.1-.5 1.1-1.1 0-.6-.5-1.1-1.1-1.1s-1.1.5-1.1 1.1c0 .2 0 .3.1.5l-1.1 1.1v-3.4c.4-.2.7-.6.7-1.1 0-.6-.5-1.1-1.1-1.1s-1.1.5-1.1 1.1c0 .5.3.9.7 1.1v3.4l-1.1-1.1c.1-.1.1-.3.1-.5 0-.6-.5-1.1-1.1-1.1-.6 0-1.1.5-1.1 1.1 0 .6.5 1.1 1.1 1.1.2 0 .3 0 .5-.1l1.6 1.6v1.6l-2 2v-1.5c.4-.2.7-.6.7-1.1 0-.6-.5-1.1-1.1-1.1s-1.1.6-1.1 1.2c0 .5.3.9.7 1.1v2.2l-1.9 1.9v-11l1.5-1.5c.1.1.3.1.5.1.6 0 1.1-.5 1.1-1.1 0-.6-.5-1.1-1.1-1.1s-1.1.5-1.1 1.1c0 .2 0 .3.1.5L18.4 15 17 13.6c.1-.1.1-.3.1-.5 0-.6-.5-1.1-1.1-1.1-.6 0-1.1.5-1.1 1.1 0 .6.5 1.1 1.1 1.1.2 0 .3 0 .5-.1l1.5 1.5v7.9l-2.7-2.7v-2.2c.4-.2.7-.6.7-1.1 0-.6-.5-1.1-1.1-1.1-.6 0-1.1.5-1.1 1.1 0 .5.3.9.7 1.1V20l-2.1-2.1v-2.1c.4-.2.7-.6.7-1.1 0-.6-.5-1.1-1.1-1.1-.6 0-1.1.5-1.1 1.1 0 .5.3.9.7 1.1v2.4l2.3 2.3h-1.3c-.2-.4-.6-.8-1.1-.8-.6 0-1.1.5-1.1 1.1 0 .6.5 1.1 1.1 1.1.5 0 .9-.3 1.1-.8H15l3.2 3.2v5.6l-1.7-1.7V26c.4-.2.7-.6.7-1.1 0-.6-.5-1.1-1.1-1.1-.6 0-1.1.5-1.1 1.1 0 .5.3.9.7 1.1v1.4l-2.5-2.5c.1-.1.1-.3.1-.5 0-.6-.5-1.1-1.1-1.1s-1.1.5-1.1 1.1.5 1.1 1.1 1.1c.2 0 .3 0 .5-.1l2.5 2.5h-1.3c-.2-.4-.6-.8-1.1-.8-.6 0-1.1.5-1.1 1.1s.5 1.1 1.1 1.1c.5 0 .9-.3 1.1-.8H16l2 2.5h1.1l2.2-2.2h2c.2.4.6.8 1.1.8.6 0 1.1-.5 1.1-1.1 0-.6-.5-1.1-1.1-1.1-.5 0-.9.3-1.1.8H21l-2 2v-2.5l2.4-2.4h3.9c.2.4.6.8 1.1.8.6 0 1.1-.5 1.1-1.1s-.5-1.1-1.1-1.1c-.5 0-.9.3-1.1.8h-3.1l2.2-2.2v-2.2zm2.1-3.1c.2 0 .4.2.4.5s-.2.5-.4.5-.4-.2-.4-.5.2-.5.4-.5zm-4.9.9c-.2 0-.4-.2-.4-.5s.2-.5.4-.5.4.2.4.5-.2.5-.4.5zm-.6-5.6c.2 0 .4.2.4.5s-.2.5-.4.5-.4-.2-.4-.5.2-.5.4-.5zm-4.7.9c-.2 0-.4-.2-.4-.5s.2-.5.4-.5.4.2.4.5-.2.5-.4.5zm-3.9 1.7c-.2 0-.4-.2-.4-.5s.2-.5.4-.5.4.2.4.5-.2.5-.4.5zm-.5 6.2c-.2 0-.4-.2-.4-.5s.2-.5.4-.5.4.2.4.5-.1.5-.4.5zm3.3-3.4c-.2 0-.4-.2-.4-.5s.2-.5.4-.5.4.2.4.5-.1.5-.4.5zm-2.9 7.2c-.2 0-.4-.2-.4-.5s.2-.5.4-.5.4.2.4.5-.2.5-.4.5zm.6 3.9c-.2 0-.4-.2-.4-.5s.2-.5.4-.5.4.2.4.5-.2.5-.4.5zm3.3-3.4c-.2 0-.4-.2-.4-.5s.2-.5.4-.5.4.2.4.5-.2.5-.4.5zm8.2 2.4c.2 0 .4.2.4.5 0 .2-.2.5-.4.5s-.4-.2-.4-.5.2-.5.4-.5zm-3.1-6.2c-.2 0-.4-.2-.4-.5s.2-.5.4-.5.4.2.4.5-.2.5-.4.5zm5.1 2.6c.2 0 .4.2.4.5s-.2.5-.4.5-.4-.2-.4-.5.1-.5.4-.5zm-2.4-9.2c-.2 0-.4-.2-.4-.5 0-.2.2-.5.4-.5s.4.2.4.5c.1.3-.1.5-.4.5zM51 9.9v7.3h9V9.9h2.3V27H60v-7.8h-9V27h-2.3V9.9H51zm14.4 8.3c.2-.8.6-1.5 1.1-2.1.5-.6 1.2-1.1 1.9-1.4 1.7-.7 3.5-.7 5.2 0 .7.3 1.4.8 1.9 1.4.5.6.9 1.3 1.1 2.1.3.8.4 1.7.4 2.5 0 .9-.1 1.7-.4 2.5-.2.8-.6 1.4-1.1 2-.5.6-1.2 1.1-1.9 1.4-1.7.7-3.5.7-5.2 0-.7-.3-1.4-.8-1.9-1.4-.5-.6-.9-1.3-1.1-2-.3-.8-.4-1.7-.4-2.5s.1-1.6.4-2.5zm2.1 4.6c.2.5.5 1 .8 1.5.3.4.8.7 1.2.9 1 .4 2 .4 3 0 .5-.2.9-.5 1.2-.9.4-.4.7-.9.8-1.5.4-1.3.4-2.7 0-4-.2-.5-.5-1-.8-1.5-.3-.4-.8-.7-1.2-.9-1-.4-2-.4-3 0-.5.2-.9.5-1.2.9-.4.4-.7.9-.8 1.5-.4 1.3-.4 2.7 0 4zm13.8-8.2v1.8c1.3-2 3.9-2.7 6.1-1.6.6.3 1.1.9 1.3 1.6.4-.7 1-1.2 1.6-1.6.7-.4 1.5-.6 2.2-.5.6 0 1.1.1 1.7.2.5.1.9.3 1.3.6s.7.7.8 1.1c.2.5.3 1.1.3 1.6V27h-2v-8.1c0-.4 0-.7-.1-1.1-.1-.3-.2-.6-.4-.9-.2-.3-.4-.5-.7-.6-.4-.2-.8-.2-1.2-.2-.9 0-1.7.3-2.4.9-.6.6-.9 1.4-.9 2.3V27h-2v-8.1c0-.4 0-.7-.1-1.1-.1-.3-.2-.6-.4-.9-.2-.3-.4-.4-.7-.6-.4-.1-.7-.2-1.1-.2-.5 0-1.1.1-1.5.4-.8.4-1.3 1.1-1.6 1.9-.1.3-.2.6-.2.9V27h-2V14.6h2zm27.3 11.6c-1 .7-2.2 1.1-3.5 1.1-.9 0-1.8-.1-2.6-.5-.7-.3-1.3-.8-1.8-1.3-.5-.6-.9-1.3-1.1-2.1-.3-.8-.4-1.7-.4-2.6 0-.9.1-1.8.4-2.6.3-.7.7-1.4 1.2-2 .5-.6 1.1-1 1.8-1.3.7-.3 1.5-.5 2.3-.5 1 0 1.9.2 2.7.7.7.4 1.3 1 1.7 1.7.4.7.7 1.5.9 2.3.2.8.2 1.6.2 2.4h-9.3c0 .5 0 1 .2 1.5.1.5.4.9.7 1.3.3.4.8.7 1.2.9.6.2 1.1.3 1.7.3.8 0 1.5-.2 2.1-.6.6-.4 1-1.1 1.1-1.8h2c.1 1.2-.6 2.3-1.5 3.1zm-.5-8c-.2-.4-.4-.8-.7-1.1-.3-.3-.7-.6-1.1-.7-.4-.2-.9-.3-1.4-.3-.5 0-1 .1-1.4.3-.4.2-.8.4-1.1.8-.3.3-.5.7-.7 1.1-.2.4-.3.9-.3 1.4h7.1c-.1-.6-.2-1-.4-1.5zm18.7-8.3 6.7 17.1H131l-1.9-5.1h-7.2L120 27h-2.3l6.7-17.1h2.4zm1.6 10-2.8-8-2.9 8h5.7zm8 4.3c.2.3.4.6.8.7.3.2.7.3 1.1.4.4.1.8.1 1.2.1.3 0 .7 0 1-.1.3 0 .7-.1 1-.3.3-.1.5-.3.7-.6.2-.3.3-.6.3-.9 0-.5-.2-.9-.6-1.2-.5-.3-1-.5-1.5-.7-.6-.2-1.2-.3-2-.5-.7-.1-1.3-.3-2-.6-.6-.2-1.1-.6-1.5-1-.4-.5-.6-1.2-.6-1.9 0-.6.1-1.1.4-1.6.3-.4.6-.8 1.1-1.1.5-.3 1-.5 1.5-.6.5-.1 1.1-.2 1.6-.2.7 0 1.3.1 1.9.2.6.1 1.1.3 1.6.6s.8.7 1.1 1.2c.3.6.5 1.2.5 1.9h-2c0-.4-.1-.7-.3-1-.2-.3-.4-.5-.7-.6-.3-.2-.6-.3-.9-.3-.3-.1-.7-.1-1-.1-.3 0-.6 0-.9.1-.3 0-.6.1-.8.3-.2.1-.5.3-.6.5-.2.2-.3.5-.2.8 0 .3.1.6.4.9l.9.6c.4.2.9.3 1.3.4.5.1 1 .2 1.4.3.5.1 1 .2 1.5.4.5.1.9.4 1.3.6.4.3.7.6.9 1 .2.5.4 1 .3 1.5 0 .7-.1 1.3-.5 1.9-.3.5-.7.9-1.2 1.2-.5.3-1.1.5-1.7.6-.6.1-1.2.2-1.9.2s-1.3-.1-2-.2c-.6-.1-1.1-.4-1.7-.7-.5-.3-.9-.8-1.1-1.3-.3-.6-.5-1.3-.5-2h2c.1.4.2.8.4 1.1zm11.9 0c.2.3.4.6.8.7.3.2.7.3 1.1.4.4.1.8.1 1.2.1.3 0 .7 0 1-.1.3 0 .7-.1 1-.3.3-.1.5-.3.7-.6.2-.3.3-.6.3-.9 0-.5-.2-.9-.6-1.2-.5-.3-1-.5-1.5-.7-.6-.2-1.2-.3-2-.5-.7-.1-1.3-.3-2-.6-.6-.2-1.1-.6-1.5-1-.4-.5-.6-1.2-.6-1.9 0-.6.1-1.1.4-1.6.3-.4.6-.8 1.1-1.1.5-.3 1-.5 1.5-.6.5-.1 1.1-.2 1.6-.2.7 0 1.3.1 1.9.2.6.1 1.1.3 1.6.6s.8.7 1.1 1.2c.3.6.5 1.2.5 1.9h-2c0-.4-.1-.7-.3-1-.2-.3-.4-.5-.7-.6-.3-.2-.6-.3-.9-.3-.3-.1-.7-.1-1-.1-.3 0-.6 0-.9.1-.3 0-.6.1-.8.3-.2.1-.5.3-.6.5-.2.2-.3.5-.2.8 0 .3.1.6.4.9l.9.6c.4.2.9.3 1.3.4.5.1 1 .2 1.4.3.5.1 1 .2 1.5.4.5.1.9.4 1.3.6.4.3.7.6.9 1 .2.5.4 1 .3 1.5 0 .7-.1 1.3-.5 1.9-.3.5-.7.9-1.2 1.2-.5.3-1.1.5-1.7.6-.6.1-1.2.2-1.9.2s-1.3-.1-2-.2c-.6-.1-1.1-.4-1.7-.7-.5-.3-.9-.8-1.1-1.3-.3-.6-.5-1.3-.5-2h2c.1.4.2.8.4 1.1zm10.6-11.8V9.9h2v2.5h-2zm2 2.2V27h-2V14.6h2zm4.7 9.6c.2.3.4.6.8.7.3.2.7.3 1.1.4.4.1.8.1 1.2.1.3 0 .7 0 1-.1.3 0 .7-.1 1-.3.3-.1.5-.3.7-.6.2-.3.3-.6.3-.9 0-.5-.2-.9-.6-1.2-.5-.3-1-.5-1.5-.7-.6-.2-1.2-.3-2-.5-.7-.1-1.3-.3-2-.6-.6-.2-1.1-.6-1.5-1-.4-.5-.6-1.2-.6-1.9 0-.6.1-1.1.4-1.6.3-.4.6-.8 1.1-1.1.5-.3 1-.5 1.5-.6.5-.1 1.1-.2 1.6-.2.7 0 1.3.1 1.9.2.6.1 1.1.3 1.6.6s.8.7 1.1 1.2c.3.6.5 1.2.5 1.9h-2c0-.4-.1-.7-.3-1-.2-.3-.4-.5-.7-.6-.3-.2-.6-.3-.9-.3-.3-.1-.7-.1-1-.1-.3 0-.6 0-.9.1-.3 0-.6.1-.8.3-.2.1-.5.3-.6.5-.2.2-.3.5-.2.8 0 .3.1.6.4.9l.9.6c.4.2.9.3 1.3.4.5.1 1 .2 1.4.3.5.1 1 .2 1.5.4.5.1.9.4 1.3.6.4.3.7.6.9 1 .2.5.4 1 .3 1.5 0 .7-.1 1.3-.5 1.9-.3.5-.7.9-1.2 1.2-.5.3-1.1.5-1.7.6-.6.1-1.2.2-1.9.2s-1.3-.1-2-.2c-.6-.1-1.1-.4-1.7-.7-.5-.3-.9-.8-1.1-1.3-.3-.6-.5-1.3-.5-2h2c.1.4.2.8.4 1.1zm15.7-9.6v1.8h-2.5v7.7c0 .2 0 .4.1.6 0 .1.1.3.2.3.1.1.3.1.5.2H181.3V27h-1.6c-.5 0-.9 0-1.4-.1-.3-.1-.6-.2-.9-.4-.2-.2-.4-.5-.5-.8-.1-.5-.2-.9-.2-1.4v-7.9h-2.1v-1.8h2.1v-3.7h2v3.7h2.6zm13.2 12.3c-.5.2-1 .3-1.5.3s-.9-.1-1.3-.4c-.3-.4-.5-.9-.5-1.4-.5.6-1.2 1.1-2 1.4-1.3.5-2.7.6-4 .3-.5-.1-.9-.3-1.3-.6s-.7-.6-.9-1.1c-.2-.5-.3-1-.3-1.6 0-.6.1-1.2.4-1.7.2-.4.5-.8.9-1.1.4-.3.9-.5 1.3-.6.5-.1 1-.3 1.5-.4.6-.1 1.1-.2 1.6-.3.4 0 .9-.1 1.3-.2.3-.1.6-.2.9-.5.2-.2.4-.5.3-.9 0-.4-.1-.7-.3-1.1-.2-.3-.4-.5-.6-.6l-.9-.3c-.3 0-.6-.1-1-.1-.7 0-1.5.1-2.2.5-.6.4-1 1.1-.9 1.9h-2c0-.7.2-1.3.5-1.9.3-.5.7-1 1.1-1.3.5-.3 1.1-.6 1.6-.7.6-.1 1.3-.2 2-.2.6 0 1.1 0 1.7.1.5.1 1 .2 1.5.5.4.2.8.6 1.1 1 .3.5.4 1.1.4 1.7V24c0 .4 0 .7.1 1 .1.2.2.3.6.3.2 0 .4 0 .6-.1l.3 1.7zm-3.3-6.3c-.3.2-.6.4-1 .4-.4.1-.8.2-1.3.2s-.9.1-1.4.2l-1.2.3c-.4.1-.7.4-.9.7-.2.3-.4.8-.3 1.2 0 .3.1.6.2.8.1.2.3.4.5.6.2.1.5.3.8.3.3.1.6.1.9.1.6 0 1.2-.1 1.7-.3.4-.2.8-.4 1.2-.7.3-.3.5-.6.7-.9.1-.3.2-.6.2-.9l-.1-2zm7.1-6v2c.8-1.5 2.4-2.3 4-2.2.7 0 1.4.1 2 .3.5.2 1 .5 1.3.9.3.4.6.9.7 1.4.1.6.2 1.2.2 1.8V27h-2v-8.4c0-.7-.2-1.3-.7-1.8-.5-.5-1.2-.7-1.8-.7-.6 0-1.1.1-1.6.3-.4.2-.8.5-1.1.8-.3.4-.5.8-.7 1.2-.2.5-.2 1-.2 1.5v7h-2V14.6h1.9zm16.7 0v1.8h-2.5v7.7c0 .2 0 .4.1.6 0 .1.1.3.2.3.1.1.3.1.5.2H215V27h-1.6c-.5 0-.9 0-1.4-.1-.3-.1-.6-.2-.9-.4-.2-.2-.4-.5-.5-.8-.1-.5-.2-.9-.2-1.4v-7.9h-2.1v-1.8h2.1v-3.7h2v3.7h2.6z" clip-rule="evenodd"/></svg>