<svg xmlns="http://www.w3.org/2000/svg" xml:space="preserve" viewBox="0 0 215 63.5">
  <title>Nabu Casa</title>
  <path fill="hsl(var(--bg-card-color))"
    d="M89.3 30.7v-.9C89.3 13.3 76 0 59.5 0 49.2 0 39.7 5.3 34.3 14 21 9.2 6.4 16 1.5 29.2s2 27.9 15.2 32.7c2.8 1 5.8 1.6 8.8 1.5h41.1V46.9h6.9v16.6h13.4c9.1 0 16.5-7.4 16.5-16.5.1-8.2-6-15.2-14.1-16.3z" />
  <path fill="currentColor"
    d="M86.8 37.5h-7v-13h1.8c.9 0 1.6-.7 1.6-1.6s-.7-1.6-1.6-1.6H28.2c-.9 0-1.6.7-1.6 1.6s.7 1.6 1.6 1.6H30v13h-7c-.9 0-1.6.7-1.6 1.6 0 .9.7 1.6 1.6 1.6h1.8v22.8h41.9V46.9h6.9v16.6H85V40.7h1.8c.9 0 1.6-.7 1.6-1.6 0-.9-.8-1.6-1.6-1.6z" />
  <path fill="#FFF"
    d="M30 46.9h17.3v6.9H30v-6.9zm26.9-19.3h6.9v6.9h-6.9v-6.9zm-26.9 0h24v6.9H30v-6.9zm36.6 0h6.9v6.9h-6.9v-6.9zm0 19.3h6.9v16.6h-6.9V46.9z" />
  <path fill="currentColor"
    d="M138.5 25.7H135l-6.8-11.2v11.2h-3.5V8.6h3.5l6.9 11.2V8.6h3.5l-.1 17.1zm22.5-3.6h-6.2l-1.2 3.5h-3.7l6.4-17.1h3.3l6.4 17.1h-3.8l-1.2-3.5zm-5.2-2.8h4.3l-2.1-6.4-2.2 6.4zm21.3 6.4V8.6h6c.9 0 1.8.1 2.7.3.7.2 1.4.5 2 .9.5.4.9.9 1.2 1.5.3.7.4 1.4.4 2.1 0 .4 0 .8-.1 1.1-.2.7-.6 1.4-1.2 1.9-.3.3-.7.5-1 .6.5.1.9.3 1.3.6.7.5 1.2 1.2 1.4 2 .1.4.2.8.2 1.2.1 1.4-.5 2.8-1.6 3.8-1.3.9-2.9 1.4-4.5 1.3l-6.8-.2zm3.5-10h2.6c.7 0 1.4-.2 2-.6.4-.4.7-1 .7-1.6.1-.6-.2-1.3-.7-1.7-.6-.4-1.4-.6-2.1-.5h-2.5v4.4zm0 2.5v4.6h3c.4 0 .8 0 1.2-.2.3-.1.6-.3.8-.5.2-.2.4-.4.5-.7.1-.3.2-.6.2-.9 0-.3 0-.7-.1-1-.1-.3-.2-.5-.4-.7-.2-.2-.5-.4-.8-.5-.4-.1-.8-.2-1.1-.2l-3.3.1zm34.3-9.6v11.3c0 .9-.1 1.8-.5 2.6-.3.7-.8 1.4-1.4 1.9-.6.5-1.3.9-2 1.1-1.7.5-3.5.5-5.2 0-.8-.2-1.5-.6-2.1-1.1-.6-.5-1-1.2-1.4-1.9-.3-.8-.5-1.7-.5-2.6V8.6h3.5v11.3c-.1.9.2 1.8.8 2.5 1.3 1 3.1 1 4.4 0 .6-.7.9-1.6.8-2.5V8.6h3.6zM138.4 49c-.1.8-.3 1.6-.6 2.4-.3.7-.8 1.3-1.4 1.9-.6.5-1.3 1-2.1 1.2-.9.3-1.9.5-2.8.4-1 0-2-.2-2.9-.6-.9-.4-1.6-.9-2.2-1.6-.6-.8-1.1-1.6-1.4-2.6-.3-1.1-.5-2.2-.5-3.4v-1.1c0-1.2.2-2.3.5-3.4.3-.9.8-1.8 1.4-2.6.6-.7 1.4-1.3 2.2-1.6.9-.4 1.9-.6 2.9-.6s1.9.1 2.8.5c.8.3 1.5.7 2.1 1.3.6.5 1 1.2 1.3 1.9.3.8.5 1.6.6 2.4H135c0-.5-.1-.9-.3-1.3-.1-.4-.3-.7-.6-1-.3-.3-.6-.5-1-.6-.5-.1-1-.2-1.5-.2-1.1-.1-2.1.4-2.7 1.3-.7 1.2-1 2.6-.9 4v1.1c0 .8.1 1.6.2 2.3.1.6.3 1.2.6 1.7.3.4.6.8 1.1 1 .5.2 1 .4 1.6.3.5 0 1-.1 1.4-.2.4-.1.7-.3 1-.6.3-.3.5-.6.6-1 .2-.4.3-.9.3-1.3h3.6zm21.6 2.2h-6.1l-1.2 3.5H149l6.3-17h3.3l6.4 17.1h-3.7l-1.3-3.6zm-5.3-2.9h4.3l-2.1-6.4-2.2 6.4zm30.2 1.9c0-.3 0-.6-.1-.8-.1-.3-.3-.5-.5-.7-.3-.2-.6-.4-1-.6-.5-.2-1.1-.4-1.7-.6-.8-.2-1.5-.5-2.2-.8-.7-.3-1.3-.7-1.8-1.1-.5-.4-.9-.9-1.2-1.5-.3-.6-.5-1.3-.5-1.9 0-.7.2-1.3.5-1.9.3-.6.8-1.1 1.3-1.5.6-.4 1.3-.8 2-1 .8-.2 1.7-.4 2.5-.3.9 0 1.7.1 2.6.4.7.2 1.4.6 2 1.1.5.5 1 1 1.3 1.7.3.7.5 1.4.5 2.1h-3.5c0-.3-.1-.7-.2-1-.1-.3-.3-.6-.5-.8-.3-.2-.6-.4-.9-.5-.4-.1-.8-.2-1.2-.2-.4 0-.8 0-1.2.2-.3.1-.6.2-.8.4-.2.2-.4.4-.5.6-.1.2-.2.5-.2.8 0 .6.3 1.1.9 1.4.8.5 1.6.8 2.5 1.1.8.3 1.7.6 2.5 1 .6.3 1.2.7 1.8 1.2.5.4.8.9 1.1 1.5.3.6.4 1.2.4 1.9s-.1 1.4-.4 2c-.3.6-.7 1.1-1.2 1.5-.6.4-1.3.7-2 .9-.8.2-1.7.3-2.5.3-.6 0-1.1 0-1.7-.1-.6-.1-1.1-.2-1.6-.5-.5-.2-1-.5-1.4-.8-.4-.3-.8-.7-1.1-1.1-.3-.4-.6-.9-.8-1.4-.2-.6-.3-1.2-.3-1.8h3.5c0 .4.1.9.2 1.3.2.3.4.6.7.9.3.2.7.4 1.1.5.5.1.9.2 1.4.2.4 0 .8 0 1.2-.1.3-.1.6-.2.8-.4.2-.2.4-.4.5-.6-.3-.5-.3-.7-.3-1zm25.2 1h-6.2l-1.2 3.5H199l6.3-17h3.3l6.4 17.1h-3.7l-1.2-3.6zm-5.3-2.9h4.3l-2.1-6.4-2.2 6.4z" />
</svg>