<svg xmlns="http://www.w3.org/2000/svg" xml:space="preserve" viewBox="0 0 215 43.5">
  <title>OnTask</title>
  <path fill="currentColor"
    d="M192.4 23.7c-.4.4-1 .6-1.6.6-.6 0-1.1-.2-1.5-.6-.5-.5-.7-1.1-.6-1.7V8.4c0-.6.2-1.1.6-1.6.4-.4 1-.7 1.5-.6 1.2 0 2.2 1 2.2 2.2v9.2L209.6.7c.4-.5 1-.8 1.6-.8.5 0 1 .2 1.4.5.4.3.6.8.6 1.4 0 .6-.2 1.1-.5 1.5l-20.3 20.4zM28.3 7.5c2.7 1.6 5 4 6.5 6.8 1.6 3.1 2.4 6.5 2.4 9.9 0 3.5-.8 6.9-2.4 9.9-1.5 2.9-3.8 5.3-6.5 6.9-2.9 1.7-6.3 2.5-9.7 2.5-3.4.1-6.8-.8-9.7-2.5-2.8-1.6-5-4-6.5-6.8C.8 31.1 0 27.7 0 24.2s.8-6.9 2.4-10C3.9 11.4 6.1 9 8.9 7.4c3-1.7 6.3-2.5 9.7-2.5 3.4 0 6.7.9 9.7 2.6zM25.9 37c2.1-1.3 3.7-3.1 4.8-5.2 1.1-2.3 1.7-4.9 1.6-7.5 0-2.6-.5-5.2-1.6-7.5-1-2.2-2.7-4-4.8-5.2-2.2-1.3-4.8-2-7.4-1.9-2.6-.1-5.2.6-7.4 1.9-2 1.3-3.7 3.1-4.7 5.2-1.1 2.3-1.7 4.9-1.6 7.5 0 2.6.5 5.2 1.6 7.5 1 2.2 2.7 4 4.7 5.2 2.2 1.3 4.8 2 7.4 1.9 2.7.1 5.2-.6 7.4-1.9zM76.7 6c.5.5.7 1.1.7 1.7v32c0 .9-.4 1.8-1 2.5s-1.5 1-2.5 1h-.6c-.6 0-1.1-.2-1.6-.4-.5-.3-.9-.6-1.2-1.1L50 11.8v29c0 .6-.2 1.3-.7 1.7-.5.4-1.1.7-1.7.7-.6 0-1.2-.2-1.7-.7-.4-.5-.7-1.1-.7-1.7v-32c0-.9.3-1.8 1-2.5.6-.7 1.5-1.1 2.4-1.1h.7c1.2 0 2.3.6 2.9 1.6l20.4 29.8v-29c0-.6.2-1.3.7-1.7.4-.5 1-.7 1.7-.7.6.1 1.3.3 1.7.8zm36.8.2c.9.9.9 2.4 0 3.2-.4.4-1 .6-1.6.6h-10.8v30.7c0 .6-.2 1.3-.7 1.7-.5.4-1.1.7-1.7.7-.6 0-1.2-.2-1.7-.7-.4-.5-.7-1.1-.7-1.7V10.1H85.5c-1.2 0-2.2-.9-2.2-2.1v-.1c0-.6.2-1.2.6-1.6.4-.4 1-.7 1.6-.7h26.4c.6-.1 1.2.2 1.6.6zm33.7 34.6c0 .6-.2 1.2-.7 1.7-.5.5-1.1.7-1.7.7-.5 0-.9-.1-1.3-.4-.4-.3-.7-.7-.9-1.1l-3.4-8.3h-18l-3.4 8.3c-.2.4-.5.8-.9 1.1-.4.3-.9.4-1.3.4-.6 0-1.3-.2-1.7-.7-.4-.5-.7-1.1-.7-1.7 0-.4.1-.7.3-1.1L127 7.4c.3-.6.7-1.2 1.2-1.6.5-.4 1.2-.6 1.9-.6h.5c.7 0 1.3.2 1.9.6.5.4.9 1 1.2 1.6l13.5 32.3c-.1.4 0 .8 0 1.1zm-17.1-29.3-7.2 17.4h14.3l-7.1-17.4zm27.5 7.3c.9.8 2 1.5 3.1 1.9 1.3.5 2.9.9 5.1 1.4 2.3.5 4.6 1.2 6.8 2 1.7.7 3.2 1.8 4.4 3.2 1.3 1.6 1.9 3.7 1.8 5.8 0 1.9-.6 3.8-1.7 5.4-1.2 1.7-2.9 3-4.8 3.7-2.2.9-4.7 1.4-7.1 1.3-4.3 0-8.6-.9-12.6-2.6-.4-.2-.8-.5-1-.9-.3-.4-.4-.8-.4-1.3 0-.6.2-1.2.6-1.6.4-.4 1-.7 1.6-.7.3 0 .7.1 1 .2 3.3 1.5 6.8 2.2 10.4 2.2 6.2 0 9.3-2 9.3-6.2 0-1-.4-2-1.2-2.7-.9-.8-1.9-1.3-2.9-1.7-1.2-.4-2.8-.9-5-1.5-2.4-.6-4.7-1.3-6.9-2.2-1.7-.7-3.3-1.7-4.6-3.1-1.3-1.6-2-3.6-1.9-5.6 0-2 .5-3.9 1.6-5.6 1.1-1.8 2.8-3.1 4.7-4 2.3-1 4.9-1.5 7.4-1.5 3.6 0 7.1.6 10.5 1.8.9.3 1.6 1.2 1.5 2.2 0 .6-.2 1.1-.6 1.5-.4.5-.9.7-1.5.7-.3 0-.6-.1-.9-.2-2.7-1-5.6-1.4-8.5-1.4-2.4-.1-4.7.4-6.8 1.6-1.6.9-2.6 2.6-2.6 4.5 0 1.4.4 2.6 1.2 3.4zm56.8 20.5-13.9-17.7-3.2 3.3 13.5 17.4c.4.6 1.1 1 1.9 1 .6 0 1.2-.2 1.7-.7.4-.4.7-1 .6-1.7 0-.6-.2-1.2-.6-1.6z" />
</svg>