<?xml version="1.0" encoding="utf-8"?>
<!DOCTYPE svg PUBLIC "-//W3C//DTD SVG 1.1//EN" "http://www.w3.org/Graphics/SVG/1.1/DTD/svg11.dtd">
<svg xmlns="http://www.w3.org/2000/svg" xmlns:xlink="http://www.w3.org/1999/xlink" version="1.1" baseProfile="full" width="98" height="98" viewBox="0 0 98.00 98.00" enable-background="new 0 0 98.00 98.00" xml:space="preserve">
<path fill="#5389A4" fill-opacity="0.502" d="M1,1h97v97H1V1z M2,2v23h23V2H2z M97,25V2H74v23H97z M50,2v23h23V2H50z M26,2v23h23V2
	H26z M2,97h23V74H2V97z M97,97V74H74v23H97z M50,74v23h23V74H50z M26,74v23h23V74H26z M97,50H74v23h23V50z M50,50v23h23V50H50z
	 M26,50v23h23V50H26z M2,50v23h23V50H2z M97,26H74v23h23V26z M50,26v23h23V26H50z M26,26v23h23V26H26z M2,26v23h23V26H2z"/>
<path fill="#5389A4" fill-opacity="0.2039" d="M2,5h3V2h1v3h3V2h1v3h3V2h1v3h3V2h1v3h3V2h1v3h7V2h1v3h3V2h1v3h3V2h1v3h3V2h1v3h3V2h1
	v3h7V2h1v3h3V2h1v3h3V2h1v3h3V2h1v3h3V2h1v3h7V2h1v3h3V2h1v3h3V2h1v3h3V2h1v3h3V2h1v3h3v1h-3v3h3v1h-3v3h3v1h-3v3h3v1h-3v3h3v1h-3v7
	h3v1h-3v3h3v1h-3v3h3v1h-3v3h3v1h-3v3h3v1h-3v7h3v1h-3v3h3v1h-3v3h3v1h-3v3h3v1h-3v3h3v1h-3v7h3v1h-3v3h3v1h-3v3h3v1h-3v3h3v1h-3v3
	h3v1h-3v3h-1v-3h-3v3h-1v-3h-3v3h-1v-3h-3v3h-1v-3h-3v3h-1v-3h-7v3h-1v-3h-3v3h-1v-3h-3v3h-1v-3h-3v3h-1v-3h-3v3h-1v-3h-7v3h-1v-3
	h-3v3h-1v-3h-3v3h-1v-3h-3v3h-1v-3h-3v3h-1v-3h-7v3h-1v-3h-3v3h-1v-3h-3v3h-1v-3h-3v3H9v-3H6v3H5v-3H2v-1h3v-3H2v-1h3v-3H2v-1h3v-3
	H2v-1h3v-3H2v-1h3v-7H2v-1h3v-3H2v-1h3v-3H2v-1h3v-3H2v-1h3v-3H2v-1h3v-7H2v-1h3v-3H2v-1h3v-3H2v-1h3v-3H2v-1h3v-3H2v-1h3v-7H2v-1h3
	v-3H2v-1h3v-3H2v-1h3v-3H2V9h3V6H2V5z M90,6v3h3V6H90z M90,10v3h3v-3H90z M90,14v3h3v-3H90z M90,18v3h3v-3H90z M90,22v7h3v-7H90z
	 M90,30v3h3v-3H90z M90,34v3h3v-3H90z M90,38v3h3v-3H90z M90,42v3h3v-3H90z M90,46v7h3v-7H90z M90,54v3h3v-3H90z M90,58v3h3v-3H90z
	 M90,62v3h3v-3H90z M90,66v3h3v-3H90z M90,70v7h3v-7H90z M90,78v3h3v-3H90z M90,82v3h3v-3H90z M90,86v3h3v-3H90z M90,90v3h3v-3H90z
	 M86,6v3h3V6H86z M86,10v3h3v-3H86z M86,14v3h3v-3H86z M86,18v3h3v-3H86z M86,22v7h3v-7H86z M86,30v3h3v-3H86z M86,34v3h3v-3H86z
	 M86,38v3h3v-3H86z M86,42v3h3v-3H86z M86,46v7h3v-7H86z M86,54v3h3v-3H86z M86,58v3h3v-3H86z M86,62v3h3v-3H86z M86,66v3h3v-3H86z
	 M86,70v7h3v-7H86z M86,78v3h3v-3H86z M86,82v3h3v-3H86z M86,86v3h3v-3H86z M86,90v3h3v-3H86z M82,6v3h3V6H82z M82,10v3h3v-3H82z
	 M82,14v3h3v-3H82z M82,18v3h3v-3H82z M82,22v7h3v-7H82z M82,30v3h3v-3H82z M82,34v3h3v-3H82z M82,38v3h3v-3H82z M82,42v3h3v-3H82z
	 M82,46v7h3v-7H82z M82,54v3h3v-3H82z M82,58v3h3v-3H82z M82,62v3h3v-3H82z M82,66v3h3v-3H82z M82,70v7h3v-7H82z M82,78v3h3v-3H82z
	 M82,82v3h3v-3H82z M82,86v3h3v-3H82z M82,90v3h3v-3H82z M78,6v3h3V6H78z M78,10v3h3v-3H78z M78,14v3h3v-3H78z M78,18v3h3v-3H78z
	 M78,22v7h3v-7H78z M78,30v3h3v-3H78z M78,34v3h3v-3H78z M78,38v3h3v-3H78z M78,42v3h3v-3H78z M78,46v7h3v-7H78z M78,54v3h3v-3H78z
	 M78,58v3h3v-3H78z M78,62v3h3v-3H78z M78,66v3h3v-3H78z M78,70v7h3v-7H78z M78,78v3h3v-3H78z M78,82v3h3v-3H78z M78,86v3h3v-3H78z
	 M78,90v3h3v-3H78z M70,6v3h7V6H70z M70,10v3h7v-3H70z M70,14v3h7v-3H70z M70,18v3h7v-3H70z M70,22v7h7v-7H70z M70,30v3h7v-3H70z
	 M70,34v3h7v-3H70z M70,38v3h7v-3H70z M70,42v3h7v-3H70z M70,46v7h7v-7H70z M70,54v3h7v-3H70z M70,58v3h7v-3H70z M70,62v3h7v-3H70z
	 M70,66v3h7v-3H70z M70,70v7h7v-7H70z M70,78v3h7v-3H70z M70,82v3h7v-3H70z M70,86v3h7v-3H70z M70,90v3h7v-3H70z M66,6v3h3V6H66z
	 M66,10v3h3v-3H66z M66,14v3h3v-3H66z M66,18v3h3v-3H66z M66,22v7h3v-7H66z M66,30v3h3v-3H66z M66,34v3h3v-3H66z M66,38v3h3v-3H66z
	 M66,42v3h3v-3H66z M66,46v7h3v-7H66z M66,54v3h3v-3H66z M66,58v3h3v-3H66z M66,62v3h3v-3H66z M66,66v3h3v-3H66z M66,70v7h3v-7H66z
	 M66,78v3h3v-3H66z M66,82v3h3v-3H66z M66,86v3h3v-3H66z M66,90v3h3v-3H66z M62,6v3h3V6H62z M62,10v3h3v-3H62z M62,14v3h3v-3H62z
	 M62,18v3h3v-3H62z M62,22v7h3v-7H62z M62,30v3h3v-3H62z M62,34v3h3v-3H62z M62,38v3h3v-3H62z M62,42v3h3v-3H62z M62,46v7h3v-7H62z
	 M62,54v3h3v-3H62z M62,58v3h3v-3H62z M62,62v3h3v-3H62z M62,66v3h3v-3H62z M62,70v7h3v-7H62z M62,78v3h3v-3H62z M62,82v3h3v-3H62z
	 M62,86v3h3v-3H62z M62,90v3h3v-3H62z M58,6v3h3V6H58z M58,10v3h3v-3H58z M58,14v3h3v-3H58z M58,18v3h3v-3H58z M58,22v7h3v-7H58z
	 M58,30v3h3v-3H58z M58,34v3h3v-3H58z M58,38v3h3v-3H58z M58,42v3h3v-3H58z M58,46v7h3v-7H58z M58,54v3h3v-3H58z M58,58v3h3v-3H58z
	 M58,62v3h3v-3H58z M58,66v3h3v-3H58z M58,70v7h3v-7H58z M58,78v3h3v-3H58z M58,82v3h3v-3H58z M58,86v3h3v-3H58z M58,90v3h3v-3H58z
	 M54,6v3h3V6H54z M54,10v3h3v-3H54z M54,14v3h3v-3H54z M54,18v3h3v-3H54z M54,22v7h3v-7H54z M54,30v3h3v-3H54z M54,34v3h3v-3H54z
	 M54,38v3h3v-3H54z M54,42v3h3v-3H54z M54,46v7h3v-7H54z M54,54v3h3v-3H54z M54,58v3h3v-3H54z M54,62v3h3v-3H54z M54,66v3h3v-3H54z
	 M54,70v7h3v-7H54z M54,78v3h3v-3H54z M54,82v3h3v-3H54z M54,86v3h3v-3H54z M54,90v3h3v-3H54z M46,6v3h7V6H46z M46,10v3h7v-3H46z
	 M46,14v3h7v-3H46z M46,18v3h7v-3H46z M46,22v7h7v-7H46z M46,30v3h7v-3H46z M46,34v3h7v-3H46z M46,38v3h7v-3H46z M46,42v3h7v-3H46z
	 M46,46v7h7v-7H46z M46,54v3h7v-3H46z M46,58v3h7v-3H46z M46,62v3h7v-3H46z M46,66v3h7v-3H46z M46,70v7h7v-7H46z M46,78v3h7v-3H46z
	 M46,82v3h7v-3H46z M46,86v3h7v-3H46z M46,90v3h7v-3H46z M42,6v3h3V6H42z M42,10v3h3v-3H42z M42,14v3h3v-3H42z M42,18v3h3v-3H42z
	 M42,22v7h3v-7H42z M42,30v3h3v-3H42z M42,34v3h3v-3H42z M42,38v3h3v-3H42z M42,42v3h3v-3H42z M42,46v7h3v-7H42z M42,54v3h3v-3H42z
	 M42,58v3h3v-3H42z M42,62v3h3v-3H42z M42,66v3h3v-3H42z M42,70v7h3v-7H42z M42,78v3h3v-3H42z M42,82v3h3v-3H42z M42,86v3h3v-3H42z
	 M42,90v3h3v-3H42z M38,6v3h3V6H38z M38,10v3h3v-3H38z M38,14v3h3v-3H38z M38,18v3h3v-3H38z M38,22v7h3v-7H38z M38,30v3h3v-3H38z
	 M38,34v3h3v-3H38z M38,38v3h3v-3H38z M38,42v3h3v-3H38z M38,46v7h3v-7H38z M38,54v3h3v-3H38z M38,58v3h3v-3H38z M38,62v3h3v-3H38z
	 M38,66v3h3v-3H38z M38,70v7h3v-7H38z M38,78v3h3v-3H38z M38,82v3h3v-3H38z M38,86v3h3v-3H38z M38,90v3h3v-3H38z M34,6v3h3V6H34z
	 M34,10v3h3v-3H34z M34,14v3h3v-3H34z M34,18v3h3v-3H34z M34,22v7h3v-7H34z M34,30v3h3v-3H34z M34,34v3h3v-3H34z M34,38v3h3v-3H34z
	 M34,42v3h3v-3H34z M34,46v7h3v-7H34z M34,54v3h3v-3H34z M34,58v3h3v-3H34z M34,62v3h3v-3H34z M34,66v3h3v-3H34z M34,70v7h3v-7H34z
	 M34,78v3h3v-3H34z M34,82v3h3v-3H34z M34,86v3h3v-3H34z M34,90v3h3v-3H34z M30,6v3h3V6H30z M30,10v3h3v-3H30z M30,14v3h3v-3H30z
	 M30,18v3h3v-3H30z M30,22v7h3v-7H30z M30,30v3h3v-3H30z M30,34v3h3v-3H30z M30,38v3h3v-3H30z M30,42v3h3v-3H30z M30,46v7h3v-7H30z
	 M30,54v3h3v-3H30z M30,58v3h3v-3H30z M30,62v3h3v-3H30z M30,66v3h3v-3H30z M30,70v7h3v-7H30z M30,78v3h3v-3H30z M30,82v3h3v-3H30z
	 M30,86v3h3v-3H30z M30,90v3h3v-3H30z M22,6v3h7V6H22z M22,10v3h7v-3H22z M22,14v3h7v-3H22z M22,18v3h7v-3H22z M22,22v7h7v-7H22z
	 M22,30v3h7v-3H22z M22,34v3h7v-3H22z M22,38v3h7v-3H22z M22,42v3h7v-3H22z M22,46v7h7v-7H22z M22,54v3h7v-3H22z M22,58v3h7v-3H22z
	 M22,62v3h7v-3H22z M22,66v3h7v-3H22z M22,70v7h7v-7H22z M22,78v3h7v-3H22z M22,82v3h7v-3H22z M22,86v3h7v-3H22z M22,90v3h7v-3H22z
	 M18,6v3h3V6H18z M18,10v3h3v-3H18z M18,14v3h3v-3H18z M18,18v3h3v-3H18z M18,22v7h3v-7H18z M18,30v3h3v-3H18z M18,34v3h3v-3H18z
	 M18,38v3h3v-3H18z M18,42v3h3v-3H18z M18,46v7h3v-7H18z M18,54v3h3v-3H18z M18,58v3h3v-3H18z M18,62v3h3v-3H18z M18,66v3h3v-3H18z
	 M18,70v7h3v-7H18z M18,78v3h3v-3H18z M18,82v3h3v-3H18z M18,86v3h3v-3H18z M18,90v3h3v-3H18z M14,6v3h3V6H14z M14,10v3h3v-3H14z
	 M14,14v3h3v-3H14z M14,18v3h3v-3H14z M14,22v7h3v-7H14z M14,30v3h3v-3H14z M14,34v3h3v-3H14z M14,38v3h3v-3H14z M14,42v3h3v-3H14z
	 M14,46v7h3v-7H14z M14,54v3h3v-3H14z M14,58v3h3v-3H14z M14,62v3h3v-3H14z M14,66v3h3v-3H14z M14,70v7h3v-7H14z M14,78v3h3v-3H14z
	 M14,82v3h3v-3H14z M14,86v3h3v-3H14z M14,90v3h3v-3H14z M10,6v3h3V6H10z M10,10v3h3v-3H10z M10,14v3h3v-3H10z M10,18v3h3v-3H10z
	 M10,22v7h3v-7H10z M10,30v3h3v-3H10z M10,34v3h3v-3H10z M10,38v3h3v-3H10z M10,42v3h3v-3H10z M10,46v7h3v-7H10z M10,54v3h3v-3H10z
	 M10,58v3h3v-3H10z M10,62v3h3v-3H10z M10,66v3h3v-3H10z M10,70v7h3v-7H10z M10,78v3h3v-3H10z M10,82v3h3v-3H10z M10,86v3h3v-3H10z
	 M10,90v3h3v-3H10z M6,6v3h3V6H6z M6,10v3h3v-3H6z M6,14v3h3v-3H6z M6,18v3h3v-3H6z M6,22v7h3v-7H6z M6,30v3h3v-3H6z M6,34v3h3v-3H6
	z M6,38v3h3v-3H6z M6,42v3h3v-3H6z M6,46v7h3v-7H6z M6,54v3h3v-3H6z M6,58v3h3v-3H6z M6,62v3h3v-3H6z M6,66v3h3v-3H6z M6,70v7h3v-7
	H6z M6,78v3h3v-3H6z M6,82v3h3v-3H6z M6,86v3h3v-3H6z M6,90v3h3v-3H6z"/>
<path fill="#B440AE" fill-opacity="0.502" stroke="#B440AE" d="M82,10H18c-4.4,0-8,3.56-8,8v48c0,4.418,3.582,8,8,8h16v12
	c0,2.209,1.791,4,4,4h2c1,0,2-0.4,2.8-1.16L57.6,74H82c4.418,0,8-3.582,8-8V18C90,13.582,86.418,10,82,10z M82,66H54.32L42,78.32V66
	H18V18h64V66z"/>
<path d="M66,58H34v-4c0-5.32,10.68-8,16-8s16,2.68,16,8V58z"/>
<circle cx="50" cy="34" r="8"/>
</svg>
