<?xml version="1.0" encoding="utf-8"?>
<!-- Generator: Adobe Illustrator 25.4.1, SVG Export Plug-In . SVG Version: 6.00 Build 0)  -->
<svg version="1.1" id="Layer_1" xmlns="http://www.w3.org/2000/svg" xmlns:xlink="http://www.w3.org/1999/xlink" x="0px" y="0px"
	 viewBox="0 0 98 98" style="enable-background:new 0 0 98 98;" xml:space="preserve">
<path style="fill:#5389A4;fill-opacity:0.502;" d="M1,1h97v97H1V1z M2,2v23h23V2H2z M97,25V2H74v23H97z M50,2v23h23V2H50z M26,2v23
	h23V2H26z M2,97h23V74H2V97z M97,97V74H74v23H97z M50,74v23h23V74H50z M26,74v23h23V74H26z M97,50H74v23h23V50z M50,50v23h23V50H50z
	 M26,50v23h23V50H26z M2,50v23h23V50H2z M97,26H74v23h23V26z M50,26v23h23V26H50z M26,26v23h23V26H26z M2,26v23h23V26H2z"/>
<path style="fill:#5389A4;fill-opacity:0.2039;" d="M2,5h3V2h1v3h3V2h1v3h3V2h1v3h3V2h1v3h3V2h1v3h7V2h1v3h3V2h1v3h3V2h1v3h3V2h1v3
	h3V2h1v3h7V2h1v3h3V2h1v3h3V2h1v3h3V2h1v3h3V2h1v3h7V2h1v3h3V2h1v3h3V2h1v3h3V2h1v3h3V2h1v3h3v1h-3v3h3v1h-3v3h3v1h-3v3h3v1h-3v3h3
	v1h-3v7h3v1h-3v3h3v1h-3v3h3v1h-3v3h3v1h-3v3h3v1h-3v7h3v1h-3v3h3v1h-3v3h3v1h-3v3h3v1h-3v3h3v1h-3v7h3v1h-3v3h3v1h-3v3h3v1h-3v3h3
	v1h-3v3h3v1h-3v3h-1v-3h-3v3h-1v-3h-3v3h-1v-3h-3v3h-1v-3h-3v3h-1v-3h-7v3h-1v-3h-3v3h-1v-3h-3v3h-1v-3h-3v3h-1v-3h-3v3h-1v-3h-7v3
	h-1v-3h-3v3h-1v-3h-3v3h-1v-3h-3v3h-1v-3h-3v3h-1v-3h-7v3h-1v-3h-3v3h-1v-3h-3v3h-1v-3h-3v3H9v-3H6v3H5v-3H2v-1h3v-3H2v-1h3v-3H2v-1
	h3v-3H2v-1h3v-3H2v-1h3v-7H2v-1h3v-3H2v-1h3v-3H2v-1h3v-3H2v-1h3v-3H2v-1h3v-7H2v-1h3v-3H2v-1h3v-3H2v-1h3v-3H2v-1h3v-3H2v-1h3v-7H2
	v-1h3v-3H2v-1h3v-3H2v-1h3v-3H2V9h3V6H2V5z M90,6v3h3V6H90z M90,10v3h3v-3H90z M90,14v3h3v-3H90z M90,18v3h3v-3H90z M90,22v7h3v-7
	H90z M90,30v3h3v-3H90z M90,34v3h3v-3H90z M90,38v3h3v-3H90z M90,42v3h3v-3H90z M90,46v7h3v-7H90z M90,54v3h3v-3H90z M90,58v3h3v-3
	H90z M90,62v3h3v-3H90z M90,66v3h3v-3H90z M90,70v7h3v-7H90z M90,78v3h3v-3H90z M90,82v3h3v-3H90z M90,86v3h3v-3H90z M90,90v3h3v-3
	H90z M86,6v3h3V6H86z M86,10v3h3v-3H86z M86,14v3h3v-3H86z M86,18v3h3v-3H86z M86,22v7h3v-7H86z M86,30v3h3v-3H86z M86,34v3h3v-3H86
	z M86,38v3h3v-3H86z M86,42v3h3v-3H86z M86,46v7h3v-7H86z M86,54v3h3v-3H86z M86,58v3h3v-3H86z M86,62v3h3v-3H86z M86,66v3h3v-3H86z
	 M86,70v7h3v-7H86z M86,78v3h3v-3H86z M86,82v3h3v-3H86z M86,86v3h3v-3H86z M86,90v3h3v-3H86z M82,6v3h3V6H82z M82,10v3h3v-3H82z
	 M82,14v3h3v-3H82z M82,18v3h3v-3H82z M82,22v7h3v-7H82z M82,30v3h3v-3H82z M82,34v3h3v-3H82z M82,38v3h3v-3H82z M82,42v3h3v-3H82z
	 M82,46v7h3v-7H82z M82,54v3h3v-3H82z M82,58v3h3v-3H82z M82,62v3h3v-3H82z M82,66v3h3v-3H82z M82,70v7h3v-7H82z M82,78v3h3v-3H82z
	 M82,82v3h3v-3H82z M82,86v3h3v-3H82z M82,90v3h3v-3H82z M78,6v3h3V6H78z M78,10v3h3v-3H78z M78,14v3h3v-3H78z M78,18v3h3v-3H78z
	 M78,22v7h3v-7H78z M78,30v3h3v-3H78z M78,34v3h3v-3H78z M78,38v3h3v-3H78z M78,42v3h3v-3H78z M78,46v7h3v-7H78z M78,54v3h3v-3H78z
	 M78,58v3h3v-3H78z M78,62v3h3v-3H78z M78,66v3h3v-3H78z M78,70v7h3v-7H78z M78,78v3h3v-3H78z M78,82v3h3v-3H78z M78,86v3h3v-3H78z
	 M78,90v3h3v-3H78z M70,6v3h7V6H70z M70,10v3h7v-3H70z M70,14v3h7v-3H70z M70,18v3h7v-3H70z M70,22v7h7v-7H70z M70,30v3h7v-3H70z
	 M70,34v3h7v-3H70z M70,38v3h7v-3H70z M70,42v3h7v-3H70z M70,46v7h7v-7H70z M70,54v3h7v-3H70z M70,58v3h7v-3H70z M70,62v3h7v-3H70z
	 M70,66v3h7v-3H70z M70,70v7h7v-7H70z M70,78v3h7v-3H70z M70,82v3h7v-3H70z M70,86v3h7v-3H70z M70,90v3h7v-3H70z M66,6v3h3V6H66z
	 M66,10v3h3v-3H66z M66,14v3h3v-3H66z M66,18v3h3v-3H66z M66,22v7h3v-7H66z M66,30v3h3v-3H66z M66,34v3h3v-3H66z M66,38v3h3v-3H66z
	 M66,42v3h3v-3H66z M66,46v7h3v-7H66z M66,54v3h3v-3H66z M66,58v3h3v-3H66z M66,62v3h3v-3H66z M66,66v3h3v-3H66z M66,70v7h3v-7H66z
	 M66,78v3h3v-3H66z M66,82v3h3v-3H66z M66,86v3h3v-3H66z M66,90v3h3v-3H66z M62,6v3h3V6H62z M62,10v3h3v-3H62z M62,14v3h3v-3H62z
	 M62,18v3h3v-3H62z M62,22v7h3v-7H62z M62,30v3h3v-3H62z M62,34v3h3v-3H62z M62,38v3h3v-3H62z M62,42v3h3v-3H62z M62,46v7h3v-7H62z
	 M62,54v3h3v-3H62z M62,58v3h3v-3H62z M62,62v3h3v-3H62z M62,66v3h3v-3H62z M62,70v7h3v-7H62z M62,78v3h3v-3H62z M62,82v3h3v-3H62z
	 M62,86v3h3v-3H62z M62,90v3h3v-3H62z M58,6v3h3V6H58z M58,10v3h3v-3H58z M58,14v3h3v-3H58z M58,18v3h3v-3H58z M58,22v7h3v-7H58z
	 M58,30v3h3v-3H58z M58,34v3h3v-3H58z M58,38v3h3v-3H58z M58,42v3h3v-3H58z M58,46v7h3v-7H58z M58,54v3h3v-3H58z M58,58v3h3v-3H58z
	 M58,62v3h3v-3H58z M58,66v3h3v-3H58z M58,70v7h3v-7H58z M58,78v3h3v-3H58z M58,82v3h3v-3H58z M58,86v3h3v-3H58z M58,90v3h3v-3H58z
	 M54,6v3h3V6H54z M54,10v3h3v-3H54z M54,14v3h3v-3H54z M54,18v3h3v-3H54z M54,22v7h3v-7H54z M54,30v3h3v-3H54z M54,34v3h3v-3H54z
	 M54,38v3h3v-3H54z M54,42v3h3v-3H54z M54,46v7h3v-7H54z M54,54v3h3v-3H54z M54,58v3h3v-3H54z M54,62v3h3v-3H54z M54,66v3h3v-3H54z
	 M54,70v7h3v-7H54z M54,78v3h3v-3H54z M54,82v3h3v-3H54z M54,86v3h3v-3H54z M54,90v3h3v-3H54z M46,6v3h7V6H46z M46,10v3h7v-3H46z
	 M46,14v3h7v-3H46z M46,18v3h7v-3H46z M46,22v7h7v-7H46z M46,30v3h7v-3H46z M46,34v3h7v-3H46z M46,38v3h7v-3H46z M46,42v3h7v-3H46z
	 M46,46v7h7v-7H46z M46,54v3h7v-3H46z M46,58v3h7v-3H46z M46,62v3h7v-3H46z M46,66v3h7v-3H46z M46,70v7h7v-7H46z M46,78v3h7v-3H46z
	 M46,82v3h7v-3H46z M46,86v3h7v-3H46z M46,90v3h7v-3H46z M42,6v3h3V6H42z M42,10v3h3v-3H42z M42,14v3h3v-3H42z M42,18v3h3v-3H42z
	 M42,22v7h3v-7H42z M42,30v3h3v-3H42z M42,34v3h3v-3H42z M42,38v3h3v-3H42z M42,42v3h3v-3H42z M42,46v7h3v-7H42z M42,54v3h3v-3H42z
	 M42,58v3h3v-3H42z M42,62v3h3v-3H42z M42,66v3h3v-3H42z M42,70v7h3v-7H42z M42,78v3h3v-3H42z M42,82v3h3v-3H42z M42,86v3h3v-3H42z
	 M42,90v3h3v-3H42z M38,6v3h3V6H38z M38,10v3h3v-3H38z M38,14v3h3v-3H38z M38,18v3h3v-3H38z M38,22v7h3v-7H38z M38,30v3h3v-3H38z
	 M38,34v3h3v-3H38z M38,38v3h3v-3H38z M38,42v3h3v-3H38z M38,46v7h3v-7H38z M38,54v3h3v-3H38z M38,58v3h3v-3H38z M38,62v3h3v-3H38z
	 M38,66v3h3v-3H38z M38,70v7h3v-7H38z M38,78v3h3v-3H38z M38,82v3h3v-3H38z M38,86v3h3v-3H38z M38,90v3h3v-3H38z M34,6v3h3V6H34z
	 M34,10v3h3v-3H34z M34,14v3h3v-3H34z M34,18v3h3v-3H34z M34,22v7h3v-7H34z M34,30v3h3v-3H34z M34,34v3h3v-3H34z M34,38v3h3v-3H34z
	 M34,42v3h3v-3H34z M34,46v7h3v-7H34z M34,54v3h3v-3H34z M34,58v3h3v-3H34z M34,62v3h3v-3H34z M34,66v3h3v-3H34z M34,70v7h3v-7H34z
	 M34,78v3h3v-3H34z M34,82v3h3v-3H34z M34,86v3h3v-3H34z M34,90v3h3v-3H34z M30,6v3h3V6H30z M30,10v3h3v-3H30z M30,14v3h3v-3H30z
	 M30,18v3h3v-3H30z M30,22v7h3v-7H30z M30,30v3h3v-3H30z M30,34v3h3v-3H30z M30,38v3h3v-3H30z M30,42v3h3v-3H30z M30,46v7h3v-7H30z
	 M30,54v3h3v-3H30z M30,58v3h3v-3H30z M30,62v3h3v-3H30z M30,66v3h3v-3H30z M30,70v7h3v-7H30z M30,78v3h3v-3H30z M30,82v3h3v-3H30z
	 M30,86v3h3v-3H30z M30,90v3h3v-3H30z M22,6v3h7V6H22z M22,10v3h7v-3H22z M22,14v3h7v-3H22z M22,18v3h7v-3H22z M22,22v7h7v-7H22z
	 M22,30v3h7v-3H22z M22,34v3h7v-3H22z M22,38v3h7v-3H22z M22,42v3h7v-3H22z M22,46v7h7v-7H22z M22,54v3h7v-3H22z M22,58v3h7v-3H22z
	 M22,62v3h7v-3H22z M22,66v3h7v-3H22z M22,70v7h7v-7H22z M22,78v3h7v-3H22z M22,82v3h7v-3H22z M22,86v3h7v-3H22z M22,90v3h7v-3H22z
	 M18,6v3h3V6H18z M18,10v3h3v-3H18z M18,14v3h3v-3H18z M18,18v3h3v-3H18z M18,22v7h3v-7H18z M18,30v3h3v-3H18z M18,34v3h3v-3H18z
	 M18,38v3h3v-3H18z M18,42v3h3v-3H18z M18,46v7h3v-7H18z M18,54v3h3v-3H18z M18,58v3h3v-3H18z M18,62v3h3v-3H18z M18,66v3h3v-3H18z
	 M18,70v7h3v-7H18z M18,78v3h3v-3H18z M18,82v3h3v-3H18z M18,86v3h3v-3H18z M18,90v3h3v-3H18z M14,6v3h3V6H14z M14,10v3h3v-3H14z
	 M14,14v3h3v-3H14z M14,18v3h3v-3H14z M14,22v7h3v-7H14z M14,30v3h3v-3H14z M14,34v3h3v-3H14z M14,38v3h3v-3H14z M14,42v3h3v-3H14z
	 M14,46v7h3v-7H14z M14,54v3h3v-3H14z M14,58v3h3v-3H14z M14,62v3h3v-3H14z M14,66v3h3v-3H14z M14,70v7h3v-7H14z M14,78v3h3v-3H14z
	 M14,82v3h3v-3H14z M14,86v3h3v-3H14z M14,90v3h3v-3H14z M10,6v3h3V6H10z M10,10v3h3v-3H10z M10,14v3h3v-3H10z M10,18v3h3v-3H10z
	 M10,22v7h3v-7H10z M10,30v3h3v-3H10z M10,34v3h3v-3H10z M10,38v3h3v-3H10z M10,42v3h3v-3H10z M10,46v7h3v-7H10z M10,54v3h3v-3H10z
	 M10,58v3h3v-3H10z M10,62v3h3v-3H10z M10,66v3h3v-3H10z M10,70v7h3v-7H10z M10,78v3h3v-3H10z M10,82v3h3v-3H10z M10,86v3h3v-3H10z
	 M10,90v3h3v-3H10z M6,6v3h3V6H6z M6,10v3h3v-3H6z M6,14v3h3v-3H6z M6,18v3h3v-3H6z M6,22v7h3v-7H6z M6,30v3h3v-3H6z M6,34v3h3v-3H6
	z M6,38v3h3v-3H6z M6,42v3h3v-3H6z M6,46v7h3v-7H6z M6,54v3h3v-3H6z M6,58v3h3v-3H6z M6,62v3h3v-3H6z M6,66v3h3v-3H6z M6,70v7h3v-7
	H6z M6,78v3h3v-3H6z M6,82v3h3v-3H6z M6,86v3h3v-3H6z M6,90v3h3v-3H6z"/>
<path style="fill:#5389A4;fill-opacity:0.2039;" d="M98,0v1H1v97H0V0H98z"/>
<ellipse style="fill:#B440AE;fill-opacity:0.502;stroke:#B440AE;" cx="73" cy="73" rx="24" ry="24"/>
<path style="fill:#B440AE;" d="M80.935,49.928l1.602,0.497l2.128,1.155l-0.39,0.921l-2.128-1.155l-1.413-0.439L80.935,49.928z
	 M88.074,53.819l2.25,1.857l0.75,0.909l-0.707,0.707l-0.75-0.909l-2.103-1.735L88.074,53.819z M93.589,59.805l1.908,3.515
	l-0.829,0.56l-1.908-3.515L93.589,59.805z M96.741,67.221l0.261,0.842l0.323,3.201l-0.98,0.201l-0.323-3.201l-0.203-0.653
	L96.741,67.221z M97.264,75.344l-0.261,2.593l-0.443,1.428l-0.98-0.201l0.443-1.428l0.241-2.392
	C96.264,75.344,97.264,75.344,97.264,75.344z M95.203,83.22l-1.888,3.478l-0.089,0.107l-0.829-0.56l0.089-0.107l1.796-3.308
	L95.203,83.22z M90.681,89.891l-0.357,0.433l-2.726,2.249l-0.707-0.707l2.726-2.249l0.236-0.285L90.681,89.891z M84.124,94.713
	l-1.587,0.862l-2.188,0.679l-0.39-0.921l2.188-0.679l1.417-0.769L84.124,94.713z M76.371,97.16L73,97.5l-0.709-0.072v-1L73,96.5
	l3.171-0.32L76.371,97.16z M68.311,97.027l-0.248-0.025l-3.678-1.142l0.201-0.98l3.678,1.142l0.048,0.005L68.311,97.027
	L68.311,97.027z M60.709,94.079l-1.407-0.764l-1.925-1.588l0.56-0.829l1.925,1.588l1.237,0.672L60.709,94.079z M54.473,88.866
	l-1.788-2.167l-0.613-1.13l0.829-0.56l0.613,1.13l1.667,2.02L54.473,88.866z M50.234,81.919l-1.186-3.82l0.921-0.39l1.186,3.82
	L50.234,81.919z M48.604,74.027L48.5,73l0.308-3.053h1L49.5,73l0.083,0.826L48.604,74.027z M49.652,65.955l0.773-2.492l0.711-1.31
	l0.921,0.389l-0.711,1.31l-0.715,2.302L49.652,65.955z M53.227,58.645l2.449-2.969l0.19-0.157l0.707,0.707l-0.19,0.157l-2.328,2.821
	L53.227,58.645z M58.952,52.973l0.35-0.289l3.201-1.737l0.56,0.829l-3.201,1.737l-0.203,0.167L58.952,52.973z M66.332,49.535
	l1.731-0.537l2.275-0.229l0.201,0.98l-2.275,0.229l-1.542,0.479L66.332,49.535z M73,48.5l3.98,0.401v1L73,49.5V48.5z"/>
<path d="M73,82.931c-5.482,0-9.931-4.449-9.931-9.931c0-1.589,0.357-3.098,1.033-4.449l-4.33-4.33
	c-1.668,2.502-2.661,5.521-2.661,8.779c0,8.779,7.11,15.889,15.889,15.889v5.958l8.937-8.937L73,76.972V82.931 M73,57.111v-5.958
	l-8.937,8.937L73,69.028V63.07c5.482,0,9.931,4.449,9.931,9.931c0,1.589-0.357,3.098-1.033,4.449l4.33,4.33
	c1.668-2.502,2.661-5.521,2.661-8.779C88.889,64.222,81.779,57.111,73,57.111z"/>
</svg>
