<?xml version="1.0" encoding="utf-8"?>
<!DOCTYPE svg PUBLIC "-//W3C//DTD SVG 1.1//EN" "http://www.w3.org/Graphics/SVG/1.1/DTD/svg11.dtd">
<svg xmlns="http://www.w3.org/2000/svg" xmlns:xlink="http://www.w3.org/1999/xlink" version="1.1" baseProfile="full" width="98" height="98" viewBox="0 0 98.00 98.00" enable-background="new 0 0 98.00 98.00" xml:space="preserve">
	<path fill="#5389A4" fill-opacity="0.501961" stroke-width="0.2" stroke-linejoin="miter" d="M 1,1.0001L 98,1.00006L 98,98L 1,98L 1,1.0001 Z M 2,2.00015L 2,25L 25,25L 25,2.00003L 2,2.00015 Z M 96.9999,25L 96.9999,2.00011L 74,2.00001L 74,25L 96.9999,25 Z M 50,2.00002L 50,25L 73,25L 73,2.00001L 50,2.00002 Z M 26,2.00003L 26,25L 49,25L 49,2.00002L 26,2.00003 Z M 2,97L 25,97L 25,74L 2,74L 2,97 Z M 96.9999,97L 97,74L 74,74L 74,97L 96.9999,97 Z M 50,74L 50,97L 73,97L 73,74L 50,74 Z M 26,74L 25.9999,97L 49,97L 49,74L 26,74 Z M 97,50L 74,50L 74,73.0001L 97,73.0001L 97,50 Z M 50,50L 50,73.0001L 73,73.0001L 73,50L 50,50 Z M 26,50L 26,73.0001L 49,73.0001L 49,50L 26,50 Z M 2,50L 2,73.0001L 25,73.0001L 25,50L 2,50 Z M 96.9999,26L 74,26L 74,49.0001L 97,49.0001L 96.9999,26 Z M 50,26L 50,49.0001L 73,49.0001L 73,26L 50,26 Z M 26,26L 26,49.0001L 49,49.0001L 49,26L 26,26 Z M 2,26L 2,49.0001L 25,49.0001L 25,26L 2,26 Z "/>
	<path fill="#5389A4" fill-opacity="0.203922" stroke-width="0.2" stroke-linejoin="miter" d="M 2.00001,5.00002L 5,5.00002L 5,2L 5.99998,2L 5.99998,5.00002L 9.00001,5.00002L 9.00001,2L 9.99999,2L 9.99999,5.00002L 13,5.00002L 13,2L 14,2L 14,5.00002L 17,5.00002L 17,2L 18,2L 18,5.00002L 21,5.00002L 21,2L 22,2L 22,5.00002L 29,5.00002L 29,2L 30,2L 30,5.00002L 33,5.00002L 33,2L 34,2L 34,5.00002L 37,5.00002L 37,2L 38,2L 38,5.00002L 41,5.00002L 41,2L 42,2L 42,5.00002L 45,5.00002L 45,2L 46,2L 46,5.00002L 53,5.00002L 53,2L 54,2L 54,5.00002L 57,5.00002L 57,2L 58,2L 58,5.00002L 61,5.00002L 61,2L 62,2L 62,5.00002L 65,5.00002L 65,2L 66,2L 66,5.00002L 69,5.00002L 69,2L 70,2L 70,5.00002L 77,5.00002L 77,2L 78,2L 78,5.00002L 81,5.00002L 81,2L 82,2L 82,5.00002L 85,5.00002L 85,2L 86,2L 86,5.00002L 89,5.00002L 89,2L 90,2L 90,5.00002L 93,5.00002L 93,2L 94,2L 94,5.00002L 97,5.00002L 97,6L 94,6L 94,9.00021L 96.9998,9.00021L 96.9998,10.0002L 94,10.0002L 94,13.0002L 96.9998,13.0002L 96.9998,14.0001L 94,14.0001L 94,17.0001L 96.9998,17.0001L 96.9998,18.0001L 94,18.0001L 94,21.0001L 96.9998,21.0001L 96.9998,22.0001L 94,22.0001L 94,29.0001L 96.9999,29.0001L 96.9999,30.0001L 94,30.0001L 94,33.0001L 96.9999,33.0001L 96.9999,34L 94,34L 94,37.0001L 96.9999,37.0001L 96.9999,38.0001L 94,38.0001L 94,41.0001L 96.9999,41.0001L 96.9999,42.0001L 94,42.0001L 94,45.0001L 96.9999,45.0001L 96.9999,46.0001L 94,46.0001L 94,53.0001L 96.9999,53.0001L 96.9999,54L 94,54L 94,57.0001L 96.9999,57.0001L 96.9999,58L 94,58L 94,61L 96.9999,61L 96.9999,62L 94,62L 94,65L 96.9999,65L 96.9999,66L 94,66L 94,69.0001L 96.9999,69.0001L 96.9999,70L 94,70L 94,77L 97,77L 97,78L 94,78L 94,81L 97,81L 97,82L 94,82L 94,85L 97,85L 97,86L 94,86L 94,89L 97,89L 97,90L 94,90L 94,93L 97,93L 97,94L 94,94L 94,97L 93,97L 93,94L 90,94L 90,97L 89,97L 89,94L 86,94L 86,97L 85,97L 85,94L 82,94L 82,97L 81,97L 81,94L 78,94L 78,97L 77,97L 77,94L 70,94L 70,97L 69,97L 69,94L 66,94L 66,97L 65,97L 65,94L 62,94L 62,97L 61,97L 61,94L 58,94L 58,97L 57,97L 57,94L 54,94L 54,97L 53,97L 53,94L 46,94L 46,97L 45,97L 45,94L 42,94L 42,97L 41,97L 41,94L 38,94L 38,97L 37,97L 37,94L 34,94L 34,97L 33,97L 33,94L 30,94L 30,97L 29,97L 29,94L 21.9999,94L 21.9999,97L 21,97L 21,94L 18,94L 18,97L 17,97L 17,94L 13.9999,94L 13.9999,97L 13,97L 13,94L 10,94L 10,97L 9.00004,97L 9.00004,94L 5.99998,94L 5.99998,97L 5,97L 5,94L 2.00001,94L 2.00001,93L 5,93L 5,90L 2,90L 2,89L 5,89L 5,86L 2.00001,86L 2.00001,85L 5,85L 5,82L 2,82L 2,81L 5,81L 5,78L 2.00001,78L 2.00001,77L 5,77L 5,70L 2.00001,70L 2.00001,69.0001L 5,69.0001L 5,66L 2,66L 2,65L 5,65L 5,62L 2.00001,62L 2.00001,61L 5,61L 5,58L 2,58L 2,57L 5,57L 5,54L 2.00001,54L 2.00001,53.0001L 5,53.0001L 5,46.0001L 2.00001,46.0001L 2.00001,45.0001L 5,45.0001L 5,42L 2,42L 2,41.0001L 5,41.0001L 5,38.0001L 2.00001,38.0001L 2.00001,37.0001L 5,37.0001L 5,34L 2,34L 2,33.0001L 5,33.0001L 5,30.0001L 2.00001,30.0001L 2.00001,29.0001L 5,29.0001L 5,22L 2.00001,22L 2.00001,21.0001L 5,21.0001L 5,18.0001L 2,18.0001L 2,17.0001L 5,17.0001L 5,14.0001L 2.00001,14.0001L 2.00001,13.0002L 5,13.0002L 5,10.0002L 2,10.0002L 2,9.00024L 5,9.00024L 5,6L 2.00001,6L 2.00001,5.00002 Z M 90,6.00001L 90,9.00024L 93,9.00024L 93,6.00001L 90,6.00001 Z M 90,10.0002L 90,13.0002L 93,13.0002L 93,10.0002L 90,10.0002 Z M 90,14.0001L 90,17.0001L 93,17.0001L 93,14.0001L 90,14.0001 Z M 90,18.0001L 90,21.0001L 93,21.0001L 93,18.0001L 90,18.0001 Z M 90,22.0001L 90,29.0001L 93,29.0001L 93,22.0001L 90,22.0001 Z M 90,30.0001L 90,33.0001L 93,33.0001L 93,30.0001L 90,30.0001 Z M 90,34.0001L 90,37.0001L 93,37.0001L 93,34.0001L 90,34.0001 Z M 90,38.0001L 90,41.0001L 93,41.0001L 93,38.0001L 90,38.0001 Z M 90,42.0001L 90,45.0001L 93,45.0001L 93,42.0001L 90,42.0001 Z M 90,46.0001L 90,53.0001L 93,53.0001L 93,46.0001L 90,46.0001 Z M 90,54.0001L 90,57.0001L 93,57.0001L 93,54.0001L 90,54.0001 Z M 90,58L 90,61L 93,61L 93,58L 90,58 Z M 90,62L 90,65L 93,65L 93,62L 90,62 Z M 90,66L 90,69.0001L 93,69.0001L 93,66L 90,66 Z M 90,70L 90,77L 93,77L 93,70L 90,70 Z M 90,78L 90,81L 93,81L 93,78L 90,78 Z M 90,82L 90,85L 93,85L 93,82L 90,82 Z M 90,86L 90,89L 93,89L 93,86L 90,86 Z M 90,90L 90,93L 93,93L 93,90L 90,90 Z M 86,6.00002L 86,9.00024L 89,9.00024L 89,6.00002L 86,6.00002 Z M 86,10.0002L 86,13.0002L 89,13.0002L 89,10.0002L 86,10.0002 Z M 86,14.0001L 86,17.0001L 89,17.0001L 89,14.0001L 86,14.0001 Z M 86,18.0001L 86,21.0001L 89,21.0001L 89,18.0001L 86,18.0001 Z M 86,22.0001L 86,29.0001L 89,29.0001L 89,22.0001L 86,22.0001 Z M 86,30.0001L 86,33.0001L 89,33.0001L 89,30.0001L 86,30.0001 Z M 86,34.0001L 86,37.0001L 89,37.0001L 89,34.0001L 86,34.0001 Z M 86,38.0001L 86,41.0001L 89,41.0001L 89,38.0001L 86,38.0001 Z M 86,42.0001L 86,45.0001L 89,45.0001L 89,42.0001L 86,42.0001 Z M 86,46.0001L 86,53.0001L 89,53.0001L 89,46.0001L 86,46.0001 Z M 86,54.0001L 86,57.0001L 89,57.0001L 89,54.0001L 86,54.0001 Z M 86,58L 86,61L 89,61L 89,58L 86,58 Z M 86,62L 86,65L 89,65L 89,62L 86,62 Z M 86,66L 86,69.0001L 89,69.0001L 89,66L 86,66 Z M 86,70L 86,77.0001L 89,77.0001L 89,70L 86,70 Z M 86,78L 86,81L 89,81L 89,78L 86,78 Z M 86,82L 86,85L 89,85L 89,82L 86,82 Z M 86,86L 86,89L 89,89L 89,86L 86,86 Z M 86,90L 86,93L 89,93L 89,90L 86,90 Z M 82,6.00003L 82,9.00027L 85,9.00027L 85,6.00003L 82,6.00003 Z M 82,10.0002L 82,13.0002L 85,13.0002L 85,10.0002L 82,10.0002 Z M 82,14.0001L 82,17.0001L 85,17.0001L 85,14.0001L 82,14.0001 Z M 82,18.0001L 82,21.0001L 85,21.0001L 85,18.0001L 82,18.0001 Z M 82,22.0001L 82,29.0001L 85,29.0001L 85,22.0001L 82,22.0001 Z M 82,30.0001L 82,33.0001L 85,33.0001L 85,30.0001L 82,30.0001 Z M 82,34.0001L 82,37.0001L 85,37.0001L 85,34.0001L 82,34.0001 Z M 82,38.0001L 82,41.0001L 85,41.0001L 85,38.0001L 82,38.0001 Z M 82,42.0001L 82,45.0001L 85,45.0001L 85,42.0001L 82,42.0001 Z M 82,46.0001L 82,53.0001L 85,53.0001L 85,46.0001L 82,46.0001 Z M 82,54.0001L 82,57.0001L 85,57.0001L 85,54.0001L 82,54.0001 Z M 82,58L 82,61L 85,61L 85,58L 82,58 Z M 82,62L 82,65L 85,65L 85,62L 82,62 Z M 82,66L 82,69.0001L 85,69.0001L 85,66L 82,66 Z M 82,70L 82,77.0001L 85,77.0001L 85,70L 82,70 Z M 82,78L 82,81L 85,81L 85,78L 82,78 Z M 82,82L 82,85L 85,85L 85,82L 82,82 Z M 82,86L 82,89L 85,89L 85,86L 82,86 Z M 82,90L 82,93L 85,93L 85,90L 82,90 Z M 78,6.00004L 78,9.00027L 81,9.00027L 81,6.00004L 78,6.00004 Z M 78,10.0003L 78,13.0002L 81,13.0002L 81,10.0003L 78,10.0003 Z M 78,14.0001L 78,17.0001L 81,17.0001L 81,14.0001L 78,14.0001 Z M 78,18.0001L 78,21.0001L 81,21.0001L 81,18.0001L 78,18.0001 Z M 78,22.0001L 78,29.0001L 81,29.0001L 81,22.0001L 78,22.0001 Z M 78,30.0001L 78,33.0001L 81,33.0001L 81,30.0001L 78,30.0001 Z M 78,34.0001L 78,37.0001L 81,37.0001L 81,34.0001L 78,34.0001 Z M 78,38.0001L 78,41.0001L 81,41.0001L 81,38.0001L 78,38.0001 Z M 78,42.0001L 78,45.0001L 81,45.0001L 81,42.0001L 78,42.0001 Z M 78,46.0001L 78,53.0001L 81,53.0001L 81,46.0001L 78,46.0001 Z M 78,54.0001L 78,57.0001L 81,57.0001L 81,54.0001L 78,54.0001 Z M 78,58L 78,61L 81,61L 81,58L 78,58 Z M 78,62L 78,65L 81,65L 81,62L 78,62 Z M 78,66L 78,69.0001L 81,69.0001L 81,66L 78,66 Z M 78,70L 78,77.0001L 81,77.0001L 81,70L 78,70 Z M 78,78L 78,81.0001L 81,81.0001L 81,78L 78,78 Z M 78,82L 78,85L 81,85L 81,82L 78,82 Z M 78,86L 78,89L 81,89L 81,86L 78,86 Z M 78,90L 78,93L 81,93L 81,90L 78,90 Z M 70,6.00005L 70,9.0003L 77,9.00028L 77,6.00005L 70,6.00005 Z M 70,10.0003L 70,13.0002L 77,13.0002L 77,10.0003L 70,10.0003 Z M 70,14.0001L 70,17.0001L 77,17.0001L 77,14.0001L 70,14.0001 Z M 70,18.0001L 70,21.0001L 77,21.0001L 77,18.0001L 70,18.0001 Z M 70,22.0001L 70,29.0001L 77,29.0001L 77,22.0001L 70,22.0001 Z M 70,30.0001L 70,33.0001L 77,33.0001L 77,30.0001L 70,30.0001 Z M 70,34.0001L 70,37.0001L 77,37.0001L 77,34.0001L 70,34.0001 Z M 70,38.0001L 70,41.0001L 77,41.0001L 77,38.0001L 70,38.0001 Z M 70,42.0001L 70,45.0001L 77,45.0001L 77,42.0001L 70,42.0001 Z M 70,46.0001L 70,53.0001L 77,53.0001L 77,46.0001L 70,46.0001 Z M 70,54.0001L 70,57.0001L 77,57.0001L 77,54.0001L 70,54.0001 Z M 70,58L 70,61L 77,61L 77,58L 70,58 Z M 70,62L 70,65L 77,65L 77,62L 70,62 Z M 70,66L 70,69.0001L 77,69.0001L 77,66L 70,66 Z M 70,70L 70,77.0001L 77,77.0001L 77,70L 70,70 Z M 70,78L 70,81.0001L 77,81.0001L 77,78L 70,78 Z M 70,82L 70,85L 77,85L 77,82L 70,82 Z M 70,86L 70,89L 77,89L 77,86L 70,86 Z M 70,90L 70,93L 77,93L 77,90L 70,90 Z M 66,6.00006L 66,9.00031L 69,9.00031L 69,6.00006L 66,6.00006 Z M 66,10.0003L 66,13.0002L 69,13.0002L 69,10.0003L 66,10.0003 Z M 66,14.0001L 66,17.0001L 69,17.0001L 69,14.0001L 66,14.0001 Z M 66,18.0001L 66,21.0001L 69,21.0001L 69,18.0001L 66,18.0001 Z M 66,22.0001L 66,29.0001L 69,29.0001L 69,22.0001L 66,22.0001 Z M 66,30.0001L 66,33.0001L 69,33.0001L 69,30.0001L 66,30.0001 Z M 66,34.0001L 66,37.0001L 69,37.0001L 69,34.0001L 66,34.0001 Z M 66,38.0001L 66,41.0001L 69,41.0001L 69,38.0001L 66,38.0001 Z M 66,42.0001L 66,45.0001L 69,45.0001L 69,42.0001L 66,42.0001 Z M 66,46.0001L 66,53.0001L 69,53.0001L 69,46.0001L 66,46.0001 Z M 66,54.0001L 66,57.0001L 69,57.0001L 69,54.0001L 66,54.0001 Z M 66,58L 66,61.0001L 69,61.0001L 69,58L 66,58 Z M 66,62L 66,65.0001L 69,65.0001L 69,62L 66,62 Z M 66,66L 66,69.0001L 69,69.0001L 69,66L 66,66 Z M 66,70L 66,77.0001L 69,77.0001L 69,70L 66,70 Z M 66,78L 66,81.0001L 69,81.0001L 69,78L 66,78 Z M 66,82L 66,85L 69,85L 69,82L 66,82 Z M 66,86L 66,89L 69,89L 69,86L 66,86 Z M 66,90L 66,93L 69,93L 69,90L 66,90 Z M 61.9999,6.00007L 61.9999,9.00031L 65,9.00031L 65,6.00007L 61.9999,6.00007 Z M 61.9999,10.0003L 61.9999,13.0002L 65,13.0002L 65,10.0003L 61.9999,10.0003 Z M 61.9999,14.0001L 61.9999,17.0001L 65,17.0001L 65,14.0001L 61.9999,14.0001 Z M 61.9999,18.0001L 61.9999,21.0001L 65,21.0001L 65,18.0001L 61.9999,18.0001 Z M 61.9999,22.0001L 61.9999,29.0001L 65,29.0001L 65,22.0001L 61.9999,22.0001 Z M 61.9999,30.0001L 61.9999,33.0001L 65,33.0001L 65,30.0001L 61.9999,30.0001 Z M 61.9999,34.0001L 61.9999,37.0001L 65,37.0001L 65,34.0001L 61.9999,34.0001 Z M 61.9999,38.0001L 61.9999,41.0001L 65,41.0001L 65,38.0001L 61.9999,38.0001 Z M 61.9999,42.0001L 61.9999,45.0001L 65,45.0001L 65,42.0001L 61.9999,42.0001 Z M 61.9999,46.0001L 61.9999,53.0001L 65,53.0001L 65,46.0001L 61.9999,46.0001 Z M 61.9999,54.0001L 61.9999,57.0001L 65,57.0001L 65,54.0001L 61.9999,54.0001 Z M 61.9999,58L 61.9999,61.0001L 65,61.0001L 65,58L 61.9999,58 Z M 61.9999,62L 61.9999,65.0001L 65,65.0001L 65,62L 61.9999,62 Z M 61.9999,66L 61.9999,69.0001L 65,69.0001L 65,66L 61.9999,66 Z M 61.9999,70.0001L 61.9999,77.0001L 65,77.0001L 65,70.0001L 61.9999,70.0001 Z M 61.9999,78L 61.9999,81.0001L 65,81.0001L 65,78L 61.9999,78 Z M 61.9999,82L 61.9999,85L 65,85L 65,82L 61.9999,82 Z M 61.9999,86L 61.9999,89L 65,89L 65,86L 61.9999,86 Z M 61.9999,90L 61.9999,93L 65,93L 65,90L 61.9999,90 Z M 58,6.00008L 58,9.00033L 61,9.00033L 61,6.00008L 58,6.00008 Z M 58,10.0003L 58,13.0003L 61,13.0003L 61,10.0003L 58,10.0003 Z M 58,14.0001L 58,17.0001L 61,17.0001L 61,14.0001L 58,14.0001 Z M 58,18.0001L 58,21.0001L 61,21.0001L 61,18.0001L 58,18.0001 Z M 58,22.0001L 58,29.0001L 61,29.0001L 61,22.0001L 58,22.0001 Z M 58,30.0001L 58,33.0001L 61,33.0001L 61,30.0001L 58,30.0001 Z M 58,34.0001L 58,37.0001L 61,37.0001L 61,34.0001L 58,34.0001 Z M 58,38.0001L 58,41.0001L 61,41.0001L 61,38.0001L 58,38.0001 Z M 58,42.0001L 58,45.0001L 61,45.0001L 61,42.0001L 58,42.0001 Z M 58,46.0001L 58,53.0001L 61,53.0001L 61,46.0001L 58,46.0001 Z M 58,54.0001L 58,57.0001L 61,57.0001L 61,54.0001L 58,54.0001 Z M 58,58L 58,61.0001L 61,61.0001L 61,58L 58,58 Z M 58,62L 58,65.0001L 61,65.0001L 61,62L 58,62 Z M 58,66L 58,69.0001L 61,69.0001L 61,66L 58,66 Z M 58,70.0001L 58,77.0001L 61,77.0001L 61,70.0001L 58,70.0001 Z M 58,78L 58,81.0001L 61,81.0001L 61,78L 58,78 Z M 57.9999,82L 57.9999,85L 61,85L 61,82L 57.9999,82 Z M 57.9999,86L 57.9999,89L 61,89L 61,86L 57.9999,86 Z M 57.9999,90L 57.9999,93L 61,93L 61,90L 57.9999,90 Z M 53.9999,6.00009L 53.9999,9.00034L 57,9.00034L 57,6.00009L 53.9999,6.00009 Z M 53.9999,10.0003L 53.9999,13.0003L 57,13.0003L 57,10.0003L 53.9999,10.0003 Z M 53.9999,14.0001L 53.9999,17.0001L 57,17.0001L 57,14.0001L 53.9999,14.0001 Z M 53.9999,18.0001L 53.9999,21.0001L 57,21.0001L 57,18.0001L 53.9999,18.0001 Z M 53.9999,22.0001L 53.9999,29.0001L 57,29.0001L 57,22.0001L 53.9999,22.0001 Z M 53.9999,30.0001L 53.9999,33.0001L 57,33.0001L 57,30.0001L 53.9999,30.0001 Z M 53.9999,34.0001L 53.9999,37.0001L 57,37.0001L 57,34.0001L 53.9999,34.0001 Z M 53.9999,38.0001L 53.9999,41.0001L 57,41.0001L 57,38.0001L 53.9999,38.0001 Z M 53.9999,42.0001L 53.9999,45.0001L 57,45.0001L 57,42.0001L 53.9999,42.0001 Z M 53.9999,46.0001L 53.9999,53.0001L 57,53.0001L 57,46.0001L 53.9999,46.0001 Z M 53.9999,54.0001L 53.9999,57.0001L 57,57.0001L 57,54.0001L 53.9999,54.0001 Z M 53.9999,58L 53.9999,61.0001L 57,61.0001L 57,58L 53.9999,58 Z M 53.9999,62L 53.9999,65.0001L 57,65.0001L 57,62L 53.9999,62 Z M 53.9999,66L 53.9999,69.0001L 57,69.0001L 57,66L 53.9999,66 Z M 53.9999,70.0001L 53.9999,77.0001L 57,77.0001L 57,70.0001L 53.9999,70.0001 Z M 53.9999,78L 53.9999,81.0001L 57,81.0001L 57,78L 53.9999,78 Z M 53.9999,82L 53.9999,85L 57,85L 57,82L 53.9999,82 Z M 53.9999,86L 53.9999,89L 57,89L 57,86L 53.9999,86 Z M 53.9999,90L 53.9999,93L 57,93L 57,90L 53.9999,90 Z M 45.9999,6.0001L 45.9999,9.00034L 53,9.00034L 53,6.0001L 45.9999,6.0001 Z M 45.9999,10.0003L 45.9999,13.0003L 53,13.0003L 53,10.0003L 45.9999,10.0003 Z M 45.9999,14.0001L 45.9999,17.0001L 53,17.0001L 53,14.0001L 45.9999,14.0001 Z M 45.9999,18.0001L 45.9999,21.0001L 53,21.0001L 53,18.0001L 45.9999,18.0001 Z M 45.9999,22.0001L 45.9999,29.0001L 53,29.0001L 53,22.0001L 45.9999,22.0001 Z M 45.9999,30.0001L 45.9999,33.0001L 53,33.0001L 53,30.0001L 45.9999,30.0001 Z M 45.9999,34.0001L 45.9999,37.0001L 53,37.0001L 53,34.0001L 45.9999,34.0001 Z M 45.9999,38.0001L 45.9999,41.0001L 53,41.0001L 53,38.0001L 45.9999,38.0001 Z M 45.9999,42.0001L 45.9999,45.0001L 53,45.0001L 53,42.0001L 45.9999,42.0001 Z M 45.9999,46.0001L 45.9999,53.0001L 53,53.0001L 53,46.0001L 45.9999,46.0001 Z M 45.9999,54.0001L 45.9999,57.0001L 53,57.0001L 53,54.0001L 45.9999,54.0001 Z M 45.9999,58L 45.9999,61.0001L 53,61.0001L 53,58L 45.9999,58 Z M 45.9999,62L 45.9999,65.0001L 53,65.0001L 53,62L 45.9999,62 Z M 45.9999,66L 45.9999,69.0001L 53,69.0001L 53,66L 45.9999,66 Z M 45.9999,70.0001L 45.9999,77.0001L 53,77.0001L 53,70.0001L 45.9999,70.0001 Z M 45.9999,78L 45.9999,81.0001L 53,81.0001L 53,78L 45.9999,78 Z M 45.9999,82L 45.9999,85L 53,85L 53,82L 45.9999,82 Z M 45.9999,86L 45.9999,89L 53,89L 53,86L 45.9999,86 Z M 45.9999,90L 45.9999,93L 53,93L 53,90L 45.9999,90 Z M 42,6.00011L 42,9.00036L 45,9.00036L 45,6.00011L 42,6.00011 Z M 42,10.0003L 42,13.0003L 45,13.0003L 45,10.0003L 42,10.0003 Z M 42,14.0001L 42,17.0001L 45,17.0001L 45,14.0001L 42,14.0001 Z M 42,18.0001L 42,21.0001L 45,21.0001L 45,18.0001L 42,18.0001 Z M 42,22.0001L 42,29.0001L 45,29.0001L 45,22.0001L 42,22.0001 Z M 42,30.0001L 42,33.0001L 45,33.0001L 45,30.0001L 42,30.0001 Z M 42,34.0001L 42,37.0001L 45,37.0001L 45,34.0001L 42,34.0001 Z M 42,38.0001L 42,41.0001L 45,41.0001L 45,38.0001L 42,38.0001 Z M 42,42.0001L 42,45.0001L 45,45.0001L 45,42.0001L 42,42.0001 Z M 42,46.0001L 42,53.0001L 45,53.0001L 45,46.0001L 42,46.0001 Z M 42,54.0001L 42,57.0001L 45,57.0001L 45,54.0001L 42,54.0001 Z M 42,58L 42,61.0001L 45,61.0001L 45,58L 42,58 Z M 42,62L 42,65.0001L 45,65.0001L 45,62L 42,62 Z M 42,66L 42,69.0001L 45,69.0001L 45,66L 42,66 Z M 42,70.0001L 42,77.0001L 45,77.0001L 45,70.0001L 42,70.0001 Z M 42,78L 42,81.0001L 45,81.0001L 45,78L 42,78 Z M 42,82L 42,85L 45,85L 45,82L 42,82 Z M 42,86L 42,89L 45,89L 45,86L 42,86 Z M 42,90L 42,93L 45,93L 45,90L 42,90 Z M 38,6.00012L 38,9.00037L 41,9.00037L 41,6.00012L 38,6.00012 Z M 38,10.0003L 38,13.0003L 41,13.0003L 41,10.0003L 38,10.0003 Z M 38,14.0001L 38,17.0001L 41,17.0001L 41,14.0001L 38,14.0001 Z M 38,18.0001L 38,21.0001L 41,21.0001L 41,18.0001L 38,18.0001 Z M 38,22.0001L 38,29.0001L 41,29.0001L 41,22.0001L 38,22.0001 Z M 38,30.0001L 38,33.0001L 41,33.0001L 41,30.0001L 38,30.0001 Z M 38,34.0001L 38,37.0001L 41,37.0001L 41,34.0001L 38,34.0001 Z M 38,38.0001L 38,41.0001L 41,41.0001L 41,38.0001L 38,38.0001 Z M 38,42.0001L 38,45.0001L 41,45.0001L 41,42.0001L 38,42.0001 Z M 38,46.0001L 38,53.0001L 41,53.0001L 41,46.0001L 38,46.0001 Z M 38,54.0001L 38,57.0001L 41,57.0001L 41,54.0001L 38,54.0001 Z M 38,58.0001L 38,61.0001L 41,61.0001L 41,58.0001L 38,58.0001 Z M 38,62L 38,65.0001L 41,65.0001L 41,62L 38,62 Z M 38,66L 38,69.0001L 41,69.0001L 41,66L 38,66 Z M 38,70.0001L 37.9999,77.0001L 41,77.0001L 41,70.0001L 38,70.0001 Z M 37.9999,78L 37.9999,81.0001L 41,81.0001L 41,78L 37.9999,78 Z M 37.9999,82L 37.9999,85L 41,85L 41,82L 37.9999,82 Z M 37.9999,86L 37.9999,89L 41,89L 41,86L 37.9999,86 Z M 37.9999,90L 37.9999,93L 41,93L 41,90L 37.9999,90 Z M 33.9999,6.00013L 33.9999,9.00037L 37,9.00037L 37,6.00013L 33.9999,6.00013 Z M 33.9999,10.0004L 33.9999,13.0003L 37,13.0003L 37,10.0004L 33.9999,10.0004 Z M 33.9999,14.0001L 33.9999,17.0001L 37,17.0001L 37,14.0001L 33.9999,14.0001 Z M 33.9999,18.0001L 33.9999,21.0001L 37,21.0001L 37,18.0001L 33.9999,18.0001 Z M 33.9999,22.0001L 33.9999,29.0001L 37,29.0001L 37,22.0001L 33.9999,22.0001 Z M 33.9999,30.0001L 33.9999,33.0001L 37,33.0001L 37,30.0001L 33.9999,30.0001 Z M 33.9999,34.0001L 33.9999,37.0002L 37,37.0002L 37,34.0001L 33.9999,34.0001 Z M 33.9999,38.0001L 33.9999,41.0001L 37,41.0001L 37,38.0001L 33.9999,38.0001 Z M 33.9999,42.0001L 33.9999,45.0002L 37,45.0002L 37,42.0001L 33.9999,42.0001 Z M 33.9999,46.0001L 33.9999,53.0001L 37,53.0001L 37,46.0001L 33.9999,46.0001 Z M 33.9999,54.0001L 33.9999,57.0001L 37,57.0001L 37,54.0001L 33.9999,54.0001 Z M 33.9999,58.0001L 33.9999,61.0001L 37,61.0001L 37,58.0001L 33.9999,58.0001 Z M 33.9999,62L 33.9999,65.0001L 37,65.0001L 37,62L 33.9999,62 Z M 33.9999,66.0001L 33.9999,69.0001L 37,69.0001L 37,66.0001L 33.9999,66.0001 Z M 33.9999,70.0001L 33.9999,77.0001L 37,77.0001L 37,70.0001L 33.9999,70.0001 Z M 33.9999,78L 33.9999,81.0001L 37,81.0001L 37,78L 33.9999,78 Z M 33.9999,82L 33.9999,85L 37,85L 37,82L 33.9999,82 Z M 33.9999,86L 33.9999,89L 37,89L 37,86L 33.9999,86 Z M 33.9999,90L 33.9999,93L 37,93L 37,90L 33.9999,90 Z M 29.9999,6.00014L 29.9999,9.00039L 33,9.00039L 33,6.00014L 29.9999,6.00014 Z M 29.9999,10.0004L 29.9999,13.0003L 33,13.0003L 33,10.0004L 29.9999,10.0004 Z M 29.9999,14.0001L 29.9999,17.0002L 33,17.0002L 33,14.0001L 29.9999,14.0001 Z M 29.9999,18.0001L 29.9999,21.0001L 33,21.0001L 33,18.0001L 29.9999,18.0001 Z M 29.9999,22.0001L 29.9999,29.0001L 33,29.0001L 33,22.0001L 29.9999,22.0001 Z M 29.9999,30.0001L 29.9999,33.0001L 33,33.0001L 33,30.0001L 29.9999,30.0001 Z M 29.9999,34.0001L 29.9999,37.0002L 33,37.0002L 33,34.0001L 29.9999,34.0001 Z M 29.9999,38.0001L 29.9999,41.0001L 33,41.0001L 33,38.0001L 29.9999,38.0001 Z M 29.9999,42.0001L 29.9999,45.0002L 33,45.0002L 33,42.0001L 29.9999,42.0001 Z M 29.9999,46.0001L 29.9999,53.0001L 33,53.0001L 33,46.0001L 29.9999,46.0001 Z M 29.9999,54.0001L 29.9999,57.0001L 33,57.0001L 33,54.0001L 29.9999,54.0001 Z M 29.9999,58.0001L 29.9999,61.0001L 33,61.0001L 33,58.0001L 29.9999,58.0001 Z M 29.9999,62.0001L 29.9999,65.0001L 33,65.0001L 33,62.0001L 29.9999,62.0001 Z M 29.9999,66.0001L 29.9999,69.0001L 33,69.0001L 33,66.0001L 29.9999,66.0001 Z M 29.9999,70.0001L 29.9999,77.0001L 33,77.0001L 33,70.0001L 29.9999,70.0001 Z M 29.9999,78L 29.9999,81.0001L 33,81.0001L 33,78L 29.9999,78 Z M 29.9999,82L 29.9999,85L 33,85L 33,82L 29.9999,82 Z M 29.9999,86L 29.9999,89L 33,89L 33,86L 29.9999,86 Z M 29.9999,90L 29.9999,93L 33,93L 33,90L 29.9999,90 Z M 21.9999,6.00015L 21.9999,9.0004L 28.9999,9.0004L 28.9999,6.00015L 21.9999,6.00015 Z M 21.9999,10.0004L 21.9999,13.0003L 28.9999,13.0003L 28.9999,10.0004L 21.9999,10.0004 Z M 21.9999,14.0001L 21.9999,17.0002L 28.9999,17.0002L 28.9999,14.0001L 21.9999,14.0001 Z M 21.9999,18.0001L 21.9999,21.0001L 28.9999,21.0001L 28.9999,18.0001L 21.9999,18.0001 Z M 21.9999,22.0001L 21.9999,29.0002L 28.9999,29.0002L 28.9999,22.0001L 21.9999,22.0001 Z M 21.9999,30.0001L 21.9999,33.0001L 28.9999,33.0001L 28.9999,30.0001L 21.9999,30.0001 Z M 21.9999,34.0001L 21.9999,37.0002L 28.9999,37.0002L 28.9999,34.0001L 21.9999,34.0001 Z M 21.9999,38.0001L 21.9999,41.0001L 28.9999,41.0001L 28.9999,38.0001L 21.9999,38.0001 Z M 21.9999,42.0001L 21.9999,45.0002L 28.9999,45.0002L 28.9999,42.0001L 21.9999,42.0001 Z M 21.9999,46.0001L 21.9999,53.0001L 28.9999,53.0001L 28.9999,46.0001L 21.9999,46.0001 Z M 21.9999,54.0001L 21.9999,57.0001L 28.9999,57.0001L 28.9999,54.0001L 21.9999,54.0001 Z M 21.9999,58.0001L 21.9999,61.0001L 28.9999,61.0001L 28.9999,58.0001L 21.9999,58.0001 Z M 21.9999,62.0001L 21.9999,65.0001L 28.9999,65.0001L 28.9999,62.0001L 21.9999,62.0001 Z M 21.9999,66.0001L 21.9999,69.0001L 28.9999,69.0001L 28.9999,66.0001L 21.9999,66.0001 Z M 21.9999,70.0001L 21.9999,77.0001L 28.9999,77.0001L 28.9999,70.0001L 21.9999,70.0001 Z M 21.9999,78L 21.9999,81.0001L 28.9999,81.0001L 28.9999,78L 21.9999,78 Z M 21.9999,82L 21.9999,85L 28.9999,85L 28.9999,82L 21.9999,82 Z M 21.9999,86L 21.9999,89L 28.9999,89L 28.9999,86L 21.9999,86 Z M 21.9999,90L 21.9999,93L 28.9999,93L 28.9999,90L 21.9999,90 Z M 18,6.00016L 18,9.0004L 21,9.0004L 21,6.00016L 18,6.00016 Z M 18,10.0004L 18,13.0003L 21,13.0003L 21,10.0004L 18,10.0004 Z M 18,14.0001L 18,17.0002L 21,17.0002L 21,14.0001L 18,14.0001 Z M 18,18.0001L 18,21.0001L 21,21.0001L 21,18.0001L 18,18.0001 Z M 18,22.0001L 18,29.0002L 21,29.0002L 21,22.0001L 18,22.0001 Z M 18,30.0001L 18,33.0002L 21,33.0002L 21,30.0001L 18,30.0001 Z M 18,34.0001L 18,37.0002L 20.9999,37.0002L 21,34.0001L 18,34.0001 Z M 18,38.0001L 18,41.0002L 20.9999,41.0002L 20.9999,38.0001L 18,38.0001 Z M 18,42.0001L 18,45.0002L 20.9999,45.0002L 20.9999,42.0001L 18,42.0001 Z M 18,46.0001L 18,53.0002L 20.9999,53.0002L 20.9999,46.0001L 18,46.0001 Z M 18,54.0001L 17.9999,57.0001L 20.9999,57.0001L 20.9999,54.0001L 18,54.0001 Z M 17.9999,58.0001L 17.9999,61.0001L 20.9999,61.0001L 20.9999,58.0001L 17.9999,58.0001 Z M 17.9999,62.0001L 17.9999,65.0001L 20.9999,65.0001L 20.9999,62.0001L 17.9999,62.0001 Z M 17.9999,66.0001L 17.9999,69.0001L 20.9999,69.0001L 20.9999,66.0001L 17.9999,66.0001 Z M 17.9999,70.0001L 17.9999,77.0001L 20.9999,77.0001L 20.9999,70.0001L 17.9999,70.0001 Z M 17.9999,78L 17.9999,81.0001L 20.9999,81.0001L 20.9999,78L 17.9999,78 Z M 17.9999,82L 17.9999,85L 20.9999,85L 20.9999,82L 17.9999,82 Z M 17.9999,86L 17.9999,89L 20.9999,89L 20.9999,86L 17.9999,86 Z M 17.9999,90L 17.9999,93L 20.9999,93L 20.9999,90L 17.9999,90 Z M 14,6.00018L 14,9.00042L 17,9.00042L 17,6.00018L 14,6.00018 Z M 14,10.0004L 14,13.0003L 17,13.0003L 17,10.0004L 14,10.0004 Z M 13.9999,14.0001L 13.9999,17.0002L 17,17.0002L 17,14.0001L 13.9999,14.0001 Z M 13.9999,18.0001L 13.9999,21.0001L 17,21.0001L 17,18.0001L 13.9999,18.0001 Z M 13.9999,22.0001L 13.9999,29.0002L 17,29.0002L 17,22.0001L 13.9999,22.0001 Z M 13.9999,30.0001L 13.9999,33.0002L 17,33.0002L 17,30.0001L 13.9999,30.0001 Z M 13.9999,34.0001L 13.9999,37.0002L 17,37.0002L 17,34.0001L 13.9999,34.0001 Z M 13.9999,38.0001L 13.9999,41.0002L 17,41.0002L 17,38.0001L 13.9999,38.0001 Z M 13.9999,42.0001L 13.9999,45.0002L 17,45.0002L 17,42.0001L 13.9999,42.0001 Z M 13.9999,46.0002L 13.9999,53.0002L 17,53.0002L 17,46.0002L 13.9999,46.0002 Z M 13.9999,54.0001L 13.9999,57.0001L 17,57.0001L 17,54.0001L 13.9999,54.0001 Z M 13.9999,58.0001L 13.9999,61.0001L 17,61.0001L 17,58.0001L 13.9999,58.0001 Z M 13.9999,62.0001L 13.9999,65.0001L 17,65.0001L 17,62.0001L 13.9999,62.0001 Z M 13.9999,66.0001L 13.9999,69.0001L 17,69.0001L 17,66.0001L 13.9999,66.0001 Z M 13.9999,70.0001L 13.9999,77.0001L 17,77.0001L 17,70.0001L 13.9999,70.0001 Z M 13.9999,78L 13.9999,81.0001L 17,81.0001L 17,78L 13.9999,78 Z M 13.9999,82L 13.9999,85L 17,85L 17,82L 13.9999,82 Z M 13.9999,86L 13.9999,89L 17,89L 17,86L 13.9999,86 Z M 13.9999,90L 13.9999,93L 17,93L 17,90L 13.9999,90 Z M 9.99998,6.00018L 9.99998,9.00043L 13,9.00043L 13,6.00018L 9.99998,6.00018 Z M 9.99998,10.0004L 9.99998,13.0004L 13,13.0004L 13,10.0004L 9.99998,10.0004 Z M 9.99998,14.0002L 9.99998,17.0002L 13,17.0002L 13,14.0002L 9.99998,14.0002 Z M 9.99998,18.0001L 9.99998,21.0001L 13,21.0001L 13,18.0001L 9.99998,18.0001 Z M 9.99998,22.0001L 9.99999,29.0002L 13,29.0002L 13,22.0001L 9.99998,22.0001 Z M 9.99999,30.0001L 9.99999,33.0002L 13,33.0002L 13,30.0001L 9.99999,30.0001 Z M 9.99999,34.0001L 9.99999,37.0002L 13,37.0002L 13,34.0001L 9.99999,34.0001 Z M 9.99999,38.0002L 9.99999,41.0002L 13,41.0002L 13,38.0002L 9.99999,38.0002 Z M 9.99999,42.0001L 9.99999,45.0002L 13,45.0002L 13,42.0001L 9.99999,42.0001 Z M 9.99999,46.0002L 9.99999,53.0002L 13,53.0002L 13,46.0002L 9.99999,46.0002 Z M 9.99999,54.0001L 9.99999,57.0001L 13,57.0001L 13,54.0001L 9.99999,54.0001 Z M 9.99999,58.0001L 10,61.0001L 13,61.0001L 13,58.0001L 9.99999,58.0001 Z M 10,62.0001L 10,65.0001L 13,65.0001L 13,62.0001L 10,62.0001 Z M 10,66.0001L 10,69.0001L 13,69.0001L 13,66.0001L 10,66.0001 Z M 10,70.0001L 10,77.0001L 13,77.0001L 13,70.0001L 10,70.0001 Z M 10,78L 10,81.0001L 13,81.0001L 13,78L 10,78 Z M 10,82L 10,85L 12.9999,85L 12.9999,82L 10,82 Z M 10,86L 10,89L 12.9999,89L 12.9999,86L 10,86 Z M 10,90L 10,93L 12.9999,93L 12.9999,90L 10,90 Z M 5.99997,6.00019L 5.99997,9.00043L 9,9.00043L 9,6.00019L 5.99997,6.00019 Z M 5.99997,10.0004L 5.99997,13.0004L 9,13.0004L 9,10.0004L 5.99997,10.0004 Z M 5.99997,14.0002L 5.99997,17.0002L 9,17.0002L 9,14.0002L 5.99997,14.0002 Z M 5.99997,18.0002L 5.99997,21.0002L 9,21.0002L 9,18.0002L 5.99997,18.0002 Z M 5.99997,22.0001L 5.99997,29.0002L 9.00001,29.0002L 9,22.0001L 5.99997,22.0001 Z M 5.99997,30.0002L 5.99997,33.0002L 9.00001,33.0002L 9.00001,30.0002L 5.99997,30.0002 Z M 5.99997,34.0001L 5.99997,37.0002L 9.00001,37.0002L 9.00001,34.0001L 5.99997,34.0001 Z M 5.99997,38.0002L 5.99997,41.0002L 9.00001,41.0002L 9.00001,38.0002L 5.99997,38.0002 Z M 5.99997,42.0001L 5.99997,45.0002L 9.00001,45.0002L 9.00001,42.0001L 5.99997,42.0001 Z M 5.99997,46.0002L 5.99997,53.0002L 9.00001,53.0002L 9.00001,46.0002L 5.99997,46.0002 Z M 5.99997,54.0001L 5.99997,57.0001L 9.00001,57.0001L 9.00001,54.0001L 5.99997,54.0001 Z M 5.99997,58.0001L 5.99997,61.0001L 9.00002,61.0001L 9.00001,58.0001L 5.99997,58.0001 Z M 5.99997,62.0001L 5.99997,65.0001L 9.00002,65.0001L 9.00002,62.0001L 5.99997,62.0001 Z M 5.99997,66.0001L 5.99997,69.0001L 9.00002,69.0001L 9.00002,66.0001L 5.99997,66.0001 Z M 5.99997,70.0001L 5.99997,77.0001L 9.00002,77.0001L 9.00002,70.0001L 5.99997,70.0001 Z M 5.99997,78L 5.99997,81.0001L 9.00002,81.0001L 9.00002,78L 5.99997,78 Z M 5.99997,82L 5.99997,85L 9.00002,85L 9.00002,82L 5.99997,82 Z M 5.99997,86L 5.99997,89L 9.00002,89L 9.00002,86L 5.99997,86 Z M 5.99997,90L 5.99997,93L 9.00002,93L 9.00002,90L 5.99997,90 Z "/>
	<path fill="#5389A4" fill-opacity="0.203922" stroke-width="0.2" stroke-linejoin="miter" d="M 98,0L 98,1L 1,1.00001L 1,98L 0,98L 0,0L 98,0 Z "/>
	<path fill="#000000" fill-opacity="1" stroke-width="0.2" stroke-linejoin="miter" d="M 83,59L 83,65L 77,65L 77,59L 83,59 Z M 75,39L 69,39L 69,37C 69,30.3724 74.3724,25 81,25C 87.6276,25 93,30.3724 93,37C 93,40.884 91.0547,44.5 87.824,46.632L 86.6524,47.404C 84.3716,48.9092 82.9996,51.4596 83,54.192L 83,55L 77,55L 77,54.192C 77,49.444 79.384,45.012 83.3477,42.396L 84.52,41.624C 86.0664,40.6 87,38.868 87,37.012C 87.0032,33.6984 84.3196,31.0092 81.006,31.006C 77.6924,31.0028 75.0032,33.6864 75,37L 75,39 Z "/>
	<path fill="#B440AE" fill-opacity="0.501961" stroke-linejoin="miter" stroke="#B440AE" stroke-opacity="1" d="M 53,33C 53,41.8364 45.8364,49 37,49C 28.1635,49 21,41.8364 21,33C 21,24.1636 28.1635,17 37,17C 45.8364,17 53,24.1636 53,33 Z M 69,73L 69,81L 5.00002,81L 5.00002,73C 5.00002,64.16 19.32,57 37,57C 54.68,57 69,64.16 69,73 Z "/>
	<path fill="#B440AE" fill-opacity="1" stroke-linejoin="round" d="M 51.433,40.8415L 50.6817,42.2256L 49.0767,44.1709L 48.248,43.6111L 49.8531,41.6658L 50.512,40.4519L 51.433,40.8415 Z M 45.8897,46.864L 43.4227,48.2031L 42.1908,48.5855L 41.8013,47.6645L 43.0331,47.2821L 45.3299,46.0354L 45.8897,46.864 Z M 38.1905,49.3799L 37,49.5L 34.1104,49.2087L 34.1104,48.2087L 37,48.5L 37.99,48.4002L 38.1905,49.3799 Z M 30.1215,47.9557L 27.7744,46.6817L 26.6743,45.774L 27.2341,44.9454L 28.3342,45.8531L 30.5111,47.0347L 30.1215,47.9557 Z M 23.8332,42.8497L 23.3183,42.2256L 21.7969,39.4226L 21.7394,39.2373L 22.6604,38.8478L 22.7179,39.0331L 24.1469,41.6658L 24.5403,42.1426L 23.8332,42.8497 Z M 20.73,35.2807L 20.5,33L 20.6814,31.2007L 21.6814,31.2007L 21.5,33L 21.7097,35.0803L 20.73,35.2807 Z M 21.5964,27.2231L 21.7969,26.5773L 23.3183,23.7744L 23.5286,23.5195L 24.3572,24.0793L 24.1469,24.3342L 22.7179,26.9669L 22.5761,27.4236L 21.5964,27.2231 Z M 26.3051,20.5305L 27.7744,19.3183L 29.6997,18.2732L 30.2595,19.1018L 28.3342,20.1469L 27.0122,21.2376L 26.3051,20.5305 Z M 33.5363,16.8783L 33.6752,16.8352L 37,16.5L 37.709,16.5715L 37.709,17.5715L 37,17.5L 33.8757,17.8149L 33.9258,17.7993L 33.5363,16.8783 Z M 41.7304,17.2715L 43.4227,17.7969L 45.4678,18.907L 45.0783,19.828L 43.0331,18.7179L 41.5299,18.2512L 41.7304,17.2715 Z M 48.7721,21.4598L 50.6817,23.7744L 51.204,24.7366L 50.3754,25.2964L 49.8531,24.3342L 48.065,22.1669L 48.7721,21.4598 Z M 52.7968,28.4897L 53.1648,29.6752L 53.4514,32.5185L 52.4717,32.719L 52.1851,29.8757L 51.8758,28.8793L 52.7968,28.4897 Z M 53.5,33L 53.1648,36.3247L 52.9397,37.0497L 51.96,36.8493L 52.1851,36.1243L 52.5,33L 53.5,33 Z M 65.3832,81.5L 61.3832,81.5L 61.3832,80.5L 65.3832,80.5L 65.3832,81.5 Z M 57.3832,81.5L 53.3832,81.5L 53.3832,80.5L 57.3832,80.5L 57.3832,81.5 Z M 49.3832,81.5L 45.3832,81.5L 45.3832,80.5L 49.3832,80.5L 49.3832,81.5 Z M 41.3832,81.5L 37.3832,81.5L 37.3832,80.5L 41.3832,80.5L 41.3832,81.5 Z M 33.3832,81.5L 29.3832,81.5L 29.3832,80.5L 33.3832,80.5L 33.3832,81.5 Z M 25.3832,81.5L 21.3832,81.5L 21.3832,80.5L 25.3832,80.5L 25.3832,81.5 Z M 17.3832,81.5L 13.3832,81.5L 13.3832,80.5L 17.3832,80.5L 17.3832,81.5 Z M 9.38317,81.5L 5.38317,81.5L 5.38317,80.5L 9.38317,80.5L 9.38317,81.5 Z M 4.50002,77.3831L 4.50002,73.3831L 5.50002,73.3831L 5.50002,77.3831L 4.50002,77.3831 Z M 5.35922,69.3077L 7.13197,66.4478L 7.71394,65.9115L 8.47754,66.5572L 7.89557,67.0935L 6.2848,69.6863L 5.35922,69.3077 Z M 10.8333,63.2463L 14.1464,61.2378L 14.3427,61.1568L 14.7899,62.0512L 14.5936,62.1322L 11.4283,64.05L 10.8333,63.2463 Z M 18.0405,59.6315L 18.9455,59.2579L 21.9275,58.4489L 22.2475,59.3963L 19.2655,60.2053L 18.4877,60.5259L 18.0405,59.6315 Z M 25.8782,57.5442L 29.8309,56.9311L 30.0377,57.9094L 26.085,58.5226L 25.8782,57.5442 Z M 33.8718,56.6576L 37,56.5L 37.9176,56.5462L 37.9176,57.5462L 37,57.5L 33.9735,57.6524L 33.8718,56.6576 Z M 41.9125,56.7474L 43.502,56.8275L 45.9324,57.2045L 45.8307,58.1993L 43.4003,57.8223L 41.9125,57.7474L 41.9125,56.7474 Z M 49.9289,57.8672L 53.7893,58.9145L 53.5825,59.8929L 49.7221,58.8455L 49.9289,57.8672 Z M 57.5946,60.3057L 59.8536,61.2378L 61.2434,62.0801L 60.7962,62.9745L 59.4064,62.1322L 57.2746,61.2531L 57.5946,60.3057 Z M 64.6115,64.3671L 66.8681,66.4478L 67.4196,67.3367L 66.656,67.9823L 66.1045,67.0935L 64.0165,65.1708L 64.6115,64.3671 Z M 69.1114,71.0664L 69.5,73L 69.5,76.6168L 69.5,80.6168L 68.5,80.6168L 68.5,76.6168L 68.5,73L 68.1858,71.4449L 69.1114,71.0664 Z "/>
</svg>
