<?xml version="1.0" encoding="utf-8"?>
<!-- Generator: Adobe Illustrator 25.4.1, SVG Export Plug-In . SVG Version: 6.00 Build 0)  -->
<svg version="1.1" id="Layer_1" xmlns="http://www.w3.org/2000/svg" xmlns:xlink="http://www.w3.org/1999/xlink" x="0px" y="0px"
	 viewBox="0 0 98 98" enable-background="new 0 0 98 98" xml:space="preserve">
<path fill="#5389A4" fill-opacity="0.502" d="M1,1l97,0v97H1V1z M2,2v23h23V2L2,2z M97,25V2L74,2v23H97z M50,2v23h23V2L50,2z M26,2
	v23h23V2L26,2z M2,97h23V74H2V97z M97,97l0-23H74v23H97z M50,74v23h23V74H50z M26,74l0,23h23V74H26z M97,50H74v23h23V50z M50,50v23
	h23V50H50z M26,50v23h23V50H26z M2,50v23h23V50H2z M97,26H74v23h23L97,26z M50,26v23h23V26H50z M26,26v23h23V26H26z M2,26v23h23V26
	H2z"/>
<path fill="#5389A4" fill-opacity="0.2039" d="M2,5h3V2h1v3h3V2h1v3h3V2h1v3h3V2h1v3h3V2h1v3h7V2h1v3h3V2h1v3h3V2h1v3h3V2h1v3h3V2h1
	v3h7V2h1v3h3V2h1v3h3V2h1v3h3V2h1v3h3V2h1v3h7V2h1v3h3V2h1v3h3V2h1v3h3V2h1v3h3V2h1v3h3v1h-3v3h3v1h-3v3h3v1h-3v3h3v1h-3v3h3v1h-3v7
	h3v1h-3v3h3v1h-3v3h3v1h-3v3h3v1h-3v3h3v1h-3v7h3v1h-3v3h3v1h-3v3h3v1h-3v3h3v1h-3v3h3v1h-3v7h3v1h-3v3h3v1h-3v3h3v1h-3v3h3v1h-3v3
	h3v1h-3v3h-1v-3h-3v3h-1v-3h-3v3h-1v-3h-3v3h-1v-3h-3v3h-1v-3h-7v3h-1v-3h-3v3h-1v-3h-3v3h-1v-3h-3v3h-1v-3h-3v3h-1v-3h-7v3h-1v-3
	h-3v3h-1v-3h-3v3h-1v-3h-3v3h-1v-3h-3v3h-1v-3h-7v3h-1v-3h-3v3h-1v-3h-3v3h-1v-3h-3v3H9v-3H6v3H5v-3H2v-1h3v-3H2v-1h3v-3H2v-1h3v-3
	H2v-1h3v-3H2v-1h3v-7H2v-1h3v-3H2v-1h3v-3H2v-1h3v-3H2v-1h3v-3H2v-1h3v-7H2v-1h3v-3H2v-1h3v-3H2v-1h3v-3H2v-1h3v-3H2v-1h3v-7H2v-1h3
	v-3H2v-1h3v-3H2v-1h3v-3H2V9h3V6H2V5z M90,6v3h3V6H90z M90,10v3h3v-3H90z M90,14v3h3v-3H90z M90,18v3h3v-3H90z M90,22v7h3v-7H90z
	 M90,30v3h3v-3H90z M90,34v3h3v-3H90z M90,38v3h3v-3H90z M90,42v3h3v-3H90z M90,46v7h3v-7H90z M90,54v3h3v-3H90z M90,58v3h3v-3H90z
	 M90,62v3h3v-3H90z M90,66v3h3v-3H90z M90,70v7h3v-7H90z M90,78v3h3v-3H90z M90,82v3h3v-3H90z M90,86v3h3v-3H90z M90,90v3h3v-3H90z
	 M86,6v3h3V6H86z M86,10v3h3v-3H86z M86,14v3h3v-3H86z M86,18v3h3v-3H86z M86,22v7h3v-7H86z M86,30v3h3v-3H86z M86,34v3h3v-3H86z
	 M86,38v3h3v-3H86z M86,42v3h3v-3H86z M86,46v7h3v-7H86z M86,54v3h3v-3H86z M86,58v3h3v-3H86z M86,62v3h3v-3H86z M86,66v3h3v-3H86z
	 M86,70v7h3v-7H86z M86,78v3h3v-3H86z M86,82v3h3v-3H86z M86,86v3h3v-3H86z M86,90v3h3v-3H86z M82,6v3h3V6H82z M82,10v3h3v-3H82z
	 M82,14v3h3v-3H82z M82,18v3h3v-3H82z M82,22v7h3v-7H82z M82,30v3h3v-3H82z M82,34v3h3v-3H82z M82,38v3h3v-3H82z M82,42v3h3v-3H82z
	 M82,46v7h3v-7H82z M82,54v3h3v-3H82z M82,58v3h3v-3H82z M82,62v3h3v-3H82z M82,66v3h3v-3H82z M82,70v7h3v-7H82z M82,78v3h3v-3H82z
	 M82,82v3h3v-3H82z M82,86v3h3v-3H82z M82,90v3h3v-3H82z M78,6v3h3V6H78z M78,10v3h3v-3H78z M78,14v3h3v-3H78z M78,18v3h3v-3H78z
	 M78,22v7h3v-7H78z M78,30v3h3v-3H78z M78,34v3h3v-3H78z M78,38v3h3v-3H78z M78,42v3h3v-3H78z M78,46v7h3v-7H78z M78,54v3h3v-3H78z
	 M78,58v3h3v-3H78z M78,62v3h3v-3H78z M78,66v3h3v-3H78z M78,70v7h3v-7H78z M78,78v3h3v-3H78z M78,82v3h3v-3H78z M78,86v3h3v-3H78z
	 M78,90v3h3v-3H78z M70,6v3l7,0V6H70z M70,10v3h7v-3H70z M70,14v3h7v-3H70z M70,18v3h7v-3H70z M70,22v7h7v-7H70z M70,30v3h7v-3H70z
	 M70,34v3h7v-3H70z M70,38v3h7v-3H70z M70,42v3h7v-3H70z M70,46v7h7v-7H70z M70,54v3h7v-3H70z M70,58v3h7v-3H70z M70,62v3h7v-3H70z
	 M70,66v3h7v-3H70z M70,70v7h7v-7H70z M70,78v3h7v-3H70z M70,82v3h7v-3H70z M70,86v3h7v-3H70z M70,90v3h7v-3H70z M66,6v3h3V6H66z
	 M66,10v3h3v-3H66z M66,14v3h3v-3H66z M66,18v3h3v-3H66z M66,22v7h3v-7H66z M66,30v3h3v-3H66z M66,34v3h3v-3H66z M66,38v3h3v-3H66z
	 M66,42v3h3v-3H66z M66,46v7h3v-7H66z M66,54v3h3v-3H66z M66,58v3h3v-3H66z M66,62v3h3v-3H66z M66,66v3h3v-3H66z M66,70v7h3v-7H66z
	 M66,78v3h3v-3H66z M66,82v3h3v-3H66z M66,86v3h3v-3H66z M66,90v3h3v-3H66z M62,6v3h3V6H62z M62,10v3h3v-3H62z M62,14v3h3v-3H62z
	 M62,18v3h3v-3H62z M62,22v7h3v-7H62z M62,30v3h3v-3H62z M62,34v3h3v-3H62z M62,38v3h3v-3H62z M62,42v3h3v-3H62z M62,46v7h3v-7H62z
	 M62,54v3h3v-3H62z M62,58v3h3v-3H62z M62,62v3h3v-3H62z M62,66v3h3v-3H62z M62,70v7h3v-7H62z M62,78v3h3v-3H62z M62,82v3h3v-3H62z
	 M62,86v3h3v-3H62z M62,90v3h3v-3H62z M58,6v3h3V6H58z M58,10v3h3v-3H58z M58,14v3h3v-3H58z M58,18v3h3v-3H58z M58,22v7h3v-7H58z
	 M58,30v3h3v-3H58z M58,34v3h3v-3H58z M58,38v3h3v-3H58z M58,42v3h3v-3H58z M58,46v7h3v-7H58z M58,54v3h3v-3H58z M58,58v3h3v-3H58z
	 M58,62v3h3v-3H58z M58,66v3h3v-3H58z M58,70v7h3v-7H58z M58,78v3h3v-3H58z M58,82v3h3v-3H58z M58,86v3h3v-3H58z M58,90v3h3v-3H58z
	 M54,6v3h3V6H54z M54,10v3h3v-3H54z M54,14v3h3v-3H54z M54,18v3h3v-3H54z M54,22v7h3v-7H54z M54,30v3h3v-3H54z M54,34v3h3v-3H54z
	 M54,38v3h3v-3H54z M54,42v3h3v-3H54z M54,46v7h3v-7H54z M54,54v3h3v-3H54z M54,58v3h3v-3H54z M54,62v3h3v-3H54z M54,66v3h3v-3H54z
	 M54,70v7h3v-7H54z M54,78v3h3v-3H54z M54,82v3h3v-3H54z M54,86v3h3v-3H54z M54,90v3h3v-3H54z M46,6v3h7V6H46z M46,10v3h7v-3H46z
	 M46,14v3h7v-3H46z M46,18v3h7v-3H46z M46,22v7h7v-7H46z M46,30v3h7v-3H46z M46,34v3h7v-3H46z M46,38v3h7v-3H46z M46,42v3h7v-3H46z
	 M46,46v7h7v-7H46z M46,54v3h7v-3H46z M46,58v3h7v-3H46z M46,62v3h7v-3H46z M46,66v3h7v-3H46z M46,70v7h7v-7H46z M46,78v3h7v-3H46z
	 M46,82v3h7v-3H46z M46,86v3h7v-3H46z M46,90v3h7v-3H46z M42,6v3h3V6H42z M42,10v3h3v-3H42z M42,14v3h3v-3H42z M42,18v3h3v-3H42z
	 M42,22v7h3v-7H42z M42,30v3h3v-3H42z M42,34v3h3v-3H42z M42,38v3h3v-3H42z M42,42v3h3v-3H42z M42,46v7h3v-7H42z M42,54v3h3v-3H42z
	 M42,58v3h3v-3H42z M42,62v3h3v-3H42z M42,66v3h3v-3H42z M42,70v7h3v-7H42z M42,78v3h3v-3H42z M42,82v3h3v-3H42z M42,86v3h3v-3H42z
	 M42,90v3h3v-3H42z M38,6v3h3V6H38z M38,10v3h3v-3H38z M38,14v3h3v-3H38z M38,18v3h3v-3H38z M38,22v7h3v-7H38z M38,30v3h3v-3H38z
	 M38,34v3h3v-3H38z M38,38v3h3v-3H38z M38,42v3h3v-3H38z M38,46v7h3v-7H38z M38,54v3h3v-3H38z M38,58v3h3v-3H38z M38,62v3h3v-3H38z
	 M38,66v3h3v-3H38z M38,70l0,7h3v-7H38z M38,78v3h3v-3H38z M38,82v3h3v-3H38z M38,86v3h3v-3H38z M38,90v3h3v-3H38z M34,6v3h3V6H34z
	 M34,10v3h3v-3H34z M34,14v3h3v-3H34z M34,18v3h3v-3H34z M34,22v7h3v-7H34z M34,30v3h3v-3H34z M34,34v3h3v-3H34z M34,38v3h3v-3H34z
	 M34,42v3h3v-3H34z M34,46v7h3v-7H34z M34,54v3h3v-3H34z M34,58v3h3v-3H34z M34,62v3h3v-3H34z M34,66v3h3v-3H34z M34,70v7h3v-7H34z
	 M34,78v3h3v-3H34z M34,82v3h3v-3H34z M34,86v3h3v-3H34z M34,90v3h3v-3H34z M30,6v3h3V6H30z M30,10v3h3v-3H30z M30,14v3h3v-3H30z
	 M30,18v3h3v-3H30z M30,22v7h3v-7H30z M30,30v3h3v-3H30z M30,34v3h3v-3H30z M30,38v3h3v-3H30z M30,42v3h3v-3H30z M30,46v7h3v-7H30z
	 M30,54v3h3v-3H30z M30,58v3h3v-3H30z M30,62v3h3v-3H30z M30,66v3h3v-3H30z M30,70v7h3v-7H30z M30,78v3h3v-3H30z M30,82v3h3v-3H30z
	 M30,86v3h3v-3H30z M30,90v3h3v-3H30z M22,6v3h7V6H22z M22,10v3h7v-3H22z M22,14v3h7v-3H22z M22,18v3h7v-3H22z M22,22v7h7v-7H22z
	 M22,30v3h7v-3H22z M22,34v3h7v-3H22z M22,38v3h7v-3H22z M22,42v3h7v-3H22z M22,46v7h7v-7H22z M22,54v3h7v-3H22z M22,58v3h7v-3H22z
	 M22,62v3h7v-3H22z M22,66v3h7v-3H22z M22,70v7h7v-7H22z M22,78v3h7v-3H22z M22,82v3h7v-3H22z M22,86v3h7v-3H22z M22,90v3h7v-3H22z
	 M18,6v3h3V6H18z M18,10v3h3v-3H18z M18,14v3h3v-3H18z M18,18v3h3v-3H18z M18,22v7h3v-7H18z M18,30v3h3v-3H18z M18,34v3h3l0-3H18z
	 M18,38v3h3v-3H18z M18,42v3h3v-3H18z M18,46v7h3v-7H18z M18,54l0,3h3v-3H18z M18,58v3h3v-3H18z M18,62v3h3v-3H18z M18,66v3h3v-3H18
	z M18,70v7h3v-7H18z M18,78v3h3v-3H18z M18,82v3h3v-3H18z M18,86v3h3v-3H18z M18,90v3h3v-3H18z M14,6v3h3V6H14z M14,10v3h3v-3H14z
	 M14,14v3h3v-3H14z M14,18v3h3v-3H14z M14,22v7h3v-7H14z M14,30v3h3v-3H14z M14,34v3h3v-3H14z M14,38v3h3v-3H14z M14,42v3h3v-3H14z
	 M14,46v7h3v-7H14z M14,54v3h3v-3H14z M14,58v3h3v-3H14z M14,62v3h3v-3H14z M14,66v3h3v-3H14z M14,70v7h3v-7H14z M14,78v3h3v-3H14z
	 M14,82v3h3v-3H14z M14,86v3h3v-3H14z M14,90v3h3v-3H14z M10,6v3h3V6H10z M10,10v3h3v-3H10z M10,14v3h3v-3H10z M10,18v3h3v-3H10z
	 M10,22l0,7h3v-7H10z M10,30v3h3v-3H10z M10,34v3h3v-3H10z M10,38v3h3v-3H10z M10,42v3h3v-3H10z M10,46v7h3v-7H10z M10,54v3h3v-3H10
	z M10,58l0,3h3v-3H10z M10,62v3h3v-3H10z M10,66v3h3v-3H10z M10,70v7h3v-7H10z M10,78v3h3v-3H10z M10,82v3h3v-3H10z M10,86v3h3v-3
	H10z M10,90v3h3v-3H10z M6,6v3h3V6H6z M6,10v3h3v-3H6z M6,14v3h3v-3H6z M6,18v3h3v-3H6z M6,22v7h3l0-7H6z M6,30v3h3v-3H6z M6,34v3h3
	v-3H6z M6,38v3h3v-3H6z M6,42v3h3v-3H6z M6,46v7h3v-7H6z M6,54v3h3v-3H6z M6,58v3h3l0-3H6z M6,62v3h3v-3H6z M6,66v3h3v-3H6z M6,70v7
	h3v-7H6z M6,78v3h3v-3H6z M6,82v3h3v-3H6z M6,86v3h3v-3H6z M6,90v3h3v-3H6z"/>
<path fill="#5389A4" fill-opacity="0.2039" d="M98,0v1L1,1v97H0V0H98z"/>
<path fill="#B440AE" fill-opacity="0.502" stroke="#B440AE" d="M69.989,52.782c-14.251,0-26.842,8.422-32.078,21.456l-1.223,3.044
	l1.223,3.044c5.236,13.034,17.827,21.456,32.078,21.456s26.842-8.422,32.078-21.456l1.223-3.044l-1.223-3.044
	C96.831,61.203,84.24,52.782,69.989,52.782L69.989,52.782z"/>
<path d="M69.989,73.198c2.287,0,4.083,1.797,4.083,4.083c0,2.287-1.797,4.083-4.083,4.083s-4.083-1.797-4.083-4.083
	C65.905,74.995,67.702,73.198,69.989,73.198 M69.989,60.948c-11.147,0-20.662,6.778-24.5,16.333
	c3.838,9.555,13.353,16.333,24.5,16.333s20.662-6.778,24.5-16.333C90.65,67.726,81.136,60.948,69.989,60.948z M69.989,87.49
	c-5.635,0-10.208-4.573-10.208-10.208c0-5.635,4.573-10.208,10.208-10.208s10.208,4.573,10.208,10.208
	C80.197,82.917,75.624,87.49,69.989,87.49z"/>
</svg>
