<?xml version="1.0" encoding="utf-8"?>
<!-- Generator: Adobe Illustrator 25.4.1, SVG Export Plug-In . SVG Version: 6.00 Build 0)  -->
<svg version="1.1" id="Layer_1" xmlns="http://www.w3.org/2000/svg" xmlns:xlink="http://www.w3.org/1999/xlink" x="0px" y="0px"
	 viewBox="0 0 98 98" enable-background="new 0 0 98 98" xml:space="preserve">
<path fill="#5389A4" fill-opacity="0.502" d="M1,1l97,0v97H1V1z M2,2v23h23V2L2,2z M97,25V2L74,2v23H97z M50,2v23h23V2L50,2z M26,2
	v23h23V2L26,2z M2,97h23V74H2V97z M97,97l0-23H74v23H97z M50,74v23h23V74H50z M26,74l0,23h23V74H26z M97,50H74v23h23V50z M50,50v23
	h23V50H50z M26,50v23h23V50H26z M2,50v23h23V50H2z M97,26H74v23h23L97,26z M50,26v23h23V26H50z M26,26v23h23V26H26z M2,26v23h23V26
	H2z"/>
<path fill="#5389A4" fill-opacity="0.2039" d="M2,5h3V2h1v3h3V2h1v3h3V2h1v3h3V2h1v3h3V2h1v3h7V2h1v3h3V2h1v3h3V2h1v3h3V2h1v3h3V2h1
	v3h7V2h1v3h3V2h1v3h3V2h1v3h3V2h1v3h3V2h1v3h7V2h1v3h3V2h1v3h3V2h1v3h3V2h1v3h3V2h1v3h3v1h-3v3h3v1h-3v3h3v1h-3v3h3v1h-3v3h3v1h-3v7
	h3v1h-3v3h3v1h-3v3h3v1h-3v3h3v1h-3v3h3v1h-3v7h3v1h-3v3h3v1h-3v3h3v1h-3v3h3v1h-3v3h3v1h-3v7h3v1h-3v3h3v1h-3v3h3v1h-3v3h3v1h-3v3
	h3v1h-3v3h-1v-3h-3v3h-1v-3h-3v3h-1v-3h-3v3h-1v-3h-3v3h-1v-3h-7v3h-1v-3h-3v3h-1v-3h-3v3h-1v-3h-3v3h-1v-3h-3v3h-1v-3h-7v3h-1v-3
	h-3v3h-1v-3h-3v3h-1v-3h-3v3h-1v-3h-3v3h-1v-3h-7v3h-1v-3h-3v3h-1v-3h-3v3h-1v-3h-3v3H9v-3H6v3H5v-3H2v-1h3v-3H2v-1h3v-3H2v-1h3v-3
	H2v-1h3v-3H2v-1h3v-7H2v-1h3v-3H2v-1h3v-3H2v-1h3v-3H2v-1h3v-3H2v-1h3v-7H2v-1h3v-3H2v-1h3v-3H2v-1h3v-3H2v-1h3v-3H2v-1h3v-7H2v-1h3
	v-3H2v-1h3v-3H2v-1h3v-3H2V9h3V6H2V5z M90,6v3h3V6H90z M90,10v3h3v-3H90z M90,14v3h3v-3H90z M90,18v3h3v-3H90z M90,22v7h3v-7H90z
	 M90,30v3h3v-3H90z M90,34v3h3v-3H90z M90,38v3h3v-3H90z M90,42v3h3v-3H90z M90,46v7h3v-7H90z M90,54v3h3v-3H90z M90,58v3h3v-3H90z
	 M90,62v3h3v-3H90z M90,66v3h3v-3H90z M90,70v7h3v-7H90z M90,78v3h3v-3H90z M90,82v3h3v-3H90z M90,86v3h3v-3H90z M90,90v3h3v-3H90z
	 M86,6v3h3V6H86z M86,10v3h3v-3H86z M86,14v3h3v-3H86z M86,18v3h3v-3H86z M86,22v7h3v-7H86z M86,30v3h3v-3H86z M86,34v3h3v-3H86z
	 M86,38v3h3v-3H86z M86,42v3h3v-3H86z M86,46v7h3v-7H86z M86,54v3h3v-3H86z M86,58v3h3v-3H86z M86,62v3h3v-3H86z M86,66v3h3v-3H86z
	 M86,70v7h3v-7H86z M86,78v3h3v-3H86z M86,82v3h3v-3H86z M86,86v3h3v-3H86z M86,90v3h3v-3H86z M82,6v3h3V6H82z M82,10v3h3v-3H82z
	 M82,14v3h3v-3H82z M82,18v3h3v-3H82z M82,22v7h3v-7H82z M82,30v3h3v-3H82z M82,34v3h3v-3H82z M82,38v3h3v-3H82z M82,42v3h3v-3H82z
	 M82,46v7h3v-7H82z M82,54v3h3v-3H82z M82,58v3h3v-3H82z M82,62v3h3v-3H82z M82,66v3h3v-3H82z M82,70v7h3v-7H82z M82,78v3h3v-3H82z
	 M82,82v3h3v-3H82z M82,86v3h3v-3H82z M82,90v3h3v-3H82z M78,6v3h3V6H78z M78,10v3h3v-3H78z M78,14v3h3v-3H78z M78,18v3h3v-3H78z
	 M78,22v7h3v-7H78z M78,30v3h3v-3H78z M78,34v3h3v-3H78z M78,38v3h3v-3H78z M78,42v3h3v-3H78z M78,46v7h3v-7H78z M78,54v3h3v-3H78z
	 M78,58v3h3v-3H78z M78,62v3h3v-3H78z M78,66v3h3v-3H78z M78,70v7h3v-7H78z M78,78v3h3v-3H78z M78,82v3h3v-3H78z M78,86v3h3v-3H78z
	 M78,90v3h3v-3H78z M70,6v3l7,0V6H70z M70,10v3h7v-3H70z M70,14v3h7v-3H70z M70,18v3h7v-3H70z M70,22v7h7v-7H70z M70,30v3h7v-3H70z
	 M70,34v3h7v-3H70z M70,38v3h7v-3H70z M70,42v3h7v-3H70z M70,46v7h7v-7H70z M70,54v3h7v-3H70z M70,58v3h7v-3H70z M70,62v3h7v-3H70z
	 M70,66v3h7v-3H70z M70,70v7h7v-7H70z M70,78v3h7v-3H70z M70,82v3h7v-3H70z M70,86v3h7v-3H70z M70,90v3h7v-3H70z M66,6v3h3V6H66z
	 M66,10v3h3v-3H66z M66,14v3h3v-3H66z M66,18v3h3v-3H66z M66,22v7h3v-7H66z M66,30v3h3v-3H66z M66,34v3h3v-3H66z M66,38v3h3v-3H66z
	 M66,42v3h3v-3H66z M66,46v7h3v-7H66z M66,54v3h3v-3H66z M66,58v3h3v-3H66z M66,62v3h3v-3H66z M66,66v3h3v-3H66z M66,70v7h3v-7H66z
	 M66,78v3h3v-3H66z M66,82v3h3v-3H66z M66,86v3h3v-3H66z M66,90v3h3v-3H66z M62,6v3h3V6H62z M62,10v3h3v-3H62z M62,14v3h3v-3H62z
	 M62,18v3h3v-3H62z M62,22v7h3v-7H62z M62,30v3h3v-3H62z M62,34v3h3v-3H62z M62,38v3h3v-3H62z M62,42v3h3v-3H62z M62,46v7h3v-7H62z
	 M62,54v3h3v-3H62z M62,58v3h3v-3H62z M62,62v3h3v-3H62z M62,66v3h3v-3H62z M62,70v7h3v-7H62z M62,78v3h3v-3H62z M62,82v3h3v-3H62z
	 M62,86v3h3v-3H62z M62,90v3h3v-3H62z M58,6v3h3V6H58z M58,10v3h3v-3H58z M58,14v3h3v-3H58z M58,18v3h3v-3H58z M58,22v7h3v-7H58z
	 M58,30v3h3v-3H58z M58,34v3h3v-3H58z M58,38v3h3v-3H58z M58,42v3h3v-3H58z M58,46v7h3v-7H58z M58,54v3h3v-3H58z M58,58v3h3v-3H58z
	 M58,62v3h3v-3H58z M58,66v3h3v-3H58z M58,70v7h3v-7H58z M58,78v3h3v-3H58z M58,82v3h3v-3H58z M58,86v3h3v-3H58z M58,90v3h3v-3H58z
	 M54,6v3h3V6H54z M54,10v3h3v-3H54z M54,14v3h3v-3H54z M54,18v3h3v-3H54z M54,22v7h3v-7H54z M54,30v3h3v-3H54z M54,34v3h3v-3H54z
	 M54,38v3h3v-3H54z M54,42v3h3v-3H54z M54,46v7h3v-7H54z M54,54v3h3v-3H54z M54,58v3h3v-3H54z M54,62v3h3v-3H54z M54,66v3h3v-3H54z
	 M54,70v7h3v-7H54z M54,78v3h3v-3H54z M54,82v3h3v-3H54z M54,86v3h3v-3H54z M54,90v3h3v-3H54z M46,6v3h7V6H46z M46,10v3h7v-3H46z
	 M46,14v3h7v-3H46z M46,18v3h7v-3H46z M46,22v7h7v-7H46z M46,30v3h7v-3H46z M46,34v3h7v-3H46z M46,38v3h7v-3H46z M46,42v3h7v-3H46z
	 M46,46v7h7v-7H46z M46,54v3h7v-3H46z M46,58v3h7v-3H46z M46,62v3h7v-3H46z M46,66v3h7v-3H46z M46,70v7h7v-7H46z M46,78v3h7v-3H46z
	 M46,82v3h7v-3H46z M46,86v3h7v-3H46z M46,90v3h7v-3H46z M42,6v3h3V6H42z M42,10v3h3v-3H42z M42,14v3h3v-3H42z M42,18v3h3v-3H42z
	 M42,22v7h3v-7H42z M42,30v3h3v-3H42z M42,34v3h3v-3H42z M42,38v3h3v-3H42z M42,42v3h3v-3H42z M42,46v7h3v-7H42z M42,54v3h3v-3H42z
	 M42,58v3h3v-3H42z M42,62v3h3v-3H42z M42,66v3h3v-3H42z M42,70v7h3v-7H42z M42,78v3h3v-3H42z M42,82v3h3v-3H42z M42,86v3h3v-3H42z
	 M42,90v3h3v-3H42z M38,6v3h3V6H38z M38,10v3h3v-3H38z M38,14v3h3v-3H38z M38,18v3h3v-3H38z M38,22v7h3v-7H38z M38,30v3h3v-3H38z
	 M38,34v3h3v-3H38z M38,38v3h3v-3H38z M38,42v3h3v-3H38z M38,46v7h3v-7H38z M38,54v3h3v-3H38z M38,58v3h3v-3H38z M38,62v3h3v-3H38z
	 M38,66v3h3v-3H38z M38,70l0,7h3v-7H38z M38,78v3h3v-3H38z M38,82v3h3v-3H38z M38,86v3h3v-3H38z M38,90v3h3v-3H38z M34,6v3h3V6H34z
	 M34,10v3h3v-3H34z M34,14v3h3v-3H34z M34,18v3h3v-3H34z M34,22v7h3v-7H34z M34,30v3h3v-3H34z M34,34v3h3v-3H34z M34,38v3h3v-3H34z
	 M34,42v3h3v-3H34z M34,46v7h3v-7H34z M34,54v3h3v-3H34z M34,58v3h3v-3H34z M34,62v3h3v-3H34z M34,66v3h3v-3H34z M34,70v7h3v-7H34z
	 M34,78v3h3v-3H34z M34,82v3h3v-3H34z M34,86v3h3v-3H34z M34,90v3h3v-3H34z M30,6v3h3V6H30z M30,10v3h3v-3H30z M30,14v3h3v-3H30z
	 M30,18v3h3v-3H30z M30,22v7h3v-7H30z M30,30v3h3v-3H30z M30,34v3h3v-3H30z M30,38v3h3v-3H30z M30,42v3h3v-3H30z M30,46v7h3v-7H30z
	 M30,54v3h3v-3H30z M30,58v3h3v-3H30z M30,62v3h3v-3H30z M30,66v3h3v-3H30z M30,70v7h3v-7H30z M30,78v3h3v-3H30z M30,82v3h3v-3H30z
	 M30,86v3h3v-3H30z M30,90v3h3v-3H30z M22,6v3h7V6H22z M22,10v3h7v-3H22z M22,14v3h7v-3H22z M22,18v3h7v-3H22z M22,22v7h7v-7H22z
	 M22,30v3h7v-3H22z M22,34v3h7v-3H22z M22,38v3h7v-3H22z M22,42v3h7v-3H22z M22,46v7h7v-7H22z M22,54v3h7v-3H22z M22,58v3h7v-3H22z
	 M22,62v3h7v-3H22z M22,66v3h7v-3H22z M22,70v7h7v-7H22z M22,78v3h7v-3H22z M22,82v3h7v-3H22z M22,86v3h7v-3H22z M22,90v3h7v-3H22z
	 M18,6v3h3V6H18z M18,10v3h3v-3H18z M18,14v3h3v-3H18z M18,18v3h3v-3H18z M18,22v7h3v-7H18z M18,30v3h3v-3H18z M18,34v3h3l0-3H18z
	 M18,38v3h3v-3H18z M18,42v3h3v-3H18z M18,46v7h3v-7H18z M18,54l0,3h3v-3H18z M18,58v3h3v-3H18z M18,62v3h3v-3H18z M18,66v3h3v-3H18
	z M18,70v7h3v-7H18z M18,78v3h3v-3H18z M18,82v3h3v-3H18z M18,86v3h3v-3H18z M18,90v3h3v-3H18z M14,6v3h3V6H14z M14,10v3h3v-3H14z
	 M14,14v3h3v-3H14z M14,18v3h3v-3H14z M14,22v7h3v-7H14z M14,30v3h3v-3H14z M14,34v3h3v-3H14z M14,38v3h3v-3H14z M14,42v3h3v-3H14z
	 M14,46v7h3v-7H14z M14,54v3h3v-3H14z M14,58v3h3v-3H14z M14,62v3h3v-3H14z M14,66v3h3v-3H14z M14,70v7h3v-7H14z M14,78v3h3v-3H14z
	 M14,82v3h3v-3H14z M14,86v3h3v-3H14z M14,90v3h3v-3H14z M10,6v3h3V6H10z M10,10v3h3v-3H10z M10,14v3h3v-3H10z M10,18v3h3v-3H10z
	 M10,22l0,7h3v-7H10z M10,30v3h3v-3H10z M10,34v3h3v-3H10z M10,38v3h3v-3H10z M10,42v3h3v-3H10z M10,46v7h3v-7H10z M10,54v3h3v-3H10
	z M10,58l0,3h3v-3H10z M10,62v3h3v-3H10z M10,66v3h3v-3H10z M10,70v7h3v-7H10z M10,78v3h3v-3H10z M10,82v3h3v-3H10z M10,86v3h3v-3
	H10z M10,90v3h3v-3H10z M6,6v3h3V6H6z M6,10v3h3v-3H6z M6,14v3h3v-3H6z M6,18v3h3v-3H6z M6,22v7h3l0-7H6z M6,30v3h3v-3H6z M6,34v3h3
	v-3H6z M6,38v3h3v-3H6z M6,42v3h3v-3H6z M6,46v7h3v-7H6z M6,54v3h3v-3H6z M6,58v3h3l0-3H6z M6,62v3h3v-3H6z M6,66v3h3v-3H6z M6,70v7
	h3v-7H6z M6,78v3h3v-3H6z M6,82v3h3v-3H6z M6,86v3h3v-3H6z M6,90v3h3v-3H6z"/>
<path fill="#5389A4" fill-opacity="0.2039" d="M98,0v1L1,1v97H0V0H98z"/>
<ellipse fill="#B440AE" fill-opacity="0.502" stroke="#B440AE" cx="73" cy="73" rx="24" ry="24"/>
<path fill="#B440AE" d="M80.935,49.928l1.602,0.497l2.128,1.155l-0.39,0.921l-2.128-1.155l-1.413-0.439L80.935,49.928z
	 M88.074,53.819l2.25,1.857l0.75,0.909l-0.707,0.707l-0.75-0.909l-2.103-1.735L88.074,53.819z M93.589,59.805l1.908,3.515
	l-0.829,0.56l-1.908-3.515L93.589,59.805z M96.741,67.221l0.261,0.842l0.323,3.201l-0.98,0.201l-0.323-3.201l-0.203-0.653
	L96.741,67.221z M97.264,75.344l-0.261,2.593l-0.443,1.428l-0.98-0.201l0.443-1.428l0.241-2.392H97.264z M95.203,83.22l-1.888,3.478
	l-0.089,0.107l-0.829-0.56l0.089-0.107l1.796-3.308L95.203,83.22z M90.681,89.891l-0.357,0.433l-2.726,2.249l-0.707-0.707
	l2.726-2.249l0.236-0.285L90.681,89.891z M84.124,94.713l-1.587,0.862l-2.188,0.679l-0.39-0.921l2.188-0.679l1.417-0.769
	L84.124,94.713z M76.371,97.16L73,97.5l-0.709-0.072v-1L73,96.5l3.171-0.32L76.371,97.16z M68.311,97.027l-0.248-0.025l-3.678-1.142
	l0.201-0.98l3.678,1.142l0.048,0.005V97.027z M60.709,94.079l-1.407-0.764l-1.925-1.588l0.56-0.829l1.925,1.588l1.237,0.672
	L60.709,94.079z M54.473,88.866l-1.788-2.167l-0.613-1.13l0.829-0.56l0.613,1.13l1.667,2.02L54.473,88.866z M50.234,81.919
	l-1.186-3.82l0.921-0.39l1.186,3.82L50.234,81.919z M48.604,74.027L48.5,73l0.308-3.053h1L49.5,73l0.083,0.826L48.604,74.027z
	 M49.652,65.955l0.773-2.492l0.711-1.31l0.921,0.389l-0.711,1.31l-0.715,2.302L49.652,65.955z M53.227,58.645l2.449-2.969
	l0.19-0.157l0.707,0.707l-0.19,0.157l-2.328,2.821L53.227,58.645z M58.952,52.973l0.35-0.289l3.201-1.737l0.56,0.829l-3.201,1.737
	l-0.203,0.167L58.952,52.973z M66.332,49.535l1.731-0.537l2.275-0.229l0.201,0.98l-2.275,0.229l-1.542,0.479L66.332,49.535z
	 M73,48.5l3.98,0.401v1L73,49.5V48.5z"/>
<path d="M69.37,55.619c-0.459,0-0.848,0.318-0.918,0.742l-0.671,4.662c-1.06,0.459-2.084,1.024-3.002,1.66L60.4,60.917
	c-0.388,0-0.848,0-1.095,0.459l-3.532,6.11c-0.212,0.388-0.141,0.848,0.212,1.13l3.744,2.896c-0.071,0.6-0.106,1.165-0.106,1.766
	c0,0.6,0.035,1.165,0.106,1.766l-3.744,2.896c-0.318,0.283-0.424,0.742-0.212,1.13l3.532,6.11c0.212,0.459,0.671,0.459,1.095,0.459
	l4.379-1.766c0.918,0.636,1.907,1.236,3.002,1.66l0.671,4.662c0.071,0.424,0.424,0.742,0.918,0.742h7.064
	c0.388,0,0.777-0.318,0.848-0.742l0.671-4.662c1.06-0.459,2.013-1.024,2.967-1.66l4.344,1.766c0.459,0,0.918,0,1.165-0.459
	l3.532-6.11c0.212-0.388,0.106-0.848-0.212-1.13l-3.779-2.896c0.071-0.6,0.141-1.165,0.141-1.766c0-0.6-0.035-1.165-0.141-1.766
	l3.744-2.896c0.318-0.283,0.424-0.742,0.212-1.13l-3.532-6.11c-0.212-0.459-0.671-0.459-1.13-0.459l-4.344,1.766
	c-0.954-0.636-1.907-1.236-3.002-1.66l-0.671-4.662c-0.035-0.424-0.424-0.742-0.812-0.742H69.37 M72.902,67.98
	c2.931,0,5.298,2.366,5.298,5.298c0,2.931-2.366,5.298-5.298,5.298c-2.967,0-5.298-2.366-5.298-5.298
	C67.604,70.346,69.971,67.98,72.902,67.98z"/>
</svg>
