<svg xmlns="http://www.w3.org/2000/svg" viewBox="0 0 156 156"><g transform="translate(-382 -1985)"><rect width="156" height="156" fill="#5a88ad" data-name="Rectangle 11" rx="20" transform="translate(382 1985)"/><path fill="#fff" d="M418.15 2003h48.4a18.126 18.126 0 0 1 18.15 18.15v18.15h18.15a18.126 18.126 0 0 1 18.15 18.15v48.4a18.126 18.126 0 0 1-18.15 18.15h-48.4a18.126 18.126 0 0 1-18.15-18.15v-18.15h-18.15a18.126 18.126 0 0 1-18.15-18.15v-48.4a18.126 18.126 0 0 1 18.15-18.15m66.55 66.55a18.126 18.126 0 0 1-18.15 18.15h-24.2v18.15a12.136 12.136 0 0 0 12.1 12.1h48.4a12.136 12.136 0 0 0 12.1-12.1v-48.4a12.136 12.136 0 0 0-12.1-12.1H484.7v24.2m-66.55-60.5a12.136 12.136 0 0 0-12.1 12.1v48.4a12.136 12.136 0 0 0 12.1 12.1h18.15v-24.2a18.126 18.126 0 0 1 18.15-18.15h24.2v-18.15a12.136 12.136 0 0 0-12.1-12.1h-48.4m48.4 72.6a12.136 12.136 0 0 0 12.1-12.1v-24.2h-24.2a12.136 12.136 0 0 0-12.1 12.1v24.2Z"/></g></svg>