<svg xmlns="http://www.w3.org/2000/svg" xml:space="preserve" viewBox="0 0 215 36"><title>Accusoft</title><path fill="#720072" d="M72.3 26.2c0-.8.2-1.7.6-2.4.4-.7 1-1.4 1.7-1.9.8-.6 1.7-1 2.6-1.2 1.1-.3 2.2-.4 3.3-.4 1.1 0 2.2.1 3.2.3 1 .2 2 .4 2.9.8v-2c.1-1.6-.5-3.3-1.6-4.5-1.2-1.1-2.7-1.7-4.3-1.7-1 0-2.1.2-3.1.6-1.2.4-2.3 1-3.3 1.8l-.7-1.3c2.1-1.5 4.6-2.4 7.2-2.5 2.1-.1 4.1.6 5.6 2.1 1.4 1.5 2.2 3.6 2.1 5.7v9.7c0 .6.2 1 .6 1V32h-.6c-.5 0-.9-.2-1.2-.5-.3-.3-.5-.8-.5-1.2v-1.6c-.9 1.2-2.1 2.1-3.5 2.7-1.4.6-3 1-4.6.9-.9 0-1.7-.2-2.5-.5s-1.5-.7-2.1-1.3c-.6-.5-1.1-1.2-1.4-1.9-.2-.8-.4-1.6-.4-2.4zm1.9-.1c0 .6.1 1.3.4 1.9.2.6.6 1.1 1 1.5.5.4 1 .8 1.6 1 .6.2 1.3.4 2 .4 1.4 0 2.8-.3 4.1-.8 1.1-.5 2.1-1.2 2.8-2.2.4-.4.6-1 .6-1.5v-3.5c-.9-.4-1.9-.6-2.9-.8-1-.2-2-.2-3.1-.2-.9 0-1.8.1-2.7.3-.7.2-1.4.5-2.1.9-.5.3-1 .8-1.3 1.4-.3.3-.4.9-.4 1.6zM92 21.9c0-1.3.2-2.7.7-3.9.5-1.2 1.1-2.3 2-3.2.9-.9 1.9-1.7 3.1-2.2 1.2-.5 2.6-.8 3.9-.8 1.7 0 3.3.4 4.8 1.2 1.4.8 2.4 2 3.1 3.4l-1.9.6c-.6-1.1-1.4-2-2.5-2.5-1.1-.6-2.3-.9-3.5-.9-1 0-2.1.2-3 .6-.9.4-1.8 1-2.5 1.8-1.5 1.6-2.3 3.8-2.3 6 0 1.1.2 2.3.6 3.3.4 1 1 1.9 1.7 2.7.7.8 1.5 1.4 2.5 1.8.9.5 2 .7 3 .7.7 0 1.4-.1 2-.3.7-.2 1.3-.4 1.9-.8.5-.3 1-.7 1.5-1.2.4-.4.7-.9.8-1.4l1.9.5c-.3.7-.7 1.4-1.2 1.9-.5.6-1.2 1.1-1.9 1.6-.7.4-1.5.8-2.3 1-.9.2-1.8.4-2.7.4-1.3 0-2.6-.3-3.9-.8-1.2-.5-2.2-1.3-3.1-2.2-.9-.9-1.6-2.1-2.1-3.3-.3-1.2-.5-2.6-.6-4zm19.8 0c0-1.3.2-2.7.7-3.9.5-1.2 1.1-2.3 2-3.2.9-.9 1.9-1.7 3.1-2.2 1.2-.5 2.6-.8 3.9-.8 1.7 0 3.3.4 4.8 1.2 1.4.8 2.4 2 3.1 3.4l-1.9.6c-.6-1.1-1.4-2-2.5-2.5-1.1-.6-2.3-.9-3.5-.9-1 0-2.1.2-3 .6-.9.4-1.8 1-2.5 1.8-1.5 1.6-2.3 3.8-2.3 6 0 1.1.2 2.3.6 3.3.4 1 1 1.9 1.7 2.7.7.8 1.5 1.4 2.5 1.8.9.5 2 .7 3 .7.7 0 1.4-.1 2-.3.7-.2 1.3-.4 1.9-.8.5-.3 1-.7 1.5-1.2.4-.4.7-.9.8-1.4l1.9.5c-.3.7-.7 1.4-1.2 1.9-.5.6-1.2 1.1-1.9 1.6-.7.4-1.5.8-2.3 1-.9.2-1.8.4-2.7.4-1.3 0-2.6-.3-3.9-.8-1.2-.5-2.2-1.3-3.1-2.2-.9-.9-1.6-2.1-2.1-3.3-.3-1.2-.6-2.6-.6-4zm21 1.7V12.2h1.9v11.1c0 4.8 1.7 7.3 5 7.3.8 0 1.7-.2 2.5-.4.8-.3 1.5-.7 2.2-1.2.7-.5 1.3-1.1 1.8-1.9.5-.7.9-1.6 1.2-2.4V12.2h1.9v17.1c0 .6.3.9.8.9v1.7h-.5c-.5 0-1-.2-1.4-.5-.4-.3-.6-.8-.6-1.3v-3c-.8 1.5-2 2.8-3.5 3.7-1.5.9-3.2 1.3-4.9 1.3-4.3.1-6.4-2.7-6.4-8.5zm19.8 5.7.9-1.3c1 .9 2.1 1.6 3.3 2.1 1.2.5 2.5.7 3.7.7 1.5.1 2.9-.3 4.1-1.1 1-.7 1.6-1.8 1.6-3 0-.5-.1-1.1-.4-1.5-.3-.4-.7-.8-1.2-1-.6-.3-1.3-.6-2-.8-.8-.2-1.7-.5-2.7-.8-1-.3-1.9-.5-2.9-.8-.7-.2-1.4-.5-2.1-.9-1.1-.7-1.7-1.9-1.6-3.2 0-.9.2-1.8.6-2.6.4-.7.9-1.3 1.6-1.8.7-.5 1.5-.9 2.3-1.1.9-.2 1.8-.4 2.8-.4 1.4 0 2.8.2 4.1.8 1.1.4 2 1.1 2.8 2l-1.1 1c-.7-.8-1.6-1.4-2.6-1.7a9.6 9.6 0 0 0-3.3-.6c-.7 0-1.4.1-2.1.2-.6.1-1.2.4-1.7.7-.5.3-.9.8-1.1 1.3-.3.6-.4 1.2-.4 1.9 0 .5.1 1 .3 1.4.2.4.5.7.9.9.5.3 1 .5 1.6.6.6.2 1.4.4 2.4.6 1.2.3 2.3.6 3.3.9.9.2 1.7.5 2.4 1 .6.4 1.1.9 1.4 1.4.4.7.5 1.4.5 2.1.1 1.7-.7 3.2-2.1 4.2-1.6 1.1-3.6 1.7-5.5 1.6-1.5 0-3-.2-4.3-.8-1.2-.2-2.5-1-3.5-2zm17.7-7.2c0-1.3.2-2.7.7-3.9.5-1.2 1.1-2.3 2-3.3.9-.9 1.9-1.7 3.1-2.2 1.2-.6 2.5-.8 3.8-.8 1.3 0 2.6.3 3.8.8 1.1.5 2.2 1.3 3.1 2.2.9.9 1.6 2 2.1 3.3.5 1.3.7 2.6.7 3.9 0 1.3-.2 2.7-.7 3.9-.5 1.2-1.1 2.3-2 3.3-2.7 3-7.1 3.8-10.8 2.2-1.1-.5-2.2-1.3-3.1-2.2-.9-1-1.6-2.1-2-3.3-.5-1.3-.7-2.6-.7-3.9zm1.9 0c0 1.1.2 2.2.6 3.3.4 1 .9 1.9 1.7 2.7.7.8 1.5 1.4 2.5 1.8.9.4 2 .7 3 .6 1 0 2.1-.2 3-.6.9-.4 1.8-1.1 2.5-1.8.7-.8 1.3-1.7 1.7-2.7.4-1.1.6-2.2.6-3.3 0-2.2-.8-4.3-2.3-6-.7-.8-1.5-1.4-2.5-1.8-1.9-.9-4.1-.9-6 0-.9.4-1.8 1.1-2.5 1.9-.7.8-1.3 1.7-1.7 2.7-.4 1-.6 2.1-.6 3.2zm19.1-8.4v-1.6h2.8v-.6c-.1-2 .4-4 1.5-5.7.9-1.3 2.5-2.1 4.1-2 .7 0 1.5.1 2.2.3.6.2 1.2.5 1.8.9l-.7 1.4c-.4-.3-.8-.5-1.3-.7-.5-.2-1.1-.2-1.6-.2-1.2 0-2.3.5-3 1.5-.8 1.4-1.1 2.9-1 4.5v.7h5.6v1.6H196V32h-1.9V13.7h-2.8zm11.1 0v-1.6h2.8V5.4h1.9v6.8h4.6v1.6h-4.6v14.5c0 .6.2 1.3.8 1.7.5.4 1.1.6 1.7.6.7 0 1.4-.1 2-.4.6-.3.9-.4 1-.5l.6 1.5c-.2.1-.4.2-.5.3-.3.2-.6.3-.9.4-.9.3-1.8.5-2.7.5-.5 0-1-.1-1.5-.2s-.9-.4-1.2-.7c-.3-.3-.6-.7-.8-1.1-.2-.5-.3-1-.3-1.5V13.7h-2.9zm7.9-7.5c0-.3 0-.6.2-.9.1-.3.3-.5.5-.7.2-.2.5-.4.8-.5.6-.2 1.3-.2 1.9 0 .3.1.5.3.8.5.2.2.4.5.5.7.2.6.2 1.3 0 1.9-.1.3-.3.5-.5.7-.2.2-.5.4-.8.5-.3.1-.6.2-.9.2-.3 0-.6 0-.9-.2-.3-.1-.5-.3-.8-.5-.2-.2-.4-.5-.5-.7-.2-.4-.3-.7-.3-1zm.3 0c0 .3 0 .6.2.8.1.3.3.5.4.7.2.2.4.3.7.4.3.1.6.2.8.2.3 0 .6 0 .8-.2.3-.1.5-.3.7-.4.2-.2.3-.4.4-.6.1-.3.2-.6.2-.8 0-.3 0-.6-.2-.8-.1-.3-.3-.5-.4-.7-.2-.2-.4-.3-.7-.4-.5-.2-1.1-.2-1.7 0-.3.1-.5.3-.7.4-.2.2-.3.4-.4.7-.1.1-.1.4-.1.7zm1.1 1.4V4.7h1.2c.1 0 .2 0 .4.1.1 0 .2.1.3.2.1.1.1.2.2.3 0 .1.1.2.1.3 0 .2-.1.4-.2.6-.1.2-.3.3-.5.3l.7 1.1h-.4l-.7-1.1h-.8v1.1h-.3zm.4-1.4h.9c.2 0 .3 0 .4-.2.1-.1.1-.3.1-.4 0-.2 0-.3-.2-.4-.1-.1-.2-.2-.4-.2h-.8v1.2zM41.8 28.1C41.3 27.5 21.7 2.3 21 1.5c-.6-.8-.5-1.1-.4-1.2.3-.3.6-.3 2-.3h10.1c.8-.1 1.5 0 2.3.2.4.2.7.5 1 .9.2.2 17.8 21.3 18 21.5.2.2.5.6.7 1 .2.4.2.8-.1 1-.2.1-9.9 4.1-10.2 4.2-.4.2-.8.3-1.2.2-.5-.1-1.1-.4-1.4-.9m9.9-.5.7.1s2.3.4 2.6.5c.2 0 .4.2.4.3 0 .2-.1.3-.3.4-.2.1-10.7 6.6-10.9 6.7-.3.2-.7.3-1 .3-1.2 0-2.5-.1-3.7-.5-.6-.1-26.5-5.9-26.7-6-.2-.1-.4-.1-.4-.3 0-.4.5-.5 1-.6s12.6-4.5 13-4.8c.4-.2.8-.2 1.2-.2.3 0 2 .2 2.7.4s2.9.4 2.9.4l5 6.4c.8 1 1.4 1.4 2.1 1.4.4 0 .7 0 1-.2.5.1 10.4-4.3 10.4-4.3M23.5 11.9l4.3 5.5c0 .1.1.2.2.2v.1c-.2.1-7.8 7.2-7.8 7.2l-8 2.9c-.1 0-.2.1-.4.2s-.3.4-.2.6c0 .1 0 2 .1 2.4l-9.9 3.1c-.5.2-1 .3-1.5.4-.2-.2 0-.4.2-.6S20.6 14 21.3 13.2c.6-.7 1.3-1.1 2.2-1.3"/></svg>