<svg xmlns="http://www.w3.org/2000/svg" xml:space="preserve" viewBox="0 0 369.2 100"><title>KeePassXC</title><path fill="#720072" d="M50 97.5C23.8 97.5 2.5 76.2 2.5 50S23.8 2.5 50 2.5 97.5 23.8 97.5 50 76.2 97.5 50 97.5zm0-91.8C25.6 5.7 5.7 25.6 5.7 50S25.6 94.3 50 94.3 94.3 74.4 94.3 50 74.4 5.7 50 5.7zm6.7 8c.1.5.2 1 .2 1.5 0 3.8-3.1 6.9-6.9 6.9-3.8 0-6.9-3.1-6.9-6.9 0-.5.1-1 .2-1.5 2.2-.4 4.5-.6 6.7-.6 2.3-.1 4.5.2 6.7.6zm-26.1 8.4c0 7.7 4.5 14.4 11.1 17.5v35.1L50 83l8.3-8.3-.5-7.3 3.9-3.9-3.9-3.9 5.9-5.9-5.9-5.9.5-8.2c6.5-3.1 11.1-9.8 11.1-17.5 0-1.3-.1-2.5-.4-3.8C80.1 25 86.9 37 87 50c0 20.4-16.5 37-37 37-20.4 0-37-16.5-37-37 0-13 6.8-25 18-31.7-.2 1.3-.4 2.5-.4 3.8zm13.9 22.1h2.8v27.7h-2.8V44.2zm88.6 2.3h1.8c.6 0 1.1-.1 1.5-.2.4-.2.7-.4 1-.8l11.8-13.3c.4-.4.7-.7 1-.9s.8-.3 1.3-.3h4.1l-13.5 15.2c-.3.4-.7.7-1 1-.3.3-.6.5-1 .6.5.1.9.4 1.2.7l1.1 1.1 14.1 16.7h-4.1c-.3 0-.6 0-.8-.1-.2 0-.4-.1-.6-.2s-.3-.2-.4-.3l-.4-.4-12.2-14-.5-.5c-.2-.1-.3-.3-.5-.4-.2-.1-.4-.2-.7-.2-.3 0-.6-.1-1-.1h-2.2v16.2h-4.8V31h4.8v15.5zm36.6-5.6c1.5 0 2.9.3 4.1.8 1.3.5 2.4 1.2 3.3 2.2.9.9 1.6 2.1 2.2 3.5.5 1.4.8 3 .8 4.7 0 .7-.1 1.2-.2 1.4-.1.2-.4.3-.8.3h-16.6c0 1.6.2 3 .6 4.1.4 1.2.9 2.1 1.6 2.9.7.8 1.5 1.4 2.5 1.8 1 .4 2 .6 3.2.6 1.1 0 2.1-.1 2.8-.4.8-.3 1.5-.5 2.1-.8.6-.3 1.1-.6 1.4-.8.4-.3.7-.4 1-.4.4 0 .6.1.8.4l1.2 1.6c-.5.7-1.2 1.2-1.9 1.7-.8.5-1.6.9-2.4 1.2-.9.3-1.8.5-2.7.7-.9.2-1.8.2-2.7.2-1.7 0-3.3-.3-4.8-.9-1.5-.6-2.7-1.4-3.8-2.6-1.1-1.1-1.9-2.5-2.5-4.2-.6-1.7-.9-3.6-.9-5.7 0-1.7.3-3.4.8-4.9.5-1.5 1.3-2.8 2.3-3.9 1-1.1 2.2-2 3.7-2.6 1.5-.5 3.1-.9 4.9-.9zm.1 3.3c-2.1 0-3.8.6-5 1.8s-2 2.9-2.3 5.1h13.6c0-1-.1-2-.4-2.8-.3-.8-.7-1.6-1.2-2.2-.5-.6-1.2-1.1-2-1.4-.8-.4-1.7-.5-2.7-.5zm25.8-3.3c1.5 0 2.9.3 4.1.8 1.3.5 2.4 1.2 3.3 2.2.9.9 1.6 2.1 2.2 3.5.5 1.4.8 3 .8 4.7 0 .7-.1 1.2-.2 1.4-.1.2-.4.3-.8.3h-16.6c0 1.6.2 3 .6 4.1.4 1.2.9 2.1 1.6 2.9.7.8 1.5 1.4 2.5 1.8 1 .4 2 .6 3.2.6 1.1 0 2.1-.1 2.8-.4.8-.3 1.5-.5 2.1-.8.6-.3 1.1-.6 1.4-.8.4-.3.7-.4 1-.4.4 0 .6.1.8.4l1.2 1.6c-.5.7-1.2 1.2-1.9 1.7-.8.5-1.6.9-2.4 1.2-.9.3-1.8.5-2.7.7-.9.2-1.8.2-2.7.2-1.7 0-3.3-.3-4.8-.9-1.5-.6-2.7-1.4-3.8-2.6-1.1-1.1-1.9-2.5-2.5-4.2-.6-1.7-.9-3.6-.9-5.7 0-1.7.3-3.4.8-4.9.5-1.5 1.3-2.8 2.3-3.9 1-1.1 2.2-2 3.7-2.6 1.5-.5 3.1-.9 4.9-.9zm.1 3.3c-2.1 0-3.8.6-5 1.8s-2 2.9-2.3 5.1H202c0-1-.1-2-.4-2.8-.3-.8-.7-1.6-1.2-2.2-.5-.6-1.2-1.1-2-1.4-.8-.4-1.7-.5-2.7-.5zm21.8 8.9v13.2h-4.8V31h10.4c2.2 0 4.2.3 5.8.8 1.7.5 3 1.3 4.1 2.2 1.1 1 1.9 2.1 2.4 3.5.5 1.3.8 2.9.8 4.5s-.3 3.1-.9 4.5c-.6 1.4-1.4 2.5-2.5 3.5s-2.5 1.8-4.1 2.3c-1.6.6-3.5.8-5.6.8h-5.6zm0-3.8h5.7c1.4 0 2.6-.2 3.6-.5 1-.4 1.9-.9 2.6-1.5.7-.6 1.2-1.4 1.6-2.3.4-.9.5-1.9.5-3 0-2.3-.7-4-2.1-5.3-1.4-1.3-3.5-1.9-6.3-1.9h-5.7v14.5zm41.3 17h-1.9c-.4 0-.8-.1-1-.2-.3-.1-.4-.4-.5-.8l-.5-2.3c-.7.6-1.3 1.1-1.9 1.6-.6.5-1.3.9-2 1.2-.7.3-1.4.6-2.2.7-.8.2-1.6.2-2.6.2s-1.9-.1-2.7-.4c-.8-.3-1.6-.7-2.2-1.2-.6-.5-1.1-1.2-1.5-2.1-.4-.8-.6-1.8-.6-3 0-1 .3-1.9.8-2.9.5-.9 1.4-1.7 2.6-2.4 1.2-.7 2.8-1.3 4.7-1.7 2-.5 4.3-.7 7.2-.7v-2c0-2-.4-3.4-1.2-4.4-.8-1-2.1-1.5-3.7-1.5-1.1 0-2 .1-2.7.4-.7.3-1.4.6-1.9.9-.5.3-1 .6-1.4.9-.4.3-.8.4-1.1.4-.3 0-.6-.1-.8-.2s-.4-.3-.5-.6l-.8-1.4c1.4-1.3 2.9-2.3 4.5-3 1.6-.7 3.4-1 5.3-1 1.4 0 2.6.2 3.7.7 1.1.5 2 1.1 2.7 1.9.7.8 1.3 1.8 1.7 3 .4 1.2.6 2.4.6 3.8v16.1zm-11.4-2.7c.8 0 1.5-.1 2.1-.2.6-.2 1.2-.4 1.8-.7.6-.3 1.1-.6 1.6-1s1-.9 1.5-1.4v-5.2c-2 0-3.7.1-5.2.4-1.4.3-2.6.6-3.5 1-.9.4-1.5.9-1.9 1.5-.4.6-.6 1.2-.6 1.9s.1 1.2.3 1.7c.2.5.5.9.9 1.2.4.3.8.5 1.3.7.6.1 1.1.1 1.7.1zm32.3-18.1c-.2.4-.5.5-.9.5-.2 0-.5-.1-.8-.3-.3-.2-.7-.4-1.1-.6-.5-.2-1-.4-1.6-.6-.6-.2-1.4-.3-2.2-.3-.7 0-1.4.1-2 .3-.6.2-1.1.4-1.5.8-.4.3-.7.7-1 1.1s-.3.9-.3 1.4c0 .6.2 1.2.6 1.6.4.4.9.8 1.5 1.1.6.3 1.3.6 2.1.8.8.2 1.6.5 2.4.8l2.4.9c.8.3 1.5.7 2.1 1.2.6.5 1.1 1.1 1.5 1.8.4.7.6 1.6.6 2.6 0 1.1-.2 2.2-.6 3.2-.4 1-1 1.8-1.8 2.5s-1.8 1.3-3 1.7c-1.2.4-2.5.6-4 .6-1.7 0-3.3-.3-4.7-.9-1.4-.6-2.6-1.3-3.6-2.2l1-1.7c.1-.2.3-.4.5-.5.2-.1.4-.2.7-.2.3 0 .6.1.9.3.3.2.7.5 1.2.8.5.3 1 .5 1.7.8.7.2 1.5.3 2.5.3.9 0 1.6-.1 2.2-.3.6-.2 1.2-.5 1.6-.9.4-.4.7-.8 1-1.3.2-.5.3-1 .3-1.6 0-.7-.2-1.3-.6-1.7-.4-.5-.9-.8-1.5-1.2-.6-.3-1.3-.6-2.1-.8-.8-.2-1.6-.5-2.4-.8l-2.4-.9c-.8-.3-1.5-.8-2.1-1.3-.6-.5-1.1-1.1-1.5-1.9s-.6-1.7-.6-2.7c0-1 .2-1.9.6-2.7.4-.9 1-1.7 1.7-2.3.8-.7 1.7-1.2 2.8-1.6 1.1-.4 2.4-.6 3.8-.6 1.6 0 3.1.3 4.4.8 1.3.5 2.4 1.2 3.4 2.1l-1.2 1.9zm21.4 0c-.2.4-.5.5-.9.5-.2 0-.5-.1-.8-.3-.3-.2-.7-.4-1.1-.6-.5-.2-1-.4-1.6-.6-.6-.2-1.4-.3-2.2-.3-.7 0-1.4.1-2 .3-.6.2-1.1.4-1.5.8-.4.3-.7.7-1 1.1-.2.4-.3.9-.3 1.4 0 .6.2 1.2.6 1.6.4.4.9.8 1.5 1.1.6.3 1.3.6 2.1.8.8.2 1.6.5 2.4.8l2.4.9c.8.3 1.5.7 2.1 1.2.6.5 1.1 1.1 1.5 1.8.4.7.6 1.6.6 2.6 0 1.1-.2 2.2-.6 3.2-.4 1-1 1.8-1.8 2.5s-1.8 1.3-3 1.7c-1.2.4-2.5.6-4 .6-1.7 0-3.3-.3-4.7-.9-1.4-.6-2.6-1.3-3.6-2.2l1-1.7c.1-.2.3-.4.5-.5.2-.1.4-.2.7-.2s.6.1.9.3c.3.2.7.5 1.2.8.5.3 1 .5 1.7.8.7.2 1.5.3 2.5.3.9 0 1.6-.1 2.2-.3.6-.2 1.2-.5 1.6-.9.4-.4.7-.8 1-1.3.2-.5.3-1 .3-1.6 0-.7-.2-1.3-.6-1.7-.4-.5-.9-.8-1.5-1.2-.6-.3-1.3-.6-2.1-.8-.8-.2-1.6-.5-2.4-.8l-2.4-.9c-.8-.3-1.5-.8-2.1-1.3-.6-.5-1.1-1.1-1.5-1.9s-.6-1.7-.6-2.7c0-1 .2-1.9.6-2.7.4-.9 1-1.7 1.7-2.3.8-.7 1.7-1.2 2.8-1.6 1.1-.4 2.4-.6 3.8-.6 1.6 0 3.1.3 4.4.8 1.3.5 2.4 1.2 3.4 2.1l-1.2 1.9zm16 2.7L305.5 31h4.8c.3 0 .6.1.8.2.2.1.3.3.4.5l9.2 14.1c.1-.3.3-.7.5-1.1l8.7-12.9c.1-.2.3-.4.5-.6.2-.1.4-.2.6-.2h4.6l-11.7 17L336 66.4h-4.7c-.4 0-.6-.1-.9-.3-.2-.2-.4-.4-.5-.6l-9.5-14.8c-.1.3-.3.7-.4 1l-9.2 13.8c-.1.2-.3.4-.5.6-.2.2-.5.3-.8.3H305l12.1-18.2zM364.8 59c.3 0 .5.1.7.3l1.9 2c-1.4 1.7-3.2 3-5.3 3.9s-4.6 1.4-7.5 1.4c-2.5 0-4.9-.4-6.9-1.3-2.1-.9-3.8-2.1-5.3-3.7s-2.6-3.5-3.4-5.7c-.8-2.2-1.2-4.7-1.2-7.3 0-2.7.4-5.1 1.3-7.3s2.1-4.1 3.6-5.7c1.6-1.6 3.4-2.8 5.6-3.7 2.2-.9 4.6-1.3 7.2-1.3 2.6 0 4.8.4 6.7 1.2s3.6 1.9 5 3.3l-1.6 2.2c-.1.2-.2.3-.4.4-.1.1-.4.2-.6.2-.2 0-.4-.1-.7-.2s-.5-.3-.9-.6c-.3-.2-.7-.5-1.2-.7-.4-.3-1-.5-1.6-.7-.6-.2-1.3-.4-2.1-.6-.8-.2-1.7-.2-2.8-.2-1.9 0-3.6.3-5.2 1s-2.9 1.6-4.1 2.8c-1.1 1.2-2 2.7-2.6 4.4-.6 1.7-1 3.7-1 5.8 0 2.2.3 4.2 1 5.9.6 1.7 1.5 3.2 2.6 4.4 1.1 1.2 2.4 2.1 3.9 2.7 1.5.6 3.1.9 4.8.9 1.1 0 2-.1 2.8-.2.8-.1 1.6-.3 2.3-.6s1.4-.6 2-1c.6-.4 1.2-.9 1.9-1.4.5-.5.8-.6 1.1-.6z"/></svg>