<svg version="1.1" xmlns="http://www.w3.org/2000/svg" x="0" y="0" viewBox="0 0 345.9 376.7" xml:space="preserve"><g id="keycap-bottom"><path fill-opacity=".404" d="M103.7 97.7h137c20.8 0 37.6 16.9 37.6 37.6v137c0 20.8-16.9 37.6-37.6 37.6h-137c-20.8 0-37.6-16.9-37.6-37.6v-137c-.1-20.8 16.8-37.6 37.6-37.6z"/><path fill="#FFF" d="M94.6 250.767h155.2c.8 0 1.4.101 1.4.235v32.987c0 .134-.6.235-1.4.235H94.6c-.8 0-1.4-.101-1.4-.235v-32.97c0-.135.6-.252 1.4-.252z"/><radialGradient id="SVGID_1_" cx="94.953" cy="128.29" r="233.973" gradientUnits="userSpaceOnUse"><stop offset="0" style="stop-color:#88007c"/><stop offset="1" style="stop-color:#300056"/></radialGradient><path fill="url(#SVGID_1_)" d="M245.9 254.717v12.267c0 5.8-4.7 10.5-10.5 10.5H109c-5.8 0-10.5-4.7-10.5-10.5v-12.267a31.535 31.535 0 0 1-21.1-29.818v42.084c0 17.5 14.1 31.6 31.6 31.6h126.4c17.4 0 31.6-14.2 31.6-31.6V224.9c0 13.815-8.79 25.504-21.1 29.817z"/><path fill-opacity=".251" d="M109 298.6c-17.5 0-31.6-14.1-31.6-31.6v-42.1c0 17.5 14.1 31.6 31.6 31.6h126.4c17.5 0 31.6-14.1 31.6-31.6V267c0 17.5-14.1 31.6-31.6 31.6H109z"/></g><g id="keycap-top"><path fill="#FFF" d="M94.6 82.6h155.2c.8 0 1.4.484 1.4 1.129v158.588c0 .645-.6 1.129-1.4 1.129H94.6c-.8 0-1.4-.484-1.4-1.129V83.81c0-.645.6-1.21 1.4-1.21z"/><radialGradient id="SVGID_00000023968002363788462650000003580371431569781390_" cx="94.953" cy="86.074" r="233.973" gradientUnits="userSpaceOnUse"><stop offset="0" style="stop-color:#88007c"/><stop offset="1" style="stop-color:#300056"/></radialGradient><path fill="url(#SVGID_00000023968002363788462650000003580371431569781390_)" d="M235.4 66.8H109c-17.4 0-31.6 14.2-31.6 31.6v126.369c0 17.5 14.1 31.6 31.6 31.6h126.4c17.4 0 31.6-14.2 31.6-31.6V98.4c0-17.5-14.1-31.6-31.6-31.6zm10.5 157.969c0 5.8-4.7 10.5-10.5 10.5H109c-5.8 0-10.5-4.7-10.5-10.5V98.4c0-5.8 4.7-10.5 10.5-10.5h126.4c5.8 0 10.5 4.7 10.5 10.5v126.369z"/><path fill="#520065" d="M162.8 175.1v28.7h-20.5V119h33.9c6.5 0 12.3 1.2 17.2 3.6 5 2.4 8.9 5.8 11.6 10.2 2.7 4.4 4.1 9.4 4.1 15.1 0 8.3-2.9 14.9-8.9 19.9s-14.1 7.5-24.4 7.5l-13-.2zm.1-15.5h13.4c4 0 7-1 9.1-3s3.2-4.9 3.2-8.6c0-4.1-1.1-7.3-3.2-9.7-2.1-2.4-5-3.7-8.7-3.7H163l-.1 25z"/></g></svg>
