<svg fill="none" viewBox="0 0 100 22" xmlns="http://www.w3.org/2000/svg" aria-labelledby="logoTitle" class="sc-aa9fa8e6-0 kWibox"><title id="logoTitle">Ambrook Logo</title><path d="M9.7163 16.9929V9.79524C9.7163 7.49526 8.31672 6.41291 6.05587 6.41291C4.65629 6.41291 3.28363 6.81879 2.1532 7.54937C1.02277 8.2529 0.10766 9.30819 0 10.6341H2.85299V8.06349C3.31054 7.95525 3.84884 7.87408 4.44097 7.87408C6.05587 7.87408 6.86331 8.55054 6.86331 9.87642V11.6623C5.54448 11.987 4.19873 12.3929 2.85299 13.0152C1.10351 13.827 0.05383 14.8282 0.05383 16.3976C0.05383 18.2646 1.37266 19.5634 3.28363 19.5634C5.00618 19.5634 6.16353 18.6164 7.0248 17.534C7.26704 18.5081 8.04757 19.347 9.33949 19.347H11.385V16.9929H9.7163ZM4.73703 17.6693C3.6066 17.6693 2.8799 16.9658 2.8799 15.667C2.8799 14.6929 3.28363 14.1246 4.17182 13.6646C5.00618 13.2317 5.86746 12.9341 6.86331 12.6635V16.9117C6.2981 17.3717 5.59831 17.6693 4.73703 17.6693Z" fill="#434F40" data-darkreader-inline-fill="" style="--darkreader-inline-fill: var(--darkreader-text-434f40, #bbb5ac);"></path><path d="M33.15 18.1834V10.0658C33.15 7.95525 31.9119 6.41291 29.6779 6.41291C27.8208 6.41291 26.3136 7.49526 25.2639 8.55054C24.8063 7.44114 23.7567 6.41291 21.9803 6.41291C20.0693 6.41291 18.589 7.52232 17.5662 8.5776V6.6835H12.9907V7.41408L14.7401 8.46937V18.1834L12.9099 18.6434V19.347H19.3426V18.6434L17.62 18.1834V9.19995C18.1045 8.84819 18.9927 8.46937 20.0155 8.46937C21.5227 8.46937 22.5186 9.17289 22.5186 10.8235V18.1834L20.796 18.6434V19.347H27.0941V18.6434L25.3985 18.1834V9.1729C25.9099 8.82113 26.7442 8.46937 27.7401 8.46937C29.2742 8.46937 30.2701 9.19995 30.2701 10.9047V18.1834L28.5475 18.6434V19.347H34.9802V18.6434L33.15 18.1834Z" fill="#434F40" data-darkreader-inline-fill="" style="--darkreader-inline-fill: var(--darkreader-background-434f40, #363a3d);"></path><path d="M43.2589 6.41291C41.5363 6.41291 40.2175 7.3329 39.2485 8.46937V0L34.3769 0.757643V1.40705L36.3686 2.35411V19.347H41.1595C45.2237 19.347 47.9421 16.2623 47.9421 12.2035C47.9421 8.90231 46.1657 6.41291 43.2589 6.41291ZM43.0974 18.1023L39.2485 17.507V9.22701C39.7599 8.82113 40.5135 8.44231 41.5632 8.44231C43.9048 8.44231 45.2506 10.2282 45.2506 13.4752C45.2506 15.7752 44.5508 17.4258 43.0974 18.1023Z" fill="#434F40" data-darkreader-inline-fill="" style="--darkreader-inline-fill: var(--darkreader-text-434f40, #bbb5ac);"></path><path d="M55.1614 9.60583H57.7452V6.60232H57.0723C55.3228 6.60232 54.0848 7.95525 53.1697 9.4976V6.6835H48.5941V7.41408L50.3436 8.46937V18.1834L48.5134 18.6434V19.347H55.4036V18.6434L53.2235 18.1834V10.0658C53.708 9.76819 54.3539 9.60583 55.1614 9.60583Z" fill="#434F40" data-darkreader-inline-fill="" style="--darkreader-inline-fill: var(--darkreader-text-434f40, #bbb5ac);"></path><path d="M65.2006 19.6175C68.9418 19.6175 71.4718 16.8846 71.4718 12.9611C71.4718 9.14584 68.9149 6.41291 65.2006 6.41291C61.4595 6.41291 58.9295 9.14583 58.9295 13.0693C58.9295 16.8846 61.4864 19.6175 65.2006 19.6175ZM65.2006 18.5893C63.1282 18.5893 62.1862 16.8576 62.1862 13.0152C62.1862 9.17289 63.1013 7.44114 65.2006 7.44114C67.3 7.44114 68.242 9.14584 68.242 13.0152C68.242 16.8305 67.3 18.5893 65.2006 18.5893Z" fill="#434F40" data-darkreader-inline-fill="" style="--darkreader-inline-fill: var(--darkreader-text-434f40, #bbb5ac);"></path><path d="M79.2359 19.6175C82.9771 19.6175 85.5071 16.8846 85.5071 12.9611C85.5071 9.14584 82.9502 6.41291 79.2359 6.41291C75.4948 6.41291 72.9648 9.14583 72.9648 13.0693C72.9648 16.8846 75.5217 19.6175 79.2359 19.6175ZM79.2359 18.5893C77.1635 18.5893 76.2215 16.8576 76.2215 13.0152C76.2215 9.17289 77.1366 7.44114 79.2359 7.44114C81.3353 7.44114 82.2773 9.14584 82.2773 13.0152C82.2773 16.8305 81.3353 18.5893 79.2359 18.5893Z" fill="#434F40" data-darkreader-inline-fill="" style="--darkreader-inline-fill: var(--darkreader-text-434f40, #bbb5ac);"></path><path d="M90.4721 0L85.5736 0.757643V1.40705L87.5922 2.35411V18.1834L85.762 18.6434V19.347H92.2754V18.6434L90.4721 18.1834V0ZM99.4617 18.2917L93.352 11.3105L95.8013 8.84819L99.2195 7.38702V6.6835H94.7785V8.38819L90.6605 12.6093L96.5549 19.347H100V18.6434L99.4617 18.2917Z" fill="#434F40" data-darkreader-inline-fill="" style="--darkreader-inline-fill: var(--darkreader-text-434f40, #bbb5ac);"></path></svg>