<?xml version="1.0" encoding="UTF-8"?>
<svg id="Layer_1" xmlns="http://www.w3.org/2000/svg" version="1.1" viewBox="0 0 215 41.4">
  <!-- Generator: Adobe Illustrator 29.7.1, SVG Export Plug-In . SVG Version: 2.1.1 Build 8)  -->
  <defs>
    <style>
      .st0 {
        fill: #434f40;
      }
    </style>
  </defs>
  <path class="st0" d="M46.47,31.81v-11.52c0-3.68-2.24-5.41-5.86-5.41-2.24,0-4.44.65-6.25,1.82-1.81,1.13-3.27,2.82-3.45,4.94h4.57v-4.11c.73-.17,1.59-.3,2.54-.3,2.58,0,3.88,1.08,3.88,3.2v2.86c-2.11.52-4.26,1.17-6.42,2.17-2.8,1.3-4.48,2.9-4.48,5.41,0,2.99,2.11,5.07,5.17,5.07,2.76,0,4.61-1.52,5.99-3.25.39,1.56,1.64,2.9,3.7,2.9h3.27v-3.77h-2.67ZM38.5,32.9c-1.81,0-2.97-1.13-2.97-3.2,0-1.56.65-2.47,2.07-3.2,1.34-.69,2.71-1.17,4.31-1.6v6.8c-.9.74-2.02,1.21-3.4,1.21ZM83.98,33.72v-12.99c0-3.38-1.98-5.85-5.56-5.85-2.97,0-5.38,1.73-7.06,3.42-.73-1.78-2.41-3.42-5.26-3.42-3.06,0-5.43,1.78-7.06,3.46v-3.03h-7.32v1.17l2.8,1.69v15.55l-2.93.74v1.13h10.3v-1.13l-2.76-.74v-14.38c.78-.56,2.2-1.17,3.83-1.17,2.41,0,4.01,1.13,4.01,3.77v11.78l-2.76.74v1.13h10.08v-1.13l-2.71-.74v-14.42c.82-.56,2.15-1.13,3.75-1.13,2.46,0,4.05,1.17,4.05,3.9v11.65l-2.76.74v1.13h10.3v-1.13l-2.93-.74ZM100.16,14.88c-2.76,0-4.87,1.47-6.42,3.29V4.62l-7.8,1.21v1.04l3.19,1.52v27.2h7.67c6.5,0,10.86-4.94,10.86-11.43,0-5.28-2.84-9.27-7.5-9.27ZM99.9,33.59l-6.16-.95v-13.25c.82-.65,2.02-1.26,3.7-1.26,3.75,0,5.9,2.86,5.9,8.06,0,3.68-1.12,6.32-3.45,7.41ZM119.21,19.99h4.14v-4.81h-1.08c-2.8,0-4.78,2.17-6.25,4.63v-4.5h-7.32v1.17l2.8,1.69v15.55l-2.93.74v1.13h11.03v-1.13l-3.49-.74v-12.99c.78-.48,1.81-.74,3.1-.74ZM135.28,36.01c5.99,0,10.04-4.37,10.04-10.65s-4.09-10.48-10.04-10.48-10.04,4.37-10.04,10.65,4.09,10.48,10.04,10.48ZM135.28,34.37c-3.32,0-4.82-2.77-4.82-8.92s1.46-8.92,4.82-8.92,4.87,2.73,4.87,8.92-1.51,8.92-4.87,8.92ZM157.74,36.01c5.99,0,10.04-4.37,10.04-10.65s-4.09-10.48-10.04-10.48-10.04,4.37-10.04,10.65,4.09,10.48,10.04,10.48ZM157.74,34.37c-3.32,0-4.82-2.77-4.82-8.92s1.46-8.92,4.82-8.92,4.87,2.73,4.87,8.92-1.51,8.92-4.87,8.92ZM175.73,4.62l-7.84,1.21v1.04l3.23,1.52v25.34l-2.93.74v1.13h10.42v-1.13l-2.89-.74V4.62ZM190.12,33.89l-9.78-11.17,3.92-3.94,5.47-2.34v-1.13h-7.11v2.73l-6.59,6.76,9.43,10.78h5.51v-1.13l-.86-.56Z"/>
</svg>