<?xml version="1.0" encoding="UTF-8"?>
<svg id="Layer_1" xmlns="http://www.w3.org/2000/svg" version="1.1" viewBox="0 0 215 30.16">
  <!-- Generator: Adobe Illustrator 29.7.1, SVG Export Plug-In . SVG Version: 2.1.1 Build 8)  -->
  <defs>
    <style>
      .st0 {
        fill: #18bcf2;
      }

      .st1 {
        fill: #1d2126;
      }
    </style>
  </defs>
  <path class="st0" d="M28.93,13.69L16.47,1.23c-.74-.74-1.94-.74-2.67,0L1.34,13.69c-.74.74-1.34,2.19-1.34,3.23v11.35c0,1.04.85,1.89,1.89,1.89h11.64l-5.12-5.12c-.26.09-.54.14-.84.14-1.42,0-2.59-1.16-2.59-2.59s1.16-2.59,2.59-2.59,2.59,1.16,2.59,2.59c0,.29-.05.58-.14.84l3.99,3.99v-14.61c-.86-.42-1.45-1.3-1.45-2.32,0-1.42,1.16-2.59,2.59-2.59s2.59,1.16,2.59,2.59c0,1.02-.59,1.9-1.45,2.32v10.25l3.97-3.97c-.08-.25-.12-.51-.12-.78,0-1.42,1.16-2.59,2.59-2.59s2.59,1.16,2.59,2.59-1.16,2.59-2.59,2.59c-.32,0-.62-.06-.89-.16l-5.54,5.54v3.89h12.11c1.04,0,1.89-.85,1.89-1.89v-11.35c0-1.04-.6-2.49-1.34-3.23h0Z"/>
  <path class="st1" d="M40.36,5.8h3.12v7.69l8.12.03v-7.72h3.15v18.41h-3.15v-7.92l-8.12-.03v7.94h-3.13V5.8ZM63.91,11.43c1.9,0,3.46.61,4.65,1.83,1.2,1.22,1.8,2.8,1.8,4.72s-.6,3.48-1.8,4.7c-1.2,1.22-2.75,1.83-4.65,1.83s-3.48-.61-4.68-1.83c-1.2-1.22-1.8-2.79-1.8-4.7,0-1.93.6-3.51,1.8-4.72,1.2-1.21,2.76-1.82,4.68-1.83ZM63.91,21.83c1.02,0,1.85-.36,2.48-1.08.64-.72.95-1.65.95-2.8,0-1.15-.32-2.08-.95-2.79-.64-.71-1.46-1.07-2.48-1.06-1.04,0-1.88.35-2.52,1.06-.64.71-.96,1.64-.96,2.79,0,1.15.32,2.08.96,2.8.64.72,1.48,1.08,2.52,1.08ZM91.64,16.29v7.92h-2.9v-7.46c0-.86-.22-1.53-.66-2.02-.44-.48-1.05-.73-1.81-.73-.81,0-1.46.26-1.95.79-.49.53-.73,1.27-.73,2.22v7.19h-2.92v-7.46c0-.86-.22-1.53-.65-2.02-.43-.48-1.03-.73-1.79-.73-.81,0-1.46.26-1.96.79-.49.53-.74,1.27-.74,2.22v7.19h-2.98v-12.43h2.77l.1,1.19c.72-1.06,1.9-1.59,3.53-1.59.95,0,1.78.2,2.48.59.7.39,1.25,1,1.59,1.72.3-.72.83-1.32,1.51-1.7.7-.41,1.54-.62,2.51-.62,1.41,0,2.53.44,3.36,1.31.83.87,1.24,2.07,1.24,3.61ZM106.09,19.09h-9.53c.1.94.45,1.65,1.06,2.14.61.49,1.38.74,2.32.74,1.52,0,2.58-.63,3.19-1.89l2.49.98c-.45,1.07-1.22,1.96-2.21,2.56-1.01.62-2.16.93-3.47.92-1.84,0-3.33-.6-4.48-1.8-1.15-1.2-1.72-2.78-1.72-4.74,0-1.95.58-3.54,1.73-4.77,1.15-1.22,2.66-1.83,4.52-1.83s3.3.6,4.42,1.81c1.12,1.21,1.67,2.8,1.67,4.77v1.1ZM96.6,16.99h6.45c-.06-1.01-.36-1.78-.92-2.31-.55-.53-1.3-.79-2.24-.79-.92,0-1.68.27-2.27.81-.59.54-.93,1.3-1.03,2.29ZM125.29,19.92h-7.01l-1.51,4.29h-3.23l6.65-18.41h3.23l6.66,18.41h-3.3l-1.49-4.29ZM124.37,17.28l-2.57-7.36-2.6,7.36h5.17ZM135.92,22.14c.62,0,1.1-.12,1.46-.36.18-.12.32-.28.41-.47.09-.19.14-.4.12-.61,0-.66-.45-1.11-1.34-1.33l-1.71-.46c-2.35-.64-3.53-1.85-3.53-3.63,0-1.14.41-2.07,1.24-2.8.83-.72,1.95-1.08,3.35-1.08,1.26,0,2.31.29,3.15.86.41.27.76.61,1.03,1.02.27.41.45.86.53,1.34l-2.67.63c-.02-.21-.09-.42-.2-.6-.11-.18-.25-.34-.42-.47-.39-.27-.85-.41-1.32-.39-.53,0-.96.13-1.29.4-.16.12-.28.28-.37.46-.09.18-.13.38-.12.58,0,.16.03.32.09.47.06.15.16.28.28.39.25.23.63.41,1.14.55l1.69.42c1.12.3,1.98.76,2.57,1.38.29.3.52.66.67,1.05.15.39.22.81.21,1.23,0,1.17-.44,2.09-1.32,2.78-.88.69-2.09,1.03-3.63,1.04-1.43,0-2.57-.31-3.44-.94-.42-.3-.77-.67-1.03-1.11-.26-.44-.43-.93-.5-1.43l2.72-.48c.02.23.08.45.2.65.11.2.27.37.46.5.4.27.92.41,1.57.41ZM147.22,22.14c.62,0,1.1-.13,1.46-.36.18-.12.32-.28.41-.47.09-.19.14-.4.12-.61,0-.66-.45-1.11-1.34-1.33l-1.71-.46c-2.35-.64-3.53-1.85-3.53-3.63,0-1.14.41-2.07,1.24-2.8.83-.72,1.95-1.08,3.35-1.08,1.26,0,2.31.29,3.15.86.41.27.76.61,1.03,1.02.27.41.45.86.53,1.34l-2.67.63c-.02-.21-.09-.42-.2-.6-.11-.18-.25-.34-.42-.47-.39-.27-.85-.41-1.32-.39-.53,0-.96.13-1.29.4-.16.12-.28.28-.37.46-.08.18-.13.38-.12.58,0,.16.03.32.09.47.06.15.16.28.28.39.25.23.63.41,1.15.55l1.69.42c1.12.3,1.98.76,2.57,1.38.29.3.52.66.67,1.05.15.39.22.81.21,1.23,0,1.17-.44,2.09-1.32,2.78-.88.69-2.09,1.03-3.63,1.04-1.43,0-2.57-.31-3.44-.94-.42-.3-.77-.67-1.03-1.11-.26-.44-.43-.93-.5-1.43l2.72-.48c.02.23.08.45.2.65.11.2.27.37.46.5.4.27.92.41,1.56.41ZM154.08,7.46c0-.25.04-.5.13-.73.09-.23.23-.44.41-.62.18-.18.39-.32.62-.41.23-.09.48-.14.73-.14.25,0,.49.04.72.14.23.1.43.24.6.41.35.35.55.83.55,1.33s-.2.98-.55,1.33c-.17.18-.37.32-.6.42-.23.1-.47.14-.72.14-.25,0-.49-.04-.72-.14-.23-.1-.44-.24-.61-.42-.18-.17-.32-.38-.41-.61-.1-.23-.14-.47-.14-.72ZM157.46,11.77v12.44h-2.98v-12.44h2.98ZM164.67,22.14c.62,0,1.1-.12,1.46-.36.18-.12.32-.28.41-.47.09-.19.14-.4.12-.61,0-.66-.45-1.11-1.34-1.33l-1.71-.46c-2.35-.64-3.53-1.85-3.53-3.63,0-1.14.41-2.07,1.24-2.8.83-.72,1.95-1.08,3.35-1.08,1.26,0,2.31.29,3.15.86.41.27.76.61,1.03,1.02.27.41.45.86.53,1.34l-2.67.63c-.02-.21-.09-.42-.2-.6-.11-.18-.25-.34-.42-.47-.39-.27-.85-.41-1.32-.39-.53,0-.96.13-1.29.4-.16.12-.28.28-.37.46-.09.18-.13.38-.12.58,0,.16.03.32.09.47.06.15.16.28.28.39.25.23.63.41,1.14.55l1.69.42c1.12.3,1.98.76,2.57,1.38.29.3.52.66.67,1.05.15.39.22.81.21,1.23,0,1.17-.44,2.09-1.32,2.78-.88.69-2.09,1.03-3.63,1.04-1.43,0-2.57-.31-3.43-.94-.42-.29-.77-.67-1.03-1.11-.26-.44-.43-.93-.5-1.43l2.72-.48c.02.23.08.45.2.65.11.2.27.37.46.5.4.27.92.41,1.56.41ZM178.54,24.21c-.71.17-1.44.27-2.17.28-1.26,0-2.23-.35-2.94-1.04-.7-.69-1.05-1.72-1.05-3.08v-6.08h-1.91v-2.52h1.91v-3.88h2.96v3.88h2.87v2.52h-2.87v5.55c0,1.35.52,2.02,1.56,2.02.43-.02.86-.11,1.26-.26l.38,2.61ZM188.52,24.21c-.11-.47-.18-.94-.21-1.42-.39.56-.92,1-1.53,1.27-.72.33-1.5.49-2.3.47-1.36,0-2.46-.36-3.28-1.09-.82-.73-1.23-1.71-1.23-2.95,0-1.22.4-2.17,1.21-2.85.81-.69,1.91-1.03,3.32-1.03h3.74v-.48c0-.78-.23-1.36-.68-1.75s-1.09-.58-1.91-.58c-1.45,0-2.5.61-3.13,1.82l-2.17-1.27c1.05-1.98,2.87-2.97,5.46-2.97,1.57,0,2.85.4,3.85,1.21,1,.8,1.51,2.11,1.51,3.93v4.95c0,1.4.07,2.31.22,2.72h-2.87ZM188.27,18.68h-3.07c-.7,0-1.24.16-1.63.48-.19.16-.34.36-.44.59-.1.23-.15.48-.13.73,0,.58.2,1.03.59,1.33.39.3.96.46,1.69.46.88,0,1.6-.28,2.16-.83.56-.55.84-1.38.84-2.47v-.28ZM205.49,16.54v7.67h-2.97v-7.03c0-1.18-.28-1.99-.84-2.43-.53-.43-1.19-.66-1.87-.65-.4-.01-.79.06-1.16.2-.37.14-.71.36-.99.63-.57.55-.86,1.33-.86,2.35v6.94h-2.98v-12.44h2.79l.1,1.34c.39-.55.92-.99,1.54-1.25.69-.31,1.45-.47,2.2-.46,1.61,0,2.85.45,3.73,1.34.87.89,1.31,2.16,1.31,3.8ZM215,24.21c-.71.17-1.44.26-2.17.28-1.26,0-2.23-.35-2.94-1.04-.7-.69-1.05-1.72-1.05-3.08v-6.08h-1.91v-2.52h1.91v-3.88h2.95v3.88h2.87v2.52h-2.87v5.55c0,1.35.52,2.02,1.56,2.02.43-.02.86-.11,1.26-.26l.38,2.61Z"/>
</svg>