<?xml version="1.0" encoding="UTF-8"?>
<svg id="Layer_1" xmlns="http://www.w3.org/2000/svg" version="1.1" xmlns:xlink="http://www.w3.org/1999/xlink" viewBox="0 0 369.2 100">
  <!-- Generator: Adobe Illustrator 29.7.1, SVG Export Plug-In . SVG Version: 2.1.1 Build 8)  -->
  <defs>
    <style>
      .st0 {
        opacity: .35;
      }

      .st0, .st1, .st2, .st3, .st4, .st5, .st6 {
        isolation: isolate;
      }

      .st0, .st6 {
        fill: #0f0f0d;
      }

      .st7 {
        fill: url(#radial-gradient5);
      }

      .st2 {
        fill: url(#radial-gradient);
        opacity: .32;
      }

      .st2, .st3 {
        mix-blend-mode: lighten;
      }

      .st8 {
        fill: #333;
      }

      .st3 {
        fill: url(#radial-gradient3);
        opacity: .7;
      }

      .st9 {
        fill: url(#radial-gradient2);
      }

      .st4 {
        fill: url(#radial-gradient4);
        opacity: .3;
      }

      .st4, .st6 {
        mix-blend-mode: multiply;
      }

      .st10 {
        fill: url(#linear-gradient);
      }

      .st5 {
        fill: url(#radial-gradient1);
        opacity: .44;
      }

      .st6 {
        opacity: .2;
      }
    </style>
    <linearGradient id="linear-gradient" x1="63.49" y1="99.24" x2="63.49" y2="13.77" gradientTransform="translate(0 102) scale(1 -1)" gradientUnits="userSpaceOnUse">
      <stop offset="0" stop-color="#414141"/>
      <stop offset=".2" stop-color="#3e3e3e"/>
      <stop offset="1" stop-color="#3a3a3a"/>
    </linearGradient>
    <radialGradient id="radial-gradient" cx="1755.07" cy="-922.57" fx="1755.07" fy="-922.57" r="145.42" gradientTransform="translate(-560.32 -283.86) scale(.35 -.35)" gradientUnits="userSpaceOnUse">
      <stop offset=".67" stop-color="#fcfcfc" stop-opacity="0"/>
      <stop offset="1" stop-color="#fcfcfc"/>
    </radialGradient>
    <radialGradient id="radial-gradient1" cx="1760.93" cy="-941.72" fx="1760.93" fy="-941.72" r="120.97" gradientTransform="translate(-560.32 -283.86) scale(.35 -.35)" gradientUnits="userSpaceOnUse">
      <stop offset=".11" stop-color="#0f0f0d" stop-opacity="0"/>
      <stop offset=".89" stop-color="#414141" stop-opacity="0"/>
      <stop offset=".93" stop-color="#1e1e1d" stop-opacity=".68"/>
      <stop offset=".99" stop-color="#0f0f0d"/>
    </radialGradient>
    <radialGradient id="radial-gradient2" cx="1764.96" cy="-1915.78" fx="1764.96" fy="-1915.78" r="234.96" gradientTransform="translate(-560.32 -364.48) scale(.35 -.2)" gradientUnits="userSpaceOnUse">
      <stop offset="0" stop-color="#2e6b26"/>
      <stop offset="1" stop-color="#6ab536"/>
    </radialGradient>
    <radialGradient id="radial-gradient3" cx="1763.2" cy="-867.95" fx="1763.2" fy="-867.95" r="45.89" gradientTransform="translate(-560.32 -283.86) scale(.35 -.35)" gradientUnits="userSpaceOnUse">
      <stop offset="0" stop-color="#6ab536"/>
      <stop offset="1" stop-color="#2e6b26"/>
    </radialGradient>
    <radialGradient id="radial-gradient4" cx="1893.67" cy="-383.47" fx="1893.67" fy="-383.47" r="67.78" gradientTransform="translate(-572.09 -181.13) scale(.34 -.56)" gradientUnits="userSpaceOnUse">
      <stop offset="0" stop-color="#000"/>
      <stop offset=".78" stop-color="#4f4f4f" stop-opacity="0"/>
    </radialGradient>
    <radialGradient id="radial-gradient5" cx="1762.23" cy="-854.16" fx="1762.23" fy="-854.16" r="156.84" gradientTransform="translate(-560.32 -283.86) scale(.35 -.35)" gradientUnits="userSpaceOnUse">
      <stop offset="0" stop-color="#f5f5f5"/>
      <stop offset=".5" stop-color="#f2f2f2"/>
    </radialGradient>
  </defs>
  <path class="st8" d="M137.22,47.29h1.6c.53,0,.98-.09,1.34-.18.36-.18.62-.36.89-.71l10.51-11.85c.36-.36.62-.62.89-.8s.71-.27,1.16-.27h3.65l-12.03,13.54c-.27.36-.62.62-.89.89s-.53.45-.89.53c.45.09.8.36,1.07.62l.98.98,12.56,14.88h-3.65c-.27,0-.53,0-.71-.09-.18,0-.36-.09-.53-.18s-.27-.18-.36-.27l-.36-.36-10.87-12.48-.45-.45c-.18-.09-.27-.27-.45-.36-.18-.09-.36-.18-.62-.18s-.53-.09-.89-.09h-1.96v14.44h-4.28v-31.46h4.28v13.81h0ZM169.84,42.3c1.34,0,2.58.27,3.65.71,1.16.45,2.14,1.07,2.94,1.96.8.8,1.43,1.87,1.96,3.12.45,1.25.71,2.67.71,4.19,0,.62-.09,1.07-.18,1.25-.09.18-.36.27-.71.27h-14.79c0,1.43.18,2.67.53,3.65.36,1.07.8,1.87,1.43,2.58.62.71,1.34,1.25,2.23,1.6.89.36,1.78.53,2.85.53.98,0,1.87-.09,2.5-.36.71-.27,1.34-.45,1.87-.71s.98-.53,1.25-.71c.36-.27.62-.36.89-.36.36,0,.53.09.71.36l1.07,1.43c-.45.62-1.07,1.07-1.69,1.51-.71.45-1.43.8-2.14,1.07-.8.27-1.6.45-2.41.62s-1.6.18-2.41.18c-1.51,0-2.94-.27-4.28-.8s-2.41-1.25-3.39-2.32c-.98-.98-1.69-2.23-2.23-3.74s-.8-3.21-.8-5.08c0-1.51.27-3.03.71-4.37s1.16-2.5,2.05-3.48c.89-.98,1.96-1.78,3.3-2.32,1.34-.45,2.76-.8,4.37-.8h0ZM169.93,45.24c-1.87,0-3.39.53-4.46,1.6s-1.78,2.58-2.05,4.54h12.12c0-.89-.09-1.78-.36-2.5-.27-.71-.62-1.43-1.07-1.96-.45-.53-1.07-.98-1.78-1.25-.71-.36-1.51-.45-2.41-.45h0ZM192.92,42.3c1.34,0,2.58.27,3.65.71,1.16.45,2.14,1.07,2.94,1.96.8.8,1.43,1.87,1.96,3.12.45,1.25.71,2.67.71,4.19,0,.62-.09,1.07-.18,1.25-.09.18-.36.27-.71.27h-14.79c0,1.43.18,2.67.53,3.65.36,1.07.8,1.87,1.43,2.58.62.71,1.34,1.25,2.23,1.6.89.36,1.78.53,2.85.53.98,0,1.87-.09,2.5-.36.71-.27,1.34-.45,1.87-.71s.98-.53,1.25-.71c.36-.27.62-.36.89-.36.36,0,.53.09.71.36l1.07,1.43c-.45.62-1.07,1.07-1.69,1.51-.71.45-1.43.8-2.14,1.07-.8.27-1.6.45-2.41.62s-1.6.18-2.41.18c-1.51,0-2.94-.27-4.28-.8s-2.41-1.25-3.39-2.32c-.98-.98-1.69-2.23-2.23-3.74s-.8-3.21-.8-5.08c0-1.51.27-3.03.71-4.37s1.16-2.5,2.05-3.48c.89-.98,1.96-1.78,3.3-2.32,1.34-.45,2.76-.8,4.37-.8h0ZM193.01,45.24c-1.87,0-3.39.53-4.46,1.6s-1.78,2.58-2.05,4.54h12.12c0-.89-.09-1.78-.36-2.5-.27-.71-.62-1.43-1.07-1.96-.45-.53-1.07-.98-1.78-1.25-.71-.36-1.51-.45-2.41-.45h0ZM212.43,53.17v11.76h-4.28v-31.46h9.27c1.96,0,3.74.27,5.17.71,1.51.45,2.67,1.16,3.65,1.96.98.89,1.69,1.87,2.14,3.12.45,1.16.71,2.58.71,4.01s-.27,2.76-.8,4.01c-.53,1.25-1.25,2.23-2.23,3.12s-2.23,1.6-3.65,2.05c-1.43.53-3.12.71-4.99.71h-4.99,0ZM212.43,49.78h5.08c1.25,0,2.32-.18,3.21-.45.89-.36,1.69-.8,2.32-1.34.62-.53,1.07-1.25,1.43-2.05.36-.8.45-1.69.45-2.67,0-2.05-.62-3.56-1.87-4.72-1.25-1.16-3.12-1.69-5.61-1.69h-5.08v12.92h.09ZM249.23,64.93h-1.69c-.36,0-.71-.09-.89-.18-.27-.09-.36-.36-.45-.71l-.45-2.05c-.62.53-1.16.98-1.69,1.43-.53.45-1.16.8-1.78,1.07-.62.27-1.25.53-1.96.62-.71.18-1.43.18-2.32.18s-1.69-.09-2.41-.36-1.43-.62-1.96-1.07c-.53-.45-.98-1.07-1.34-1.87-.36-.71-.53-1.6-.53-2.67,0-.89.27-1.69.71-2.58.45-.8,1.25-1.51,2.32-2.14,1.07-.62,2.5-1.16,4.19-1.51,1.78-.45,3.83-.62,6.42-.62v-1.78c0-1.78-.36-3.03-1.07-3.92s-1.87-1.34-3.3-1.34c-.98,0-1.78.09-2.41.36-.62.27-1.25.53-1.69.8-.45.27-.89.53-1.25.8-.36.27-.71.36-.98.36s-.53-.09-.71-.18-.36-.27-.45-.53l-.71-1.25c1.25-1.16,2.58-2.05,4.01-2.67s3.03-.89,4.72-.89c1.25,0,2.32.18,3.3.62.98.45,1.78.98,2.41,1.69.62.71,1.16,1.6,1.51,2.67.36,1.07.53,2.14.53,3.39v14.35h-.09ZM239.08,62.53c.71,0,1.34-.09,1.87-.18.53-.18,1.07-.36,1.6-.62s.98-.53,1.43-.89.89-.8,1.34-1.25v-4.63c-1.78,0-3.3.09-4.63.36-1.25.27-2.32.53-3.12.89s-1.34.8-1.69,1.34-.53,1.07-.53,1.69.09,1.07.27,1.51.45.8.8,1.07.71.45,1.16.62c.53.09.98.09,1.51.09h0ZM267.86,46.4c-.18.36-.45.45-.8.45-.18,0-.45-.09-.71-.27s-.62-.36-.98-.53c-.45-.18-.89-.36-1.43-.53-.53-.18-1.25-.27-1.96-.27-.62,0-1.25.09-1.78.27s-.98.36-1.34.71c-.36.27-.62.62-.89.98s-.27.8-.27,1.25c0,.53.18,1.07.53,1.43.36.36.8.71,1.34.98s1.16.53,1.87.71c.71.18,1.43.45,2.14.71l2.14.8c.71.27,1.34.62,1.87,1.07s.98.98,1.34,1.6.53,1.43.53,2.32c0,.98-.18,1.96-.53,2.85s-.89,1.6-1.6,2.23-1.6,1.16-2.67,1.51c-1.07.36-2.23.53-3.56.53-1.51,0-2.94-.27-4.19-.8-1.25-.53-2.32-1.16-3.21-1.96l.89-1.51c.09-.18.27-.36.45-.45s.36-.18.62-.18.53.09.8.27.62.45,1.07.71.89.45,1.51.71c.62.18,1.34.27,2.23.27.8,0,1.43-.09,1.96-.27s1.07-.45,1.43-.8.62-.71.89-1.16c.18-.45.27-.89.27-1.43,0-.62-.18-1.16-.53-1.51-.36-.45-.8-.71-1.34-1.07-.53-.27-1.16-.53-1.87-.71-.71-.18-1.43-.45-2.14-.71l-2.14-.8c-.71-.27-1.34-.71-1.87-1.16s-.98-.98-1.34-1.69-.53-1.51-.53-2.41.18-1.69.53-2.41c.36-.8.89-1.51,1.51-2.05.71-.62,1.51-1.07,2.5-1.43.98-.36,2.14-.53,3.39-.53,1.43,0,2.76.27,3.92.71s2.14,1.07,3.03,1.87c0,0-1.07,1.69-1.07,1.69ZM286.93,46.4c-.18.36-.45.45-.8.45-.18,0-.45-.09-.71-.27s-.62-.36-.98-.53c-.45-.18-.89-.36-1.43-.53-.53-.18-1.25-.27-1.96-.27-.62,0-1.25.09-1.78.27s-.98.36-1.34.71c-.36.27-.62.62-.89.98-.18.36-.27.8-.27,1.25,0,.53.18,1.07.53,1.43.36.36.8.71,1.34.98s1.16.53,1.87.71c.71.18,1.43.45,2.14.71l2.14.8c.71.27,1.34.62,1.87,1.07s.98.98,1.34,1.6.53,1.43.53,2.32c0,.98-.18,1.96-.53,2.85s-.89,1.6-1.6,2.23-1.6,1.16-2.67,1.51c-1.07.36-2.23.53-3.56.53-1.51,0-2.94-.27-4.19-.8-1.25-.53-2.32-1.16-3.21-1.96l.89-1.51c.09-.18.27-.36.45-.45s.36-.18.62-.18.53.09.8.27.62.45,1.07.71.89.45,1.51.71c.62.18,1.34.27,2.23.27.8,0,1.43-.09,1.96-.27s1.07-.45,1.43-.8.62-.71.89-1.16c.18-.45.27-.89.27-1.43,0-.62-.18-1.16-.53-1.51-.36-.45-.8-.71-1.34-1.07-.53-.27-1.16-.53-1.87-.71-.71-.18-1.43-.45-2.14-.71l-2.14-.8c-.71-.27-1.34-.71-1.87-1.16s-.98-.98-1.34-1.69-.53-1.51-.53-2.41.18-1.69.53-2.41c.36-.8.89-1.51,1.51-2.05.71-.62,1.51-1.07,2.5-1.43.98-.36,2.14-.53,3.39-.53,1.43,0,2.76.27,3.92.71s2.14,1.07,3.03,1.87c0,0-1.07,1.69-1.07,1.69ZM301.18,48.8l-10.34-15.33h4.28c.27,0,.53.09.71.18.18.09.27.27.36.45l8.2,12.56c.09-.27.27-.62.45-.98l7.75-11.5c.09-.18.27-.36.45-.53.18-.09.36-.18.53-.18h4.1l-10.43,15.15,10.78,16.4h-4.19c-.36,0-.53-.09-.8-.27-.18-.18-.36-.36-.45-.53l-8.47-13.19c-.09.27-.27.62-.36.89l-8.2,12.3c-.09.18-.27.36-.45.53s-.45.27-.71.27h-4.01l10.78-16.22ZM343.69,58.43c.27,0,.45.09.62.27l1.69,1.78c-1.25,1.51-2.85,2.67-4.72,3.48s-4.1,1.25-6.68,1.25c-2.23,0-4.37-.36-6.15-1.16-1.87-.8-3.39-1.87-4.72-3.3s-2.32-3.12-3.03-5.08-1.07-4.19-1.07-6.51.36-4.54,1.16-6.51,1.87-3.65,3.21-5.08c1.43-1.43,3.03-2.5,4.99-3.3,1.96-.8,4.1-1.16,6.42-1.16s4.28.36,5.97,1.07c1.69.71,3.21,1.69,4.46,2.94l-1.43,1.96c-.09.18-.18.27-.36.36-.09.09-.36.18-.53.18s-.36-.09-.62-.18-.45-.27-.8-.53c-.27-.18-.62-.45-1.07-.62-.36-.27-.89-.45-1.43-.62s-1.16-.36-1.87-.53c-.71-.18-1.51-.18-2.5-.18-1.69,0-3.21.27-4.63.89s-2.58,1.43-3.65,2.5c-.98,1.07-1.78,2.41-2.32,3.92s-.89,3.3-.89,5.17.27,3.74.89,5.26c.53,1.51,1.34,2.85,2.32,3.92s2.14,1.87,3.48,2.41c1.34.53,2.76.8,4.28.8.98,0,1.78-.09,2.5-.18.71-.09,1.43-.27,2.05-.53s1.25-.53,1.78-.89,1.07-.8,1.69-1.25c.45-.45.71-.53.98-.53h0Z"/>
  <g class="st1">
    <g id="b">
      <g id="c">
        <g id="d">
          <path id="f" class="st10" d="M63.49,92.73c-23.56,0-42.73-19.17-42.73-42.73S39.93,7.27,63.49,7.27s42.73,19.17,42.73,42.73-19.17,42.73-42.73,42.73ZM63.49,10.86c-21.57,0-39.12,17.56-39.12,39.14s17.55,39.14,39.12,39.14,39.12-17.56,39.12-39.14S85.06,10.86,63.49,10.86Z"/>
          <path id="h" class="st2" d="M63.49,7.28c-23.55,0-42.72,19.16-42.72,42.72s19.16,42.72,42.72,42.72,42.72-19.16,42.72-42.72S87.05,7.28,63.49,7.28Z"/>
          <path id="j" class="st5" d="M63.49,92.73c-23.56,0-42.73-19.17-42.73-42.73S39.93,7.27,63.49,7.27s42.73,19.17,42.73,42.73-19.17,42.73-42.73,42.73ZM63.49,10.86c-21.57,0-39.12,17.56-39.12,39.14s17.55,39.14,39.12,39.14,39.12-17.56,39.12-39.14S85.06,10.86,63.49,10.86Z"/>
          <path id="k" d="M63.49,11.09c-21.74,0-39.42,17.68-39.42,39.42s17.68,39.42,39.42,39.42,39.42-17.69,39.42-39.42S85.23,11.09,63.49,11.09Z"/>
          <path id="l" class="st0" d="M63.49,92.73c-23.56,0-42.73-19.17-42.73-42.73S39.93,7.27,63.49,7.27s42.73,19.17,42.73,42.73-19.17,42.73-42.73,42.73ZM63.49,8.18c-23.56,0-42.73,18.92-42.73,42.17s19.17,42.17,42.73,42.17,42.73-18.92,42.73-42.17S87.05,8.18,63.49,8.18Z"/>
        </g>
        <g id="m">
          <path id="o" class="st9" d="M63.49,10.86c-21.58,0-39.14,17.56-39.14,39.14s17.56,39.14,39.14,39.14,39.14-17.56,39.14-39.14S85.07,10.86,63.49,10.86Z"/>
          <path id="q" class="st3" d="M63.49,14.12c-6.43,0-11.66,5.23-11.66,11.66s5.23,11.66,11.66,11.66,11.66-5.23,11.66-11.66-5.23-11.66-11.66-11.66Z"/>
          <path id="s" class="st4" d="M42.92,16.57s0,.03,0,.04c-.05,0-.05,0,0-.04ZM72.48,41.69l-.54,9.67,6.39,6.96-6.39,6.96,4.22,4.6-4.22,4.6.54,9.59h-17.97v-42.38c-7.15-3.66-12.02-11.56-12.02-20.64,0-1.52.21-2.92.43-4.44.78-.15,13.31-5.4,13.31-5.4-.1.57,14.63.57,14.53,0,0,0,12.11,5.21,13.32,5.47.31,1.49.41,2.88.41,4.38,0,9.08-4.98,16.98-12.02,20.64ZM84.06,16.57s.01.07.02.11c.13.03.14,0-.02-.11Z"/>
          <path id="t" class="st6" d="M42.52,75.56c-6.95-6.04-11.34-14.94-11.34-24.91,0-11.59,6.06-22.3,16.05-28.27-.18,1.16-.36,2.23-.36,3.39,0,6.87,4.01,12.84,9.9,15.61v31.3l7.4,7.4,7.4-7.4-.45-6.51,3.48-3.48-3.48-3.48,5.26-5.26-5.26-5.26.45-7.31c5.8-2.76,9.9-8.74,9.9-15.61,0-1.16-.09-2.23-.36-3.39,3.62,2.19,6.73,5.01,9.22,8.28-6.02-8.27-15.81-13.65-26.86-13.65-18.31,0-33.15,14.77-33.15,32.99,0,10.31,4.75,19.51,12.2,25.56h0ZM61.76,70.19h-2.5v-24.7h2.5v24.7ZM58.2,18.28c1.96-.36,4.01-.54,5.97-.54,2.05-.09,4.01.18,5.97.54.09.45.18.89.18,1.34,0,3.39-2.76,6.15-6.15,6.15s-6.15-2.76-6.15-6.15c0-.45.09-.89.18-1.34Z"/>
          <path id="v" class="st7" d="M63.49,10.86c-21.57,0-39.12,17.56-39.12,39.14s17.55,39.14,39.12,39.14,39.12-17.56,39.12-39.14S85.06,10.86,63.49,10.86ZM57.52,17.59c1.96-.36,4.01-.54,5.97-.54,2.05-.09,4.01.18,5.97.54.09.45.18.89.18,1.34,0,3.39-2.76,6.15-6.15,6.15s-6.15-2.76-6.15-6.15c0-.45.09-.89.18-1.34ZM61.08,44.79v24.7h-2.5v-24.7h2.5ZM63.49,82.96c-18.19,0-32.99-14.72-32.99-33,0-11.59,6.06-22.3,16.05-28.27-.18,1.16-.36,2.23-.36,3.39,0,6.87,4.01,12.84,9.9,15.61v31.3l7.4,7.4,7.4-7.4-.45-6.51,3.48-3.48-3.48-3.48,5.26-5.26-5.26-5.26.45-7.31c5.8-2.76,9.9-8.74,9.9-15.61,0-1.16-.09-2.23-.36-3.39,9.9,5.98,15.96,16.68,16.05,28.27,0,18.19-14.71,33-32.99,33h0Z"/>
        </g>
      </g>
    </g>
  </g>
</svg>