<svg xmlns="http://www.w3.org/2000/svg" viewBox="0 0 156 156"><path fill="#6437a3" d="M20 0h116c11.046 0 20 8.954 20 20v116c0 11.046-8.954 20-20 20H20c-11.046 0-20-8.954-20-20V20C0 8.954 8.954 0 20 0z"/><path fill="#fff" d="M101.852 19.44v5.963h11.926v5.963h5.963v5.963h5.963v5.963h5.963v11.926h5.963v47.704h-5.963v11.926h-5.963v5.963h-5.963v5.963h-5.963v5.963h-11.926v5.963H54.148v-5.963H42.222v-5.963h-5.963v-5.963h-5.963v-5.963h-5.963v-11.926H18.37V55.218h5.963V43.292h5.963v-5.963h5.963v-5.963h5.963v-5.963h11.926V19.44h47.704M54.148 49.255v5.963h-5.963v53.667h11.926V61.181h11.926v41.741h11.926V61.181h11.926v47.704h11.926V55.218h-5.963v-5.963H54.148z"/></svg>