<svg xmlns="http://www.w3.org/2000/svg" xml:space="preserve" viewBox="0 0 1215.3 376.7"><path fill-opacity=".404" d="M104.5 97.7h137c20.8 0 37.6 16.9 37.6 37.6v137c0 20.8-16.9 37.6-37.6 37.6h-137c-20.8 0-37.6-16.9-37.6-37.6v-137c-.1-20.8 16.8-37.6 37.6-37.6z"/><path fill="#FFF" d="M94.6 82.6h155.2c.8 0 1.4.6 1.4 1.4v196.6c0 .8-.6 1.4-1.4 1.4H94.6c-.8 0-1.4-.6-1.4-1.4V84.1c0-.8.6-1.5 1.4-1.5z"/><radialGradient id="a" cx="403.459" cy="20.06" r="329.187" gradientTransform="scale(1 -1) rotate(-64.106 202.878 216.661)" gradientUnits="userSpaceOnUse"><stop offset="0" stop-color="#88007c"/><stop offset="1" stop-color="#300056"/></radialGradient><path fill="url(#a)" d="M109.7 66.8h126.4c17.5 0 31.6 14.1 31.6 31.6V267c0 17.5-14.1 31.6-31.6 31.6H109.7c-17.5 0-31.6-14.1-31.6-31.6V98.4c0-17.4 14.2-31.6 31.6-31.6zm0 21.1c-5.8 0-10.5 4.7-10.5 10.5v126.4c0 5.8 4.7 10.5 10.5 10.5h126.4c5.8 0 10.5-4.7 10.5-10.5V98.4c0-5.8-4.7-10.5-10.5-10.5H109.7zM99.2 267c0 5.8 4.7 10.5 10.5 10.5h126.4c5.8 0 10.5-4.7 10.5-10.5v-12.3c-3.3 1.1-6.8 1.8-10.5 1.8H109.7c-3.7 0-7.2-.6-10.5-1.8V267z"/><path fill-opacity=".251" d="M109.7 298.6c-17.5 0-31.6-14.1-31.6-31.6v-42.1c0 17.5 14.1 31.6 31.6 31.6h126.4c17.5 0 31.6-14.1 31.6-31.6V267c0 17.5-14.1 31.6-31.6 31.6H109.7z"/><path fill="#520065" d="M162.8 175.1v28.7h-20.5V119h33.9c6.5 0 12.3 1.2 17.2 3.6 5 2.4 8.9 5.8 11.6 10.2 2.7 4.4 4.1 9.4 4.1 15.1 0 8.3-2.9 14.9-8.9 19.9s-14.1 7.5-24.4 7.5l-13-.2zm.1-15.5h13.4c4 0 7-1 9.1-3s3.2-4.9 3.2-8.6c0-4.1-1.1-7.3-3.2-9.7-2.1-2.4-5-3.7-8.7-3.7H163l-.1 25zM397.3 148.3v-14.1h16v14.1h-16zm0 72.3v-63.4h16v63.4h-16zm57.5 1.7c-6.6 0-12.2-1.5-16.9-4.4-4.7-2.9-8.3-6.9-10.8-12s-3.8-10.8-3.8-17.1c0-6.4 1.3-12.2 3.9-17.2 2.6-5.1 6.3-9 11-11.9s10.3-4.3 16.8-4.3c7.5 0 13.8 1.9 18.8 5.7 5.1 3.8 8.3 8.9 9.7 15.5l-16 4.2c-.9-3.3-2.6-5.9-4.9-7.7s-5-2.8-7.9-2.8c-3.4 0-6.1.8-8.3 2.4-2.2 1.6-3.7 3.8-4.8 6.6-1 2.8-1.5 6-1.5 9.5 0 5.5 1.2 10 3.7 13.4 2.4 3.4 6.1 5.1 10.9 5.1 3.6 0 6.3-.8 8.2-2.5s3.3-4 4.2-7l16.3 3.4c-1.8 6.7-5.2 11.9-10.2 15.6-4.9 3.7-11.1 5.5-18.4 5.5zm74.5-52.9v-12.3H511v-17.6h-16v17.6h-10.8v12.3H495v24.2c0 3.8 0 7.2.1 10.2s.9 5.9 2.5 8.8c1.7 3.1 4.2 5.3 7.5 6.7s7.1 2.1 11.3 2.2c4.2.1 8.5-.3 12.9-1.1v-13.3c-3.8.5-7.2.7-10.3.5s-5.3-1.4-6.8-3.6c-.7-1.2-1.1-2.8-1.2-4.7-.1-2-.1-4.2-.1-6.7v-23.3h18.4v.1zm35 52.9c-6.4 0-12-1.4-16.8-4.3-4.8-2.9-8.6-6.8-11.2-11.8-2.7-5-4-10.8-4-17.4 0-6.6 1.4-12.4 4.1-17.5 2.7-5 6.5-9 11.3-11.8s10.4-4.2 16.6-4.2c6.4 0 12 1.4 16.8 4.3 4.8 2.9 8.6 6.8 11.3 11.8s4.1 10.8 4.1 17.4c0 6.6-1.4 12.4-4.1 17.4-2.7 5-6.5 9-11.3 11.8-4.9 2.9-10.5 4.3-16.8 4.3zm0-14.9c5.1 0 9-1.7 11.5-5.2s3.8-7.9 3.8-13.4c0-5.6-1.3-10.1-3.8-13.5-2.6-3.4-6.4-5.1-11.4-5.1-3.5 0-6.3.8-8.6 2.3-2.2 1.6-3.9 3.7-5 6.5s-1.6 6-1.6 9.7c0 5.7 1.3 10.2 3.8 13.5 2.5 3.5 6.3 5.2 11.3 5.2zm83.9-50.3v3.5c-.4-.3-.7-.6-1.1-.9-4.1-2.9-9.2-4.4-15.2-4.4-6.1 0-11.4 1.4-15.9 4.3s-8 6.9-10.5 11.9-3.7 10.8-3.7 17.2c0 6.3 1.2 12 3.7 17.1s5.9 9 10.3 12c4.4 2.9 9.5 4.4 15.3 4.4 6 0 11-1.3 15.2-4v6.3c.1 2.4-.5 4.3-1.8 5.9-1.3 1.6-3 2.8-5.1 3.6s-4.4 1.2-6.8 1.2c-2.2 0-4.3-.5-6.2-1.5s-3.4-2.4-4.4-4.3l-14.8 7.2c1.6 2.7 3.7 5.1 6.3 7.2 2.6 2.1 5.5 3.7 8.7 4.8 3.3 1.2 6.7 1.7 10.3 1.7 4.7 0 9-.6 13-1.9 4-1.2 7.4-3.1 10.1-5.6 2.8-2.5 4.7-5.7 5.7-9.6.4-1.4.6-2.8.7-4.1.1-1.4.2-2.9.2-4.4v-67.8h-14v.2zm-6.1 48.6c-2.1 1.6-5 2.4-8.5 2.4-3.4 0-6.3-.9-8.5-2.6-2.2-1.7-3.8-4-4.9-7-1.1-2.9-1.6-6.2-1.6-9.7s.5-6.7 1.6-9.7c1.1-2.9 2.8-5.2 5.1-7 2.3-1.7 5.2-2.6 8.8-2.6 3.3 0 6 .8 8.1 2.4 2.1 1.6 3.6 3.9 4.5 6.8.9 2.9 1.4 6.3 1.4 10.1s-.5 7.2-1.4 10.1c-.9 2.9-2.4 5.2-4.6 6.8zM706 157c-1.9.1-3.8.5-5.6 1s-3.5 1.3-5 2.2c-2 1.2-3.7 2.7-5.1 4.5-.7.9-1.2 1.8-1.8 2.7v-10.2h-14.1v63.4h16.1v-32.4c0-2.4.3-4.6 1-6.6.7-1.9 1.6-3.6 2.9-5.1 1.3-1.4 2.9-2.6 4.8-3.4 1.9-.9 4-1.4 6.3-1.6 2.3-.2 4.4 0 6.1.6v-14.9c-1.8-.3-3.7-.4-5.6-.2zm64.5 16.9c-.2-2.4-1-4.7-2.2-7-2.2-4.2-5.5-7.2-9.9-8.9-4.3-1.7-9.3-2.6-14.9-2.6-7.6 0-13.7 1.6-18.1 4.9-4.4 3.3-7.4 7.6-9 12.8l14.5 4.6c1-2.9 2.8-4.9 5.3-6.1 2.5-1.1 5-1.7 7.3-1.7 4.2 0 7.2.9 9 2.6 1.4 1.4 2.3 3.4 2.6 6-2.7.4-5.3.8-7.7 1.1-4.1.6-7.8 1.2-11 1.9-3.3.7-6.1 1.4-8.4 2.3-3.4 1.3-6.1 2.8-8.1 4.7s-3.5 4-4.4 6.4-1.4 5.1-1.4 8c0 3.5.8 6.7 2.4 9.7 1.6 2.9 4 5.2 7.2 7 3.2 1.7 7 2.6 11.5 2.6 5.5 0 10-.9 13.6-2.8 2.8-1.5 5.5-3.7 8-6.7v7.8h14v-38.8c0-2.8-.1-5.4-.3-7.8zm-17.2 27.4c-.4.9-1.2 2-2.4 3.3s-2.8 2.5-4.8 3.6c-2 1-4.5 1.6-7.4 1.6-1.8 0-3.4-.3-4.8-.8-1.3-.5-2.4-1.3-3.1-2.4-.7-1-1.1-2.3-1.1-3.7 0-1.1.2-2 .7-2.9.4-.9 1.2-1.7 2.1-2.4 1-.7 2.2-1.4 3.8-2 1.4-.5 3-1 4.8-1.4s4.2-.9 7.1-1.4c1.9-.3 4.2-.7 6.8-1.2 0 1.1-.1 2.4-.2 3.8-.2 2.2-.6 4.2-1.5 5.9zM868.8 162c-3.7-4.3-9.2-6.4-16.4-6.4-4.2 0-8.1.9-11.5 2.8-3.2 1.7-5.8 4.1-7.8 7.1-1.5-2.7-3.6-5-6.2-6.7-3.2-2.1-7.3-3.2-12.2-3.2-4.3 0-8.3 1-11.8 2.9-2.7 1.5-4.9 3.3-6.8 5.6v-7H782v63.4h16v-38.4c0-3.6 1-6.6 3-8.9 2-2.3 4.7-3.4 8-3.4 3.5 0 6.2 1.2 8.2 3.5s3 5.6 3 9.8v37.5h16v-38.4c0-2.4.5-4.6 1.4-6.4.9-1.9 2.2-3.3 3.8-4.3s3.6-1.6 5.8-1.6c3.5 0 6.2 1.2 8.2 3.5s3 5.6 3 9.8v37.5h16V179c0-7.1-1.9-12.7-5.6-17zm103.5 0c-3.7-4.3-9.2-6.4-16.4-6.4-4.2 0-8.1.9-11.5 2.8-3.2 1.7-5.8 4.1-7.8 7.1-1.5-2.7-3.6-5-6.2-6.7-3.2-2.1-7.3-3.2-12.2-3.2-4.3 0-8.3 1-11.8 2.9-2.7 1.5-4.9 3.3-6.8 5.6v-7h-14.1v63.4h16.1v-38.4c0-3.6 1-6.6 3-8.9 2-2.3 4.7-3.4 8-3.4 3.5 0 6.2 1.2 8.2 3.5s3 5.6 3 9.8v37.5h16v-38.4c0-2.4.5-4.6 1.4-6.4.9-1.9 2.2-3.3 3.8-4.3s3.6-1.6 5.8-1.6c3.5 0 6.2 1.2 8.2 3.5s3 5.6 3 9.8v37.5h16V179c-.1-7.1-2-12.7-5.7-17zm66.1 31.3h7.7c.7-7.7-.1-14.4-2.3-20-2.2-5.7-5.7-10.1-10.3-13.2-4.7-3.1-10.3-4.7-17-4.7-6.3 0-11.8 1.4-16.6 4.3-4.8 2.8-8.6 6.8-11.3 12-2.7 5.1-4.1 11.2-4.1 18.1 0 6.3 1.4 12 4.2 16.9s6.7 8.8 11.6 11.6c5 2.8 10.7 4.2 17.2 4.2 6.1 0 11.7-1.6 16.9-4.8 5.1-3.2 8.9-7.7 11.3-13.5l-16-4.6c-1.2 2.6-2.9 4.6-5.1 5.9-2.2 1.4-4.9 2.1-8 2.1-5 0-8.7-1.6-11.3-4.8-1.9-2.4-3.1-5.5-3.6-9.3h36.7v-.2zm-21.3-24.1c4.7 0 8 1.4 10.1 4.3 1.4 1.9 2.2 4.5 2.7 8H1002c.6-2.9 1.7-5.4 3.1-7.3 2.6-3.3 6.6-5 12-5zm69.6-12.2c-1.9.1-3.8.5-5.6 1-1.8.5-3.5 1.3-5 2.2-2 1.2-3.7 2.7-5.1 4.5-.7.9-1.2 1.8-1.8 2.7v-10.2h-14.1v63.4h16.1v-32.4c0-2.4.3-4.6 1-6.6.7-1.9 1.6-3.6 2.9-5.1 1.3-1.4 2.9-2.6 4.8-3.4 1.9-.9 4-1.4 6.3-1.6 2.3-.2 4.4 0 6.1.6v-14.9c-1.8-.3-3.7-.4-5.6-.2zm35.2 65.3c-8 0-14.4-1.8-19.4-5.4-4.9-3.6-7.9-8.7-9-15.4l16.3-2.5c.7 3 2.1 5.3 4.4 7s5.2 2.5 8.7 2.5c2.9 0 5.1-.6 6.7-1.7 1.6-1.1 2.3-2.7 2.3-4.7 0-1.3-.3-2.3-.9-3-.6-.8-2-1.5-4.2-2.3-2.2-.7-5.6-1.7-10.1-2.9-5.2-1.3-9.3-2.8-12.4-4.5-3.1-1.6-5.3-3.6-6.7-5.9-1.4-2.3-2.1-5.1-2.1-8.3 0-4.1 1-7.6 3.1-10.6s5-5.3 8.8-6.9c3.8-1.6 8.2-2.4 13.4-2.4 5 0 9.4.8 13.2 2.3 3.8 1.5 6.9 3.7 9.3 6.5s3.8 6.1 4.4 10l-16.3 2.9c-.3-2.3-1.3-4.2-3.1-5.6-1.8-1.4-4.2-2.2-7.2-2.4-2.9-.2-5.3.2-7.1 1.2-1.8 1-2.7 2.4-2.7 4.2 0 1.1.4 2 1.1 2.8.8.7 2.4 1.5 4.8 2.3s6.1 1.8 11 3.1c4.8 1.3 8.7 2.7 11.6 4.4s5 3.7 6.4 6c1.3 2.3 2 5.1 2 8.4 0 6.5-2.4 11.6-7 15.3-4.5 3.8-11 5.6-19.3 5.6zm-780-30.3v28.6h-20.4V136h33.8c6.5 0 12.2 1.2 17.2 3.6 5 2.4 8.9 5.8 11.6 10.2s4.1 9.4 4.1 15c0 8.3-2.9 14.9-8.9 19.8-5.9 5-14 7.4-24.3 7.4h-13.1zm0-15.5h13.4c4 0 7-1 9.1-3s3.2-4.9 3.2-8.6c0-4.1-1.1-7.3-3.2-9.7s-5-3.7-8.7-3.7H342l-.1 25z"/></svg>